SplineFontDB: 3.0
FontName: AnkaCoder-C75-bi
FullName: Anka/Coder Narrow Bold Italic
FamilyName: Anka/Coder Narrow
Weight: Bold
Copyright: Copyright (c) 2010, Andrey Makarov (makarov@bmstu.ru, mka-at-mailru@mail.ru),\nwith Reserved Font Name Anka/Coder Narrow.\n---------------------------------\nThe Anka/* are members of Anna Shugol name font family; March 2010
Version: 001.100
ItalicAngle: -12
UnderlinePosition: -292
UnderlineWidth: 150
Ascent: 1638
Descent: 410
LayerCount: 2
Layer: 0 0 "Back"  1
Layer: 1 0 "Fore"  0
XUID: [1021 77 1780377344 8851325]
UseXUID: 1
BaseHoriz: 0
FSType: 8
OS2Version: 1
OS2_WeightWidthSlopeOnly: 0
OS2_UseTypoMetrics: 1
CreationTime: 1260467214
ModificationTime: 1351168407
PfmFamily: 49
TTFWeight: 700
TTFWidth: 3
LineGap: 0
VLineGap: 0
Panose: 2 11 8 9 2 5 2 2 2 4
OS2TypoAscent: 0
OS2TypoAOffset: 1
OS2TypoDescent: 0
OS2TypoDOffset: 1
OS2TypoLinegap: 0
OS2WinAscent: 0
OS2WinAOffset: 1
OS2WinDescent: 0
OS2WinDOffset: 1
HheadAscent: 0
HheadAOffset: 1
HheadDescent: 0
HheadDOffset: 1
OS2SubXSize: 553
OS2SubYSize: 1229
OS2SubXOff: 0
OS2SubYOff: 283
OS2SupXSize: 553
OS2SupYSize: 1229
OS2SupXOff: 0
OS2SupYOff: 977
OS2StrikeYSize: 102
OS2StrikeYPos: 530
OS2FamilyClass: 1285
OS2Vendor: 'AVM1'
OS2CodePages: 40000097.cfd60000
OS2UnicodeRanges: 800002ef.000079eb.00000000.00000000
MacStyle: 3
DEI: 91125
ShortTable: maxp 16
  0
  0
  0
  0
  0
  0
  0
  2
  1
  0
  9
  0
  256
  0
  0
  0
EndShort
TtTable: prep
PUSHW_1
 511
SCANCTRL
SVTCA[y-axis]
MPPEM
PUSHB_1
 8
LT
IF
PUSHB_2
 1
 1
INSTCTRL
EIF
PUSHB_2
 70
 6
CALL
IF
POP
PUSHB_1
 16
EIF
MPPEM
PUSHB_1
 20
GT
IF
POP
PUSHB_1
 128
EIF
SCVTCI
PUSHB_1
 6
CALL
NOT
IF
EIF
EndTTInstrs
TtTable: fpgm
PUSHB_1
 0
FDEF
PUSHB_1
 0
SZP0
MPPEM
PUSHB_1
 42
LT
IF
PUSHB_1
 74
SROUND
EIF
PUSHB_1
 0
SWAP
MIAP[rnd]
RTG
PUSHB_1
 6
CALL
IF
RTDG
EIF
MPPEM
PUSHB_1
 42
LT
IF
RDTG
EIF
DUP
MDRP[rp0,rnd,grey]
PUSHB_1
 1
SZP0
MDAP[no-rnd]
RTG
ENDF
PUSHB_1
 1
FDEF
DUP
DUP
MDRP[rp0,min,white]
MDAP[rnd]
PUSHB_1
 7
CALL
NOT
IF
DUP
DUP

StartChar: exclam
Encoding: 33 33 1
Width: 922
VWidth: 1708
GlyphClass: 2
Flags: W
HStem: -52 354<247.607 493.243> 1398 20G<617.5 673>
VStem: 184 373<10.6484 237.342> 500 247<1218.8 1367.66>
LayerCount: 2
Fore
SplineSet
557 125 m 3xe0
 557 22 469 -52 370 -52 c 3
 274 -52 184 23 184 125 c 3
 184 218 265 302 370 302 c 3
 467 302 557 230 557 125 c 3xe0
646 1418 m 0
 700 1418 747 1381 747 1314 c 0
 747 1301 746 1288 742 1273 c 2
 533 464 l 1
 351 464 l 1
 500 1274 l 2xd0
 518 1371 589 1418 646 1418 c 0
EndSplineSet
Validated: 3073
EndChar

StartChar: quotedbl
Encoding: 34 34 2
Width: 922
VWidth: 1708
GlyphClass: 2
Flags: W
HStem: 966 496<159 334 705 880>
LayerCount: 2
Fore
SplineSet
247 1010 m 2
 220 979 189 966 159 966 c 3
 104 966 56 1011 56 1070 c 3
 56 1088 61 1109 72 1130 c 2
 204 1378 l 2
 237 1439 286 1462 334 1462 c 3
 408 1462 480 1405 480 1328 c 3
 480 1295 466 1258 433 1220 c 2
 247 1010 l 2
793 1010 m 2
 766 979 735 966 705 966 c 3
 650 966 602 1011 602 1070 c 3
 602 1088 607 1109 618 1130 c 2
 750 1378 l 2
 783 1439 832 1462 880 1462 c 3
 954 1462 1026 1405 1026 1328 c 3
 1026 1295 1012 1258 979 1220 c 2
 793 1010 l 2
EndSplineSet
Validated: 3073
EndChar

StartChar: numbersign
Encoding: 35 35 3
Width: 922
VWidth: 1708
GlyphClass: 2
Flags: W
HStem: -0 21G<32 225.444 402 595.444> 324 184<32 104 334 474 704 782> 864 184<150 224 453 594 823 901>
LayerCount: 2
Fore
SplineSet
334 508 m 1
 515 508 l 1
 594 864 l 1
 412 864 l 1
 334 508 l 1
221 0 m 1
 32 -0 l 1
 104 324 l 1
 -10 324 l 1
 32 508 l 1
 145 508 l 1
 224 864 l 1
 109 864 l 1
 150 1048 l 1
 264 1048 l 1
 327 1333 l 1
 516 1333 l 1
 453 1048 l 1
 634 1048 l 1
 697 1333 l 1
 886 1333 l 1
 823 1048 l 1
 942 1048 l 1
 901 864 l 1
 782 864 l 1
 704 508 l 1
 822 508 l 1
 782 324 l 1
 663 324 l 1
 591 0 l 1
 402 -0 l 1
 474 324 l 1
 293 324 l 1
 221 0 l 1
EndSplineSet
Validated: 3073
EndChar

StartChar: dollar
Encoding: 36 36 4
Width: 922
VWidth: 2334
GlyphClass: 2
Flags: W
VStem: 6 184<207.01 338.69> 199 184<899.675 1129.24> 642 184<356 576.473>
LayerCount: 2
Fore
SplineSet
443 889 m 1
 511 1208 l 1
 453 1174 407 1116 392 1044 c 2
 386 1013 l 1
 384 1008 383 997 383 984 c 3
 383 932 412 906 427 898 c 2
 443 889 l 1
570 604 m 1
 480 184 l 1
 554 218 614 284 630 356 c 2
 636 386 l 2
 640 402 642 423 642 442 c 0
 642 515 617 574 570 604 c 1
420 -93 m 1
 232 -93 l 1
 250 -10 l 1
 111 32 6 156 6 308 c 0
 6 343 10 364 13 378 c 1
 193 336 l 1
 191 330 190 322 190 308 c 0
 190 250 229 195 289 171 c 1
 402 700 l 1
 335 738 l 2
 318 747 199 822 199 984 c 3
 199 1020 203 1039 206 1053 c 2
 212 1082 l 2
 248 1252 387 1388 556 1418 c 1
 572 1491 l 1
 760 1491 l 1
 743 1411 l 1
 866 1377 967 1285 967 1154 c 1
 783 1154 l 1
 783 1203 748 1216 704 1231 c 1
 610 793 l 1
 663 763 l 2
 785 687 826 550 826 442 c 0
 826 409 822 378 816 348 c 2
 810 318 l 2
 773 144 611 7 436 -20 c 1
 420 -93 l 1
EndSplineSet
Validated: 3073
EndChar

StartChar: percent
Encoding: 37 37 5
Width: 922
VWidth: 1708
GlyphClass: 2
Flags: W
HStem: -16 160<604.405 736.824> 361 158<603.491 735.735> 877 159<259.852 387.264> 1255 158<256.479 387.497>
VStem: 83 160<1049.8 1247.22> 403 160<1046.59 1241.82> 432 160<152.784 351.183> 752 160<155.809 349.162>
LayerCount: 2
Fore
SplineSet
936 1359 m 1xf9
 1060 1255 l 1
 60 42 l 1
 -64 144 l 1
 936 1359 l 1xf9
323 877 m 3
 185 877 83 992 83 1145 c 3
 83 1374 247 1413 323 1413 c 3
 484 1413 563 1281 563 1148 c 3xfd
 563 1013 482 877 323 877 c 3
243 1145 m 3
 243 1077 285 1036 327 1036 c 3
 373 1036 403 1084 403 1146 c 3
 403 1231 352 1255 318 1255 c 3
 280 1255 243 1225 243 1145 c 3
672 -16 m 3
 553 -16 432 73 432 252 c 3xfb
 432 464 576 519 671 519 c 3
 831 519 912 384 912 250 c 3
 912 117 832 -16 672 -16 c 3
672 144 m 3
 729 144 752 199 752 252 c 3
 752 344 694 361 665 361 c 3
 628 361 592 332 592 252 c 3
 592 211 603 144 672 144 c 3
EndSplineSet
Validated: 3073
EndChar

StartChar: ampersand
Encoding: 38 38 6
Width: 922
VWidth: 2334
GlyphClass: 2
Flags: W
HStem: -25 184<217.113 473.558> 1241 184<528.474 702.434>
VStem: 0 185<195.75 384.672> 295 184<922.711 1189.99> 707 184<1055.62 1236.66>
LayerCount: 2
Fore
SplineSet
499 920 m 1
 596 995 l 2
 669 1052 691 1090 697 1117 c 2
 703 1144 l 2
 706 1157 707 1167 707 1176 c 0
 707 1230 676 1241 642 1241 c 2
 623 1241 l 2
 557 1241 505 1192 487 1112 c 2
 483 1090 l 2
 481 1078 479 1062 479 1047 c 0
 479 1017 484 975 499 920 c 1
594 65 m 1
 526 11 444 -25 349 -25 c 2
 331 -25 l 2
 148 -25 0 103 0 284 c 0
 0 307 4 331 9 356 c 2
 15 386 l 2
 45 526 145 635 229 710 c 2
 345 800 l 1
 321 866 295 958 295 1047 c 0
 295 1073 297 1099 303 1126 c 2
 307 1148 l 2
 339 1298 457 1425 623 1425 c 2
 642 1425 l 2
 793 1425 891 1319 891 1176 c 0
 891 1153 888 1129 883 1106 c 2
 877 1079 l 2
 856 977 779 905 707 849 c 2
 563 736 l 1
 657 456 l 1
 766 638 l 1
 924 542 l 1
 734 228 l 1
 797 39 l 1
 623 -19 l 1
 594 65 l 1
530 257 m 1
 409 616 l 1
 347 568 l 2
 233 468 205 397 195 348 c 2
 189 318 l 2
 186 306 185 294 185 284 c 0
 185 208 247 159 331 159 c 2
 349 159 l 2
 412 159 475 192 530 257 c 1
EndSplineSet
Validated: 3073
EndChar

StartChar: quotesingle
Encoding: 39 39 7
Width: 922
VWidth: 1708
GlyphClass: 2
Flags: W
HStem: 966 496<352 527>
VStem: 249 424
LayerCount: 2
Fore
SplineSet
440 1010 m 2
 413 979 382 966 352 966 c 3
 297 966 249 1011 249 1070 c 3
 249 1088 254 1109 265 1130 c 2
 397 1378 l 2
 430 1439 479 1462 527 1462 c 3
 601 1462 673 1405 673 1328 c 3
 673 1295 659 1258 626 1220 c 2
 440 1010 l 2
EndSplineSet
Validated: 3073
EndChar

StartChar: parenleft
Encoding: 40 40 8
Width: 922
VWidth: 1708
GlyphClass: 2
Flags: W
VStem: 154 184<258.206 774.357>
LayerCount: 2
Fore
SplineSet
874 1404 m 1
 582 1206 338 866 338 507 c 3
 338 282 436 99 554 -13 c 1
 428 -147 l 1
 274 -2 154 228 154 507 c 3
 154 927 428 1325 772 1556 c 1
 874 1404 l 1
EndSplineSet
Validated: 3073
EndChar

StartChar: parenright
Encoding: 41 41 9
Width: 922
VWidth: 1708
GlyphClass: 2
Flags: W
VStem: 638 184<625.685 1141.69>
LayerCount: 2
Fore
SplineSet
102 -4 m 1
 393 193 638 534 638 893 c 3
 638 1118 540 1301 422 1413 c 1
 548 1547 l 1
 702 1401 822 1172 822 893 c 3
 822 473 549 77 204 -156 c 1
 102 -4 l 1
EndSplineSet
Validated: 3073
EndChar

StartChar: asterisk
Encoding: 42 42 10
Width: 922
VWidth: 1708
GlyphClass: 2
Flags: W
HStem: 625 180<75.0801 123 827.921 926.492>
VStem: 465 182<919.648 1048>
LayerCount: 2
Fore
SplineSet
848 805 m 0
 898 805 940 765 940 713 c 0
 940 674 914 637 875 625 c 2
 609 544 l 1
 710 347 l 2
 717 334 720 319 720 305 c 0
 720 257 682 213 628 213 c 0
 595 213 562 231 546 263 c 2
 455 442 l 1
 266 242 l 2
 248 223 223 213 199 213 c 0
 151 213 107 251 107 305 c 0
 107 328 115 350 132 368 c 2
 313 560 l 1
 123 625 l 2
 85 638 61 675 61 713 c 0
 61 757 96 805 153 805 c 0
 163 805 173 804 183 800 c 2
 409 721 l 1
 465 988 l 2
 474 1031 512 1061 554 1061 c 0
 606 1061 647 1021 647 970 c 0
 647 963 647 959 645 950 c 2
 599 733 l 1
 821 801 l 2
 830 804 839 805 848 805 c 0
EndSplineSet
Validated: 3073
EndChar

StartChar: plus
Encoding: 43 43 11
Width: 922
VWidth: 1708
GlyphClass: 2
Flags: W
HStem: 508 184<86 363 590 867>
LayerCount: 2
Fore
SplineSet
295 189 m 1
 363 508 l 1
 47 508 l 1
 86 692 l 1
 402 692 l 1
 470 1011 l 1
 658 1011 l 1
 590 692 l 1
 906 692 l 1
 867 508 l 1
 551 508 l 1
 483 189 l 1
 295 189 l 1
EndSplineSet
Validated: 3073
EndChar

StartChar: comma
Encoding: 44 44 12
Width: 922
VWidth: 1947
GlyphClass: 2
Flags: W
HStem: -295 76<107 155.295>
VStem: 251 271<-145.5 104>
LayerCount: 2
Fore
SplineSet
330 252 m 3
 458 252 522 153 522 55 c 3
 522 -11 440 -298 156 -298 c 0
 141 -298 124 -297 107 -295 c 1
 107 -219 l 1
 166 -211 251 -177 251 -114 c 3
 251 -59 136 -50 136 57 c 3
 136 159 214 252 330 252 c 3
EndSplineSet
Validated: 3073
EndChar

StartChar: hyphen
Encoding: 45 45 13
Width: 922
VWidth: 1708
GlyphClass: 2
Flags: W
HStem: 508 184<50 872>
LayerCount: 2
Fore
SplineSet
872 692 m 1
 872 508 l 1
 50 508 l 1
 50 692 l 1
 872 692 l 1
EndSplineSet
Validated: 3073
EndChar

StartChar: period
Encoding: 46 46 14
Width: 922
VWidth: 1708
GlyphClass: 2
Flags: W
HStem: -136 73<376 383 386 392 395 400 402 403.967> -49 6<379 384> -41 2<380 382> -37 2<379 382>
VStem: 354 4<-43 -37 -35 -33> 364 2<-43 -35> 368 2<-43 -35> 372 2<-43 -35> 376 2<-41 -39> 378 8<-55 -51> 380 2<-41 -39> 384 2<-61 -57 -51 -49> 392 2<-61 -55> 396 2<-61 -53> 400 2<-61 -55> 404 2<-61 -55> 408 2<-61 -55> 412 2<-61 -55> 416 2<-61 -55>
LayerCount: 2
Fore
SplineSet
422 -61 m 25xff8fe0
 420 -61 l 25
 420 -49 l 25
 418 -49 l 25
 418 -63 l 25
 422 -63 l 25
 422 -61 l 25xff8fe0
414 -61 m 9
 412 -61 l 17
 412 -55 l 9
 414 -55 l 1
 414 -61 l 9
352 -43 m 9
 354 -43 l 25
 354 -37 l 25
 358 -37 l 25
 358 -43 l 25
 360 -43 l 25
 360 -29 l 25
 354 -29 l 17
 352 -33 l 1
 352 -43 l 9
355 -31 m 9
 358 -31 l 25
 358 -35 l 25
 354 -35 l 17
 354 -33 l 1
 355 -31 l 9
366 -35 m 25
 366 -43 l 25
 368 -43 l 17
 368 -35 l 1
 367 -33 l 9
 362 -33 l 17
 362 -43 l 9
 364 -43 l 17
 364 -35 l 9
 366 -35 l 25
374 -35 m 25
 374 -43 l 25
 376 -43 l 17
 376 -35 l 1
 375 -33 l 9
 370 -33 l 17
 370 -43 l 9
 372 -43 l 25
 372 -35 l 25
 374 -35 l 25
380 -39 m 25xffafe0
 382 -39 l 25
 382 -41 l 25
 380 -41 l 25
 380 -39 l 25xffafe0
379 -43 m 9
 384 -43 l 17
 384 -35 l 1xffbfe0
 383 -33 l 9
 378 -33 l 25
 378 -35 l 25
 382 -35 l 25
 382 -37 l 25
 379 -37 l 17
 378 -39 l 1
 378 -41 l 1
 379 -43 l 9
390 -55 m 25
 390 -63 l 25
 392 -63 l 17
 392 -55 l 1
 391 -53 l 1
 388 -53 l 1
 388 -49 l 1
 386 -49 l 9
 386 -63 l 25
 388 -63 l 25
 388 -55 l 25
 390 -55 l 25
383 -55 m 1
 378 -55 l 25
 378 -51 l 25
 384 -51 l 1
 384 -49 l 9
 377 -49 l 17
 376 -51 l 1
 376 -55 l 1
 377 -57 l 9
 382 -57 l 17
 382 -61 l 1
 376 -61 l 1
 376 -63 l 9
 383 -63 l 17
 384 -61 l 1
 384 -57 l 1
 383 -55 l 1
398 -61 m 25
 396 -61 l 25
 396 -53 l 25
 394 -53 l 17
 394 -61 l 1
 395 -63 l 9
 400 -63 l 25
 400 -53 l 25
 398 -53 l 25
 398 -61 l 25
404 -61 m 25
 404 -55 l 25
 406 -55 l 25
 406 -61 l 25
 404 -61 l 25
403 -53 m 17
 402 -55 l 1
 402 -61 l 1
 403 -63 l 9
 406 -63 l 25
 406 -65 l 25
 402 -65 l 25
 402 -67 l 25
 407 -67 l 17
 408 -65 l 1
 408 -53 l 9
 403 -53 l 17
411 -53 m 17
 410 -55 l 1
 410 -61 l 1
 411 -63 l 9
 415 -63 l 17
 416 -61 l 1
 416 -55 l 1
 415 -53 l 9
 411 -53 l 17
543 59 m 3
 543 -44 463 -136 348 -136 c 3
 237 -136 154 -46 154 59 c 3
 154 161 231 254 348 254 c 3
 462 254 543 164 543 59 c 3
EndSplineSet
Validated: 3073
EndChar

StartChar: slash
Encoding: 47 47 15
Width: 922
VWidth: 1708
GlyphClass: 2
Flags: W
LayerCount: 2
Fore
SplineSet
852 1472 m 1
 1010 1378 l 1
 144 -72 l 1
 -14 22 l 1
 852 1472 l 1
EndSplineSet
Validated: 3073
EndChar

StartChar: zero
Encoding: 48 48 16
Width: 922
VWidth: 1708
GlyphClass: 2
Flags: W
HStem: -25 184<278.245 471.62> 1241 184<526.263 720.537>
LayerCount: 2
Fore
SplineSet
258 287 m 1
 258 162 343 159 363 159 c 3
 576 159 662 546 715 808 c 1
 258 287 l 1
632 1241 m 3
 432 1241 328 857 282 593 c 1
 738 1114 l 1
 738 1236 666 1241 632 1241 c 3
-63 201 m 1
 71 353 l 1
 71 533 173 1425 632 1425 c 3
 657 1425 810 1424 882 1278 c 1
 1035 1453 l 1
 1060 1203 l 1
 925 1049 l 1
 925 880 828 -25 363 -25 c 3
 338 -25 183 -15 114 123 c 1
 -30 -42 l 1
 -63 201 l 1
EndSplineSet
Validated: 3073
EndChar

StartChar: one
Encoding: 49 49 17
Width: 922
VWidth: 1708
GlyphClass: 2
Flags: W
HStem: -25 21G<347 539.276> 1405 20G<700.294 845>
VStem: 347 498
LayerCount: 2
Fore
SplineSet
347 -25 m 1
 571 1026 l 1
 381 956 l 1
 343 1023 l 1
 719 1425 l 1
 845 1425 l 1
 535 -25 l 1
 347 -25 l 1
EndSplineSet
Validated: 3073
EndChar

StartChar: two
Encoding: 50 50 18
Width: 922
VWidth: 2334
GlyphClass: 2
Flags: W
HStem: -0 184<247 720> 1241 184<483.662 760.579>
VStem: 772 184<986.471 1229.11>
LayerCount: 2
Fore
SplineSet
623 1425 m 2
 641 1425 l 2
 776 1425 956 1383 956 1149 c 0
 956 1116 952 1082 944 1045 c 2
 936 1005 l 2
 924 951 887 872 777 758 c 2
 353 320 l 2
 314 279 278 233 247 184 c 1
 759 184 l 1
 720 0 l 1
 473 0 226 -0 -22 -0 c 1
 6 129 l 1
 7 133 l 2
 90 302 169 394 221 448 c 2
 645 886 l 2
 710 954 748 1008 756 1043 c 2
 764 1083 l 2
 770 1108 772 1130 772 1149 c 0
 772 1240 705 1241 641 1241 c 2
 623 1241 l 2
 507 1241 458 1187 403 1100 c 1
 247 1198 l 1
 333 1333 436 1425 623 1425 c 2
EndSplineSet
Validated: 3073
EndChar

StartChar: three
Encoding: 51 51 19
Width: 922
VWidth: 2334
GlyphClass: 2
Flags: W
HStem: -25 184<255.708 513.043> 685 184<355 616.698> 1241 184<495.055 713.224>
VStem: 43 184<186.308 320.027> 640 184<337.273 663.028> 725 184<973.658 1231.72>
LayerCount: 2
Fore
SplineSet
640 549 m 3xf8
 640 669 568 685 523 685 c 1
 355 685 l 1
 355 869 l 1
 524 869 l 2
 604 869 693 963 710 1041 c 2
 719 1082 l 2
 724 1103 725 1122 725 1139 c 0xf4
 725 1240 667 1241 641 1241 c 0
 640 1241 l 2
 623 1241 l 2
 556 1241 463 1195 413 1111 c 1
 255 1205 l 1
 330 1332 478 1425 623 1425 c 2
 640 1425 l 1xf8
 689 1425 909 1409 909 1139 c 0xf4
 909 1108 906 1076 899 1044 c 2
 890 1003 l 2
 873 925 822 840 751 777 c 1
 808 710 824 624 824 549 c 0
 824 501 820 447 807 396 c 2
 802 376 l 2
 709 2 474 -25 372 -25 c 2
 354 -25 l 2
 186 -25 43 95 43 274 c 0
 43 301 46 328 52 356 c 1
 232 318 l 1
 228 301 227 286 227 274 c 0
 227 191 300 159 354 159 c 2
 372 159 l 2
 510 159 579 242 622 413 c 2
 627 438 l 2
 635 478 640 517 640 549 c 3xf8
EndSplineSet
Validated: 3073
EndChar

StartChar: four
Encoding: 52 52 20
Width: 922
VWidth: 1708
GlyphClass: 2
Flags: W
HStem: -0 21G<466 658.239> 335 184<331 537 764 791> 1405 20G<781.584 957>
LayerCount: 2
Fore
SplineSet
670 958 m 1
 331 519 l 1
 576 519 l 1
 670 958 l 1
84 500 m 1
 797 1425 l 1
 957 1425 l 1
 764 519 l 1
 830 519 l 1
 791 335 l 1
 725 335 l 1
 654 -0 l 1
 466 -0 l 1
 537 335 l 1
 49 335 l 1
 84 500 l 1
EndSplineSet
Validated: 3073
EndChar

StartChar: five
Encoding: 53 53 21
Width: 922
VWidth: 2334
GlyphClass: 2
Flags: W
HStem: -25 184<198.106 501.85> 755 184<416.53 632.434> 1216 184<505 920>
VStem: 655 184<379.402 734.83>
LayerCount: 2
Fore
SplineSet
409 915 m 1
 461 936 497 939 520 939 c 2
 538 939 l 2
 551 939 839 935 839 619 c 3
 839 557 833 518 822 468 c 2
 809 408 l 2
 753 148 605 -25 372 -25 c 2
 304 -25 l 2
 168 -25 32 63 0 212 c 1
 150 291 l 1
 156 268 189 159 304 159 c 2
 372 159 l 2
 423 159 569 169 629 446 c 2
 642 506 l 2
 651 548 655 587 655 619 c 3
 655 747 578 755 538 755 c 2
 516 755 l 2
 483 755 387 716 318 603 c 1
 157 734 l 1
 371 1400 l 1
 959 1400 l 1
 920 1216 l 1
 505 1216 l 1
 409 915 l 1
EndSplineSet
Validated: 3073
EndChar

StartChar: six
Encoding: 54 54 22
Width: 922
VWidth: 2334
GlyphClass: 2
Flags: W
HStem: -25 184<271.804 501.85> 755 184<394.25 633.319> 1241 184<514.028 759.024>
VStem: 56 184<187.429 539.463> 655 184<379.562 735.364>
LayerCount: 2
Fore
SplineSet
769 1181 m 1
 758 1238 689 1241 641 1241 c 2
 623 1241 l 2
 513 1241 403 1125 363 938 c 2
 356 905 l 1
 405 927 458 939 520 939 c 2
 538 939 l 2
 553 939 839 932 839 619 c 3
 839 571 833 519 822 468 c 2
 809 408 l 2
 753 149 605 -25 372 -25 c 2
 354 -25 l 2
 224 -25 56 61 56 313 c 3
 56 368 63 409 72 451 c 2
 183 976 l 2
 226 1181 375 1425 623 1425 c 2
 641 1425 l 2
 687 1425 905 1421 949 1219 c 1
 769 1181 l 1
655 619 m 3
 655 748 581 755 538 755 c 2
 520 755 l 2
 467 755 323 739 264 468 c 2
 251 408 l 2
 243 370 240 340 240 313 c 3
 240 165 342 159 354 159 c 2
 372 159 l 2
 423 159 569 170 629 446 c 2
 642 506 l 2
 651 548 655 587 655 619 c 3
EndSplineSet
Validated: 3073
EndChar

StartChar: seven
Encoding: 55 55 23
Width: 922
VWidth: 1708
GlyphClass: 2
Flags: W
HStem: 0 21G<55 346> 1216 184<256 730>
LayerCount: 2
Fore
SplineSet
55 0 m 1
 253 482 541 938 730 1216 c 1
 256 1216 l 1
 256 1400 l 1
 1018 1400 l 1
 990 1267 l 1
 981 1255 l 2
 706 866 437 424 255 -0 c 1
 188 -0 122 0 55 0 c 1
EndSplineSet
Validated: 3073
EndChar

StartChar: eight
Encoding: 56 56 24
Width: 922
VWidth: 2334
GlyphClass: 2
Flags: W
HStem: -25 184<259.917 508.478> 685 184<435.511 620.025> 1241 184<515.138 713.66>
VStem: 50 186<184.677 488.13> 236 184<880.5 1081.23> 640 184<339.179 666.865> 725 184<1045.26 1228.81>
LayerCount: 2
Fore
SplineSet
523 685 m 2xfc
 504 685 l 2
 452 685 317 668 249 396 c 2
 244 376 l 2
 236 343 236 320 236 295 c 3
 236 163 327 159 354 159 c 2
 372 159 l 2
 509 159 579 245 622 418 c 2
 627 438 l 2
 638 481 640 517 640 549 c 3
 640 680 567 685 523 685 c 2xfc
640 1425 m 2
 690 1425 909 1409 909 1139 c 3xfa
 909 1108 907 1072 900 1044 c 2
 890 1003 l 2
 870 921 822 840 751 777 c 1
 808 710 824 624 824 549 c 3
 824 501 820 450 807 396 c 2
 802 376 l 2
 708 1 470 -25 372 -25 c 2
 354 -25 l 2
 271 -25 50 8 50 295 c 0
 50 331 54 378 64 418 c 2
 69 438 l 2
 109 599 176 731 284 804 c 1
 257 848 236 907 236 975 c 3
 236 998 238 1019 243 1043 c 2
 251 1083 l 2
 293 1291 455 1425 623 1425 c 2
 640 1425 l 2
504 869 m 2
 524 869 l 2
 604 869 693 966 709 1041 c 2
 719 1082 l 2
 723 1100 725 1123 725 1139 c 3xfa
 725 1236 664 1241 640 1241 c 2xfc
 623 1241 l 2
 540 1241 456 1168 431 1045 c 2
 423 1005 l 2
 421 996 420 985 420 975 c 3
 420 929 438 869 504 869 c 2
EndSplineSet
Validated: 8391681
EndChar

StartChar: nine
Encoding: 57 57 25
Width: 922
VWidth: 2334
GlyphClass: 2
Flags: W
HStem: -25 184<233.92 481.244> 461 184<364.374 605.327> 1241 184<500.669 727.348>
VStem: 156 184<666.995 1015.05> 756 184<859.959 1215.79>
LayerCount: 2
Fore
SplineSet
340 780 m 3
 340 642 420 647 458 645 c 2
 476 645 l 2
 527 645 672 656 732 932 c 2
 745 992 l 2
 753 1028 756 1059 756 1086 c 3
 756 1234 672 1239 641 1241 c 2
 623 1241 l 2
 572 1241 427 1231 367 954 c 2
 354 894 l 2
 345 850 340 812 340 780 c 3
227 218 m 1
 237 169 282 162 354 159 c 2
 372 159 l 2
 483 159 593 278 632 462 c 2
 639 494 l 1
 590 473 536 461 476 461 c 2
 458 461 l 2
 433 463 156 453 156 780 c 3
 156 828 163 879 174 932 c 2
 187 992 l 2
 243 1250 389 1425 623 1425 c 2
 641 1425 l 2
 897 1408 940 1208 940 1086 c 3
 940 1031 932 989 924 949 c 2
 812 424 l 2
 768 219 621 -25 372 -25 c 2
 354 -25 l 2
 318 -23 89 -30 47 182 c 1
 227 218 l 1
EndSplineSet
Validated: 3073
EndChar

StartChar: less
Encoding: 60 60 28
Width: 922
VWidth: 1708
GlyphClass: 2
Flags: W
HStem: -10 21G<696.544 722.286>
LayerCount: 2
Fore
SplineSet
118 657 m 1
 982 1234 l 1
 928 976 l 1
 346 588 l 1
 763 200 l 1
 718 -10 l 1
 99 567 l 1
 118 657 l 1
EndSplineSet
Validated: 3073
EndChar

StartChar: equal
Encoding: 61 61 29
Width: 922
VWidth: 1708
GlyphClass: 2
Flags: W
HStem: 308 184<23 845> 718 184<110 932>
LayerCount: 2
Fore
SplineSet
932 902 m 1
 932 718 l 1
 110 718 l 1
 110 902 l 1
 932 902 l 1
845 492 m 1
 845 308 l 1
 23 308 l 1
 23 492 l 1
 845 492 l 1
EndSplineSet
Validated: 3073
EndChar

StartChar: greater
Encoding: 62 62 30
Width: 922
VWidth: 1708
GlyphClass: 2
Flags: W
LayerCount: 2
Fore
SplineSet
235 1211 m 1
 855 634 l 1
 835 542 l 1
 -29 -35 l 1
 26 224 l 1
 608 612 l 1
 191 1001 l 1
 235 1211 l 1
EndSplineSet
Validated: 3073
EndChar

StartChar: question
Encoding: 63 63 31
Width: 922
VWidth: 1708
GlyphClass: 2
Flags: W
HStem: -160 338<234.31 461.307> 1044 21G<291.263 400> 1241 184<473.48 762.163>
VStem: 180 337<-103.705 123.538> 206 180<1078.97 1153.68> 773 183<978.329 1226.53>
LayerCount: 2
Fore
SplineSet
517 9 m 3xf4
 517 -81 448 -160 348 -160 c 3
 252 -160 180 -82 180 9 c 3
 180 97 246 178 348 178 c 3
 447 178 517 100 517 9 c 3xf4
641 1425 m 2
 867 1425 956 1302 956 1149 c 3
 956 1115 952 1080 944 1044 c 2
 936 1005 l 2
 916 910 859 835 806 783 c 2
 651 630 l 2
 616 596 557 535 541 461 c 2
 522 370 l 1
 334 370 l 1
 361 499 l 2
 385 613 458 699 522 762 c 2
 677 915 l 2
 721 958 747 1002 756 1044 c 2
 764 1082 l 2
 770 1109 773 1131 773 1150 c 3
 773 1222 728 1241 641 1241 c 2
 623 1241 l 2
 481 1241 414 1174 386 1044 c 1
 206 1082 l 1xec
 276 1412 541 1425 623 1425 c 2
 641 1425 l 2
EndSplineSet
Validated: 3073
EndChar

StartChar: at
Encoding: 64 64 32
Width: 922
VWidth: 1708
GlyphClass: 2
Flags: W
HStem: -25 184<268.025 555.771> 343 184<555.802 657.55> 876 184<623.807 760> 1241 184<506.809 752.56>
VStem: 27 184<223.05 739.666> 369 184<527.606 799.954> 802 184<1061.44 1191.34>
LayerCount: 2
Fore
SplineSet
632 1241 m 3
 379 1241 211 744 211 435 c 3
 211 263 257 159 363 159 c 3
 444 159 519 169 583 223 c 1
 701 81 l 1
 585 -15 455 -25 363 -25 c 3
 228 -25 27 55 27 435 c 3
 27 785 218 1425 632 1425 c 3
 821 1425 986 1286 986 1089 c 3
 986 1070 984 1044 978 1014 c 2
 832 330 l 1
 644 330 l 1
 649 350 l 1
 630 346 611 343 591 343 c 3
 493 343 369 395 369 586 c 3
 369 726 436 1060 705 1060 c 2
 802 1061 l 1
 802 1071 802 1080 802 1089 c 3
 802 1180 723 1241 632 1241 c 3
694 876 m 2
 671 876 553 846 553 586 c 3
 553 539 567 527 591 527 c 3
 617 527 685 559 714 658 c 2
 760 876 l 1
 694 876 l 2
EndSplineSet
Validated: 3073
EndChar

StartChar: B
Encoding: 66 66 33
Width: 922
VWidth: 1947
GlyphClass: 2
Flags: W
HStem: 0 184<204 543.125> 663 184<344 622.807> 1216 184<423 711.177>
VStem: 649 184<450.332 651.293> 722 184<959.07 1201.27>
LayerCount: 2
Fore
SplineSet
586 1400 m 2xf0
 701 1400 906 1381 906 1148 c 3xe8
 906 1115 902 1081 894 1044 c 2
 886 1006 l 2
 876 959 849 848 760 765 c 1
 805 720 833 656 833 571 c 3
 833 537 829 502 821 466 c 2
 790 318 l 2
 744 105 614 0 378 0 c 2
 -24 0 l 1
 273 1400 l 1
 586 1400 l 2xf0
649 571 m 3xf0
 649 651 603 663 518 663 c 2
 305 663 l 1
 204 184 l 1
 378 184 l 2
 535 184 584 239 610 358 c 2
 641 504 l 2
 644 517 649 544 649 571 c 3xf0
468 847 m 2
 611 847 678 913 706 1044 c 2
 714 1082 l 2
 721 1115 722 1135 722 1148 c 3xe8
 722 1206 648 1216 586 1216 c 2
 423 1216 l 1
 344 847 l 1
 468 847 l 2
EndSplineSet
Validated: 3073
EndChar

StartChar: C
Encoding: 67 67 34
Width: 922
VWidth: 1947
GlyphClass: 2
Flags: W
HStem: -25 184<282.407 476.6> 1241 184<516.017 716.94>
VStem: 71 184<180.593 682.243> 741 184<1076 1219.02>
LayerCount: 2
Fore
SplineSet
741 1076 m 1
 741 1234 673 1241 632 1241 c 3
 495 1241 388 1097 299 681 c 0
 273 561 255 438 255 349 c 3
 255 229 277 159 363 159 c 0
 447 159 522 222 585 354 c 1
 751 276 l 1
 653 68 517 -25 363 -25 c 3
 286 -25 71 -7 71 349 c 3
 71 465 92 593 119 719 c 0
 177 992 291 1425 632 1425 c 3
 710 1425 925 1403 925 1076 c 1
 741 1076 l 1
EndSplineSet
Validated: 3073
EndChar

StartChar: D
Encoding: 68 68 35
Width: 922
VWidth: 1947
GlyphClass: 2
Flags: W
HStem: 0 184<204 482.949> 1216 184<423 714.495>
VStem: 740 184<714.628 1193.69>
LayerCount: 2
Fore
SplineSet
627 1400 m 2
 669 1400 924 1388 924 1037 c 3
 924 927 904 806 877 681 c 0
 813 383 699 0 369 0 c 2
 -24 0 l 1
 273 1400 l 1
 627 1400 l 2
740 1037 m 3
 740 1206 680 1216 627 1216 c 2
 423 1216 l 1
 204 184 l 1
 369 184 l 2
 500 184 608 305 697 719 c 0
 723 839 740 951 740 1037 c 3
EndSplineSet
Validated: 3073
EndChar

StartChar: E
Encoding: 69 69 36
Width: 922
VWidth: 1708
GlyphClass: 2
Flags: W
HStem: 0 185<204 722> 663 184<344 768> 1216 184<423 980>
LayerCount: 2
Fore
SplineSet
305 663 m 1
 204 185 l 1
 761 185 l 1
 722 0 l 1
 -24 0 l 1
 273 1400 l 1
 1019 1400 l 1
 980 1216 l 1
 423 1216 l 1
 344 847 l 1
 807 847 l 1
 768 663 l 1
 305 663 l 1
EndSplineSet
Validated: 3073
EndChar

StartChar: F
Encoding: 70 70 37
Width: 922
VWidth: 1708
GlyphClass: 2
Flags: W
HStem: 0 21G<-24 168.253> 663 184<344 768> 1216 184<423 980>
LayerCount: 2
Fore
SplineSet
-24 0 m 1
 273 1400 l 1
 1019 1400 l 1
 980 1216 l 1
 423 1216 l 1
 344 847 l 1
 807 847 l 1
 768 663 l 1
 305 663 l 1
 164 0 l 1
 -24 0 l 1
EndSplineSet
Validated: 3073
EndChar

StartChar: G
Encoding: 71 71 38
Width: 922
VWidth: 1947
GlyphClass: 2
Flags: W
HStem: -25 184<285.956 506.496> 525 184<541 646> 1241 184<523.828 714.364>
VStem: 71 184<184.785 682.231> 741 184<1076 1213.47>
LayerCount: 2
Fore
SplineSet
741 1076 m 1
 741 1155 725 1241 632 1241 c 3
 499 1241 388 1097 299 681 c 0
 273 561 255 443 255 349 c 3
 255 269 267 159 363 159 c 3
 466 159 549 211 602 319 c 1
 646 525 l 1
 503 525 l 1
 541 709 l 1
 874 709 l 1
 778 260 l 1
 773 250 l 2
 688 67 539 -25 363 -25 c 3
 248 -25 71 29 71 349 c 3
 71 464 92 593 119 719 c 0
 177 991 292 1425 632 1425 c 3
 867 1425 925 1237 925 1076 c 1
 741 1076 l 1
EndSplineSet
Validated: 3073
EndChar

StartChar: H
Encoding: 72 72 39
Width: 922
VWidth: 1947
GlyphClass: 2
Flags: W
HStem: -0 21G<-24 168.243 534 726.255> 608 184<332 663>
LayerCount: 2
Fore
SplineSet
164 0 m 1
 101 0 39 -0 -24 -0 c 1
 273 1396 l 1
 461 1396 l 1
 332 792 l 1
 702 792 l 1
 831 1396 l 1
 1019 1396 l 1
 722 0 l 1
 659 0 597 -0 534 -0 c 1
 663 608 l 1
 293 608 l 1
 164 0 l 1
EndSplineSet
Validated: 3073
EndChar

StartChar: I
Encoding: 73 73 40
Width: 922
VWidth: 1947
GlyphClass: 2
Flags: W
HStem: 0 184<17 294 483 730> 1216 184<274 513 701 987>
LayerCount: 2
Fore
SplineSet
730 0 m 1
 479 0 229 0 -22 0 c 1
 17 184 l 1
 294 184 l 1
 513 1216 l 1
 235 1216 l 1
 274 1400 l 1
 1026 1400 l 1
 987 1216 l 1
 701 1216 l 1
 483 184 l 1
 769 184 l 1
 730 0 l 1
EndSplineSet
Validated: 3073
EndChar

StartChar: J
Encoding: 74 74 41
Width: 922
VWidth: 1947
GlyphClass: 2
Flags: W
HStem: -25 184<185.529 394.051> 1216 184<503 657 846 987>
VStem: -6 184<170.42 242>
LayerCount: 2
Fore
SplineSet
1026 1400 m 1
 987 1216 l 1
 846 1216 l 1
 655 318 l 2
 607 96 461 -25 282 -25 c 2
 264 -25 l 2
 102 -25 -6 80 -6 242 c 1
 178 242 l 1
 178 183 201 159 264 159 c 2
 282 159 l 2
 398 159 453 253 475 356 c 2
 657 1216 l 1
 464 1216 l 1
 503 1400 l 1
 1026 1400 l 1
EndSplineSet
Validated: 3073
EndChar

StartChar: K
Encoding: 75 75 42
Width: 922
VWidth: 1947
GlyphClass: 2
Flags: W
HStem: -0 21G<-24 168.234 549.357 746> 1380 20G<269.743 462 792.492 1048>
LayerCount: 2
Fore
SplineSet
164 0 m 1
 101 0 39 -0 -24 -0 c 1
 274 1400 l 1
 462 1400 l 1
 341 833 l 1
 809 1400 l 1
 1048 1400 l 1
 529 771 l 1
 746 0 l 1
 682 0 618 -0 555 -0 c 1
 386 599 l 1
 258 444 l 1
 164 0 l 1
EndSplineSet
Validated: 3073
EndChar

StartChar: L
Encoding: 76 76 43
Width: 922
VWidth: 1947
GlyphClass: 2
Flags: W
HStem: 0 185<204 719> 1380 20G<269.743 462>
LayerCount: 2
Fore
SplineSet
719 0 m 1
 -24 0 l 1
 274 1400 l 1
 462 1400 l 1
 204 185 l 1
 758 185 l 1
 719 0 l 1
EndSplineSet
Validated: 3073
EndChar

StartChar: M
Encoding: 77 77 44
Width: 922
VWidth: 1947
GlyphClass: 2
Flags: W
HStem: 0 21G<-106 90.6897 616 803.829> 1380 20G<286.314 480.69 794.974 999>
VStem: 316 187<733 812>
LayerCount: 2
Fore
SplineSet
-106 0 m 1
 292 1400 l 1
 480 1400 l 1
 503 733 l 1
 804 1400 l 1
 999 1400 l 1
 801 0 l 1
 616 -0 l 1
 727 791 l 1
 475 242 l 1
 336 242 l 1
 316 812 l 1
 85 0 l 1
 -106 0 l 1
EndSplineSet
Validated: 3073
EndChar

StartChar: N
Encoding: 78 78 45
Width: 922
VWidth: 1947
GlyphClass: 2
Flags: W
HStem: 0 21G<-24 168.243 558.425 726.257> 1380 20G<268.757 436.57 827.74 1020>
VStem: 273 159<1337.25 1400> 563 159<0 62.6767>
LayerCount: 2
Fore
SplineSet
164 -0 m 1
 101 -0 39 0 -24 0 c 1
 273 1400 l 1
 432 1400 l 1
 639 494 l 1
 832 1400 l 1
 1020 1400 l 1
 722 0 l 1
 563 -0 l 1
 356 905 l 1
 164 -0 l 1
EndSplineSet
Validated: 3073
EndChar

StartChar: O
Encoding: 79 79 46
Width: 922
VWidth: 1947
GlyphClass: 2
Flags: W
HStem: -25 184<282.407 475.916> 1241 184<520.003 715.168>
VStem: 71 184<180.593 684.359> 741 184<716.438 1219.36>
LayerCount: 2
Fore
SplineSet
925 1052 m 3
 925 988 918 888 887 730 c 2
 865 625 l 2
 801 352 684 -25 363 -25 c 3
 286 -25 71 -7 71 349 c 3
 71 413 78 512 109 669 c 2
 129 767 l 2
 190 1033 315 1425 632 1425 c 3
 705 1425 925 1410 925 1052 c 3
632 1241 m 3
 505 1241 395 1105 309 727 c 2
 289 633 l 2
 261 492 255 405 255 349 c 3
 255 229 277 159 363 159 c 3
 492 159 600 297 685 665 c 2
 707 767 l 2
 735 908 741 995 741 1052 c 3
 741 1172 719 1241 632 1241 c 3
EndSplineSet
Validated: 3073
EndChar

StartChar: P
Encoding: 80 80 47
Width: 922
VWidth: 1947
GlyphClass: 2
Flags: W
HStem: -0 21G<-24 168.25> 593 184<329 654.838> 1216 184<423 766.162>
VStem: 772 184<931.967 1205.58>
LayerCount: 2
Fore
SplineSet
504 777 m 2
 646 777 713 843 741 974 c 2
 764 1082 l 2
 771 1116 772 1141 772 1157 c 3
 772 1188 765 1216 636 1216 c 2
 423 1216 l 1
 329 777 l 1
 504 777 l 2
-24 -0 m 1
 273 1400 l 1
 636 1400 l 2
 863 1400 956 1303 956 1148 c 3
 956 1115 952 1079 944 1044 c 2
 921 936 l 2
 851 606 589 593 504 593 c 2
 290 593 l 1
 164 -0 l 1
 -24 -0 l 1
EndSplineSet
Validated: 3073
EndChar

StartChar: Q
Encoding: 81 81 48
Width: 922
VWidth: 1947
GlyphClass: 2
Flags: W
HStem: -25 184<285.297 408> 1241 184<518.555 713.121>
VStem: 71 184<184.527 684.359> 741 184<716.438 1217.5>
LayerCount: 2
Fore
SplineSet
685 -118 m 1
 509 -170 l 1
 461 -12 l 1
 431 -21 398 -25 363 -25 c 3
 288 -25 71 -0 71 349 c 3
 71 413 78 512 109 669 c 2
 129 767 l 2
 190 1033 308 1425 632 1425 c 3
 711 1425 925 1400 925 1052 c 3
 925 988 918 888 887 730 c 2
 865 625 l 2
 823 445 756 219 624 86 c 1
 685 -118 l 1
632 1241 m 3
 503 1241 395 1105 309 727 c 2
 289 633 l 2
 261 492 255 405 255 349 c 3
 255 234 285 159 363 159 c 3
 378 159 394 161 408 165 c 1
 346 373 l 1
 522 425 l 1
 559 303 l 1
 605 384 647 503 685 665 c 2
 707 767 l 2
 735 908 741 995 741 1052 c 3
 741 1172 717 1241 632 1241 c 3
EndSplineSet
Validated: 3073
EndChar

StartChar: R
Encoding: 82 82 49
Width: 922
VWidth: 1947
GlyphClass: 2
Flags: W
HStem: 0 21G<-24 168.25 563.042 757> 593 184<329 421> 1216 184<423 761.336>
VStem: 772 184<927.346 1204.91>
LayerCount: 2
Fore
SplineSet
504 777 m 2
 646 777 713 843 741 975 c 2
 764 1082 l 2
 771 1114 772 1136 772 1148 c 3
 772 1182 766 1216 636 1216 c 2
 423 1216 l 1
 329 777 l 1
 504 777 l 2
-24 -0 m 1
 273 1400 l 1
 636 1400 l 2
 894 1400 956 1283 956 1148 c 3
 956 1115 952 1080 944 1044 c 2
 921 937 l 2
 906 866 852 651 608 603 c 1
 757 0 l 1
 568 0 l 1
 421 593 l 1
 290 593 l 1
 164 0 l 1
 101 0 39 -0 -24 -0 c 1
EndSplineSet
Validated: 3073
EndChar

StartChar: S
Encoding: 83 83 50
Width: 922
VWidth: 2334
GlyphClass: 2
Flags: W
HStem: -25 184<244.01 509.21> 1044 21G<865.263 962.5> 1241 184<495.412 760.252>
VStem: 6 184<207.536 340.434> 199 184<900.371 1127.38> 642 184<321.12 579.934> 784 184<1079.77 1209.21>
LayerCount: 2
Fore
SplineSet
636 1425 m 2xfc
 827 1425 968 1303 968 1121 c 3
 968 1095 965 1070 960 1044 c 1
 780 1082 l 1
 783 1096 784 1110 784 1121 c 2
 784 1135 l 1xfa
 784 1206 716 1241 636 1241 c 2
 629 1241 l 2
 520 1241 417 1160 392 1044 c 2
 386 1014 l 2
 384 1004 383 994 383 984 c 3
 383 924 414 905 427 898 c 2
 663 763 l 2
 767 698 826 578 826 442 c 3
 826 409 822 378 816 348 c 2
 810 318 l 2
 768 122 570 -25 372 -25 c 2
 354 -25 l 2
 166 -25 6 121 6 308 c 3
 6 331 8 353 13 376 c 1
 193 338 l 1
 191 327 190 317 190 308 c 3
 190 231 259 159 354 159 c 2
 372 159 l 2
 489 159 607 251 630 356 c 2
 636 386 l 2
 639 402 642 422 642 442 c 3
 642 511 620 573 569 605 c 2
 335 738 l 2
 317 748 199 824 199 984 c 3
 199 1008 201 1029 206 1052 c 2
 212 1082 l 2
 253 1276 428 1425 629 1425 c 2
 636 1425 l 2xfc
EndSplineSet
Validated: 3073
EndChar

StartChar: T
Encoding: 84 84 51
Width: 922
VWidth: 1947
GlyphClass: 2
Flags: W
HStem: -0 21G<255 447.26> 1216 184<255 513 702 999>
LayerCount: 2
Fore
SplineSet
255 1400 m 1
 1038 1400 l 1
 999 1216 l 1
 702 1216 l 1
 443 -0 l 1
 380 -0 318 -0 255 -0 c 1
 513 1216 l 1
 217 1216 l 1
 255 1400 l 1
EndSplineSet
Validated: 3073
EndChar

StartChar: U
Encoding: 85 85 52
Width: 922
VWidth: 1947
GlyphClass: 2
Flags: W
HStem: -25 184<243.025 521.658> 1380 20G<269.747 462 827.747 1020>
VStem: 40 184<174.578 486.781>
LayerCount: 2
Fore
SplineSet
232 318 m 2
 226 292 224 267 224 249 c 3
 224 213 236 159 354 159 c 2
 372 159 l 2
 515 159 582 224 610 356 c 2
 832 1400 l 1
 1020 1400 l 1
 790 318 l 2
 773 238 706 -25 372 -25 c 2
 354 -25 l 2
 52 -25 40 226 40 249 c 3
 40 279 45 321 52 356 c 2
 274 1400 l 1
 462 1400 l 1
 232 318 l 2
EndSplineSet
Validated: 3073
EndChar

StartChar: V
Encoding: 86 86 53
Width: 922
VWidth: 1708
GlyphClass: 2
Flags: W
HStem: -25 21G<265.789 438.73> 1380 20G<251 435.215 842.288 1052>
VStem: 251 184<468 1400> 266 179<468 1336.92>
LayerCount: 2
Fore
SplineSet
266 -25 m 1xd0
 251 1400 l 1
 435 1400 l 1xe0
 445 468 l 1
 851 1400 l 1
 1052 1400 l 1
 430 -25 l 1
 266 -25 l 1xd0
EndSplineSet
Validated: 3073
EndChar

StartChar: W
Encoding: 87 87 54
Width: 922
VWidth: 1947
GlyphClass: 2
Flags: W
HStem: -0 21G<-3 201.163 515.3 709.686> 1380 20G<192.19 380 905.31 1102>
VStem: 493 187<588 657>
LayerCount: 2
Fore
SplineSet
-3 -0 m 1
 0 12 l 1
 195 1400 l 1
 380 1400 l 1
 269 609 l 1
 521 1158 l 1
 660 1158 l 1
 680 588 l 1
 911 1400 l 1
 1102 1400 l 1
 704 -0 l 1
 641 -0 579 -0 516 -0 c 1
 493 657 l 1
 192 0 l 1
 -3 -0 l 1
EndSplineSet
Validated: 3073
EndChar

StartChar: X
Encoding: 88 88 55
Width: 922
VWidth: 1947
GlyphClass: 2
Flags: W
HStem: -0 21G<-46 183.45 538.071 729> 1380 20G<267 457.885 812.505 1042>
LayerCount: 2
Fore
SplineSet
-46 -0 m 1
 401 718 l 1
 267 1400 l 1
 454 1400 l 1
 542 947 l 1
 825 1400 l 1
 1042 1400 l 1
 595 682 l 1
 729 -0 l 1
 542 0 l 1
 453 453 l 1
 171 0 l 1
 -46 -0 l 1
EndSplineSet
Validated: 3073
EndChar

StartChar: Y
Encoding: 89 89 56
Width: 922
VWidth: 1947
GlyphClass: 2
Flags: W
HStem: -25 21G<247 439.348> 1380 20G<262 449.347 824.15 1044>
LayerCount: 2
Fore
SplineSet
247 -25 m 1
 365 518 l 1
 262 1400 l 1
 447 1400 l 1
 516 812 l 1
 835 1400 l 1
 1044 1400 l 1
 545 481 l 1
 435 -25 l 1
 247 -25 l 1
EndSplineSet
Validated: 3073
EndChar

StartChar: Z
Encoding: 90 90 57
Width: 922
VWidth: 1947
GlyphClass: 2
Flags: W
HStem: 0 185<263 721> 1216 184<276 733>
LayerCount: 2
Fore
SplineSet
237 1216 m 1
 276 1400 l 1
 1018 1400 l 1
 990 1267 l 1
 263 185 l 1
 760 185 l 1
 721 0 l 1
 -21 0 l 1
 7 134 l 1
 733 1216 l 1
 237 1216 l 1
EndSplineSet
Validated: 3073
EndChar

StartChar: bracketleft
Encoding: 91 91 58
Width: 922
VWidth: 1947
GlyphClass: 2
Flags: W
HStem: -172 184<335 592> 1388 184<627 924>
LayerCount: 2
Fore
SplineSet
627 1388 m 1
 335 12 l 1
 632 12 l 1
 592 -172 l 1
 107 -172 l 1
 479 1572 l 1
 963 1572 l 1
 924 1388 l 1
 627 1388 l 1
EndSplineSet
Validated: 3073
EndChar

StartChar: backslash
Encoding: 92 92 59
Width: 922
VWidth: 1708
GlyphClass: 2
Flags: W
VStem: 282 432
LayerCount: 2
Fore
SplineSet
282 1409 m 1
 464 1441 l 1
 714 -9 l 1
 532 -41 l 1
 282 1409 l 1
EndSplineSet
Validated: 3073
EndChar

StartChar: bracketright
Encoding: 93 93 60
Width: 922
VWidth: 1947
GlyphClass: 2
Flags: W
HStem: -172 184<73 369> 1388 184<404 661>
LayerCount: 2
Fore
SplineSet
365 1388 m 1
 404 1572 l 1
 889 1572 l 1
 517 -172 l 1
 33 -172 l 1
 73 12 l 1
 369 12 l 1
 661 1388 l 1
 365 1388 l 1
EndSplineSet
Validated: 3073
EndChar

StartChar: asciicircum
Encoding: 94 94 61
Width: 922
VWidth: 1947
GlyphClass: 2
Flags: W
HStem: 895 530
LayerCount: 2
Fore
SplineSet
704 1425 m 1
 914 997 l 1
 748 917 l 1
 614 1192 l 1
 341 895 l 1
 205 1019 l 1
 578 1425 l 1
 704 1425 l 1
EndSplineSet
Validated: 3073
EndChar

StartChar: underscore
Encoding: 95 95 62
Width: 922
VWidth: 1947
GlyphClass: 2
Flags: W
HStem: -184 184<-42 700>
LayerCount: 2
Fore
SplineSet
700 0 m 1
 700 -184 l 1
 -42 -184 l 1
 -42 0 l 1
 700 0 l 1
EndSplineSet
Validated: 3073
EndChar

StartChar: grave
Encoding: 96 96 63
Width: 922
VWidth: 1708
GlyphClass: 2
Flags: W
HStem: 931 536
VStem: 417 433
LayerCount: 2
Fore
SplineSet
841 1079 m 2
 847 1068 850 1053 850 1039 c 3
 850 1001 830 962 803 944 c 0
 790 935 772 931 752 931 c 3
 721 931 686 943 665 965 c 2
 446 1239 l 2
 426 1263 417 1294 417 1326 c 3
 417 1374 437 1423 476 1447 c 0
 498 1462 522 1467 546 1467 c 3
 603 1467 659 1432 680 1390 c 2
 841 1079 l 2
EndSplineSet
Validated: 3073
EndChar

StartChar: a
Encoding: 97 97 64
Width: 922
VWidth: 1947
GlyphClass: 2
Flags: W
HStem: -25 185<267.343 503.097> 0 21G<800 843.216> 864 186<420.12 653.355> 1003 20G<746.2 941>
VStem: 55 186<184.305 567.891>
LayerCount: 2
Fore
SplineSet
678 730 m 0xa8
 678 849 604 864 561 864 c 2
 543 864 l 2
 492 864 347 854 288 578 c 2
 252 407 l 2
 245 372 241 341 241 313 c 0
 241 167 326 160 354 160 c 2
 372 160 l 2
 422 160 563 169 624 427 c 1
 666 627 l 2
 676 677 678 709 678 730 c 0xa8
561 1050 m 2
 601 1050 681 1038 745 998 c 1
 751 1023 l 1
 941 1023 l 1
 791 318 l 2
 782 274 778 246 778 228 c 0
 778 201 782 185 878 185 c 1
 839 0 l 1x58
 761 0 681 12 643 79 c 1
 578 18 498 -25 402 -25 c 2
 339 -25 l 2
 290 -25 192 -11 119 90 c 0
 68 161 55 246 55 313 c 0
 55 355 60 400 70 447 c 2
 106 616 l 2
 161 871 308 1050 543 1050 c 2
 561 1050 l 2
EndSplineSet
Validated: 3073
EndChar

StartChar: b
Encoding: 98 98 65
Width: 922
VWidth: 2334
GlyphClass: 2
Flags: W
HStem: -26 186<279.995 501.713> 0 21G<-28 169.118> 864 186<413.81 646.064> 1380 20G<267.714 463>
VStem: 678 186<470.828 832.491>
LayerCount: 2
Fore
SplineSet
678 730 m 3xb8
 678 820 603 864 561 864 c 2
 543 864 l 2
 492 864 347 854 288 578 c 2
 252 408 l 2
 244 372 241 340 241 313 c 3
 241 186 344 160 354 160 c 2
 372 160 l 2
 423 160 569 170 628 446 c 2
 664 616 l 2
 673 659 678 698 678 730 c 3xb8
354 -26 m 2
 318 -26 237 -15 172 34 c 1
 165 -0 l 1
 101 0 36 0 -28 0 c 1x78
 272 1400 l 1
 463 1400 l 1
 381 1017 l 1
 429 1038 483 1050 543 1050 c 2
 561 1050 l 2
 651 1050 864 1038 864 730 c 3
 864 682 857 632 846 578 c 2
 810 408 l 2
 755 149 606 -26 372 -26 c 2
 354 -26 l 2
EndSplineSet
Validated: 3073
EndChar

StartChar: c
Encoding: 99 99 66
Width: 922
VWidth: 2334
GlyphClass: 2
Flags: W
HStem: -26 186<268.442 525.475> 863 186<413.81 679.749>
VStem: 55 186<181.446 567.781>
LayerCount: 2
Fore
SplineSet
690 789 m 1
 685 815 674 863 561 863 c 2
 543 863 l 2
 492 863 347 853 288 578 c 2
 252 408 l 2
 244 372 241 355 241 313 c 3
 241 234 264 160 354 160 c 2
 372 160 l 2
 471 160 537 192 577 265 c 1
 741 175 l 1
 669 44 543 -26 372 -26 c 2
 354 -26 l 2
 252 -26 169 10 115 85 c 0
 56 167 55 219 55 313 c 3
 55 362 60 399 70 446 c 2
 106 616 l 2
 161 871 312 1049 543 1049 c 2
 561 1049 l 2
 829 1049 870 840 876 807 c 1
 690 789 l 1
EndSplineSet
Validated: 3073
EndChar

StartChar: d
Encoding: 100 100 67
Width: 922
VWidth: 1947
GlyphClass: 2
Flags: W
HStem: -25 185<269.931 503.097> 864 186<420.12 655.8> 1380 20G<826.721 1021>
VStem: 55 186<188.304 567.781>
LayerCount: 2
Fore
SplineSet
678 730 m 3
 678 854 603 864 561 864 c 2
 543 864 l 2
 492 864 347 854 288 578 c 2
 252 408 l 2
 244 372 241 340 241 313 c 3
 241 162 344 160 354 160 c 2
 372 160 l 2
 422 160 563 169 624 427 c 1
 666 628 l 2
 674 666 678 701 678 730 c 3
561 1050 m 2
 603 1050 679 1043 745 998 c 1
 831 1400 l 1
 1021 1400 l 1
 718 -25 l 1
 534 -25 l 1
 534 7 l 1
 486 -14 432 -25 372 -25 c 2
 354 -25 l 2
 313 -25 195 -15 119 90 c 0
 68 161 55 246 55 313 c 3
 55 355 60 399 70 446 c 2
 106 616 l 2
 161 871 308 1050 543 1050 c 2
 561 1050 l 2
EndSplineSet
Validated: 3073
EndChar

StartChar: e
Encoding: 101 101 68
Width: 922
VWidth: 1947
GlyphClass: 2
Flags: W
HStem: -26 186<237.492 527.937> 468 186<304 672> 864 186<393.164 682.718>
VStem: 38 186<174.187 465.516> 692 186<655.156 851.007>
LayerCount: 2
Fore
SplineSet
692 773 m 3
 692 835 669 864 561 864 c 2
 543 864 l 2
 352 864 321 737 304 654 c 1
 672 654 l 1
 683 706 l 2
 686 719 692 750 692 773 c 3
561 1050 m 2
 810 1050 878 910 878 773 c 3
 878 744 873 704 865 668 c 2
 822 468 l 1
 265 468 l 1
 233 318 l 2
 230 305 224 269 224 249 c 3
 224 187 251 160 354 160 c 2
 372 160 l 2
 491 160 548 204 582 274 c 1
 750 194 l 1
 702 95 599 -26 372 -26 c 2
 354 -26 l 2
 67 -26 38 86 38 249 c 3
 38 285 43 319 51 356 c 2
 125 706 l 2
 195 1037 461 1050 543 1050 c 2
 561 1050 l 2
EndSplineSet
Validated: 3073
EndChar

StartChar: f
Encoding: 102 102 69
Width: 922
VWidth: 1947
GlyphClass: 2
Flags: W
HStem: -405 186<-0.581806 195.147> 702 186<237 402 632 829> 1243 186<721.447 914.766>
LayerCount: 2
Fore
SplineSet
829 888 m 1
 829 702 l 1
 592 702 l 1
 410 -147 l 2
 377 -303 251 -405 96 -405 c 0
 10 -405 -90 -357 -130 -255 c 1
 44 -187 l 1
 52 -208 78 -219 96 -219 c 0
 152 -219 211 -189 228 -109 c 2
 402 702 l 1
 237 702 l 1
 237 888 l 1
 442 888 l 1
 503 1172 l 2
 533 1309 656 1429 817 1429 c 0
 919 1429 1005 1375 1041 1286 c 1
 869 1216 l 1
 861 1237 838 1243 817 1243 c 0
 751 1243 698 1193 685 1132 c 2
 632 888 l 1
 829 888 l 1
EndSplineSet
Validated: 3073
EndChar

StartChar: g
Encoding: 103 103 70
Width: 922
VWidth: 2334
GlyphClass: 2
Flags: W
HStem: -398 186<88 411.417> -26 186<276.8 501.826> 864 186<420.12 654.056> 1003 20G<746 941>
VStem: 55 186<192.619 567.891>
LayerCount: 2
Fore
SplineSet
678 730 m 3xe8
 678 854 601 864 561 864 c 2
 543 864 l 2
 492 864 347 854 288 578 c 2
 252 407 l 2
 245 372 241 341 241 313 c 3
 241 177 341 160 354 160 c 2
 372 160 l 2
 420 160 553 168 617 399 c 1
 671 653 l 1
 677 688 678 713 678 730 c 3xe8
561 1050 m 2
 596 1050 679 1042 745 998 c 1
 750 1023 l 1
 941 1023 l 1xd8
 717 -19 l 2
 670 -239 497 -398 272 -398 c 2
 41 -398 l 1
 88 -212 l 1
 272 -212 l 2
 405 -212 501 -119 532 6 c 1
 484 -15 431 -26 372 -26 c 2
 354 -26 l 2
 313 -26 204 -21 123 92 c 0
 72 163 55 246 55 313 c 3
 55 355 60 400 70 447 c 2
 106 616 l 2
 161 871 308 1050 543 1050 c 2
 561 1050 l 2
EndSplineSet
Validated: 3073
EndChar

StartChar: h
Encoding: 104 104 71
Width: 922
VWidth: 1947
GlyphClass: 2
Flags: W
HStem: 0 21G<-25 169.256 533 727.252> 864 186<446.641 684.592> 1380 20G<268.743 463>
VStem: 691 186<641.942 850.606>
LayerCount: 2
Fore
SplineSet
691 773 m 27
 691 835 677 864 561 864 c 2
 543 864 l 2
 447 864 311 686 288 578 c 2
 165 0 l 1
 -25 0 l 1
 273 1400 l 1
 463 1400 l 1
 377 999 l 1
 428 1031 484 1050 543 1050 c 2
 561 1050 l 2
 793 1050 877 931 877 773 c 3
 877 732 873 704 865 668 c 2
 723 0 l 1
 533 0 l 1
 683 706 l 2
 686 719 691 747 691 773 c 27
EndSplineSet
Validated: 3073
EndChar

StartChar: k
Encoding: 107 107 74
Width: 922
VWidth: 1947
GlyphClass: 2
Flags: W
HStem: 0 21G<-25 169.25 491.905 759> 1405 20G<273.747 468>
LayerCount: 2
Fore
SplineSet
165 0 m 1
 -25 0 l 1
 278 1425 l 1
 468 1425 l 1
 305 659 l 1
 455 819 l 2
 516 885 600 959 692 1017 c 2
 791 1080 l 1
 891 924 l 1
 793 861 l 2
 718 813 650 757 589 691 c 2
 444 535 l 1
 462 394 521 257 608 168 c 1
 759 0 l 1
 510 0 l 1
 472 42 l 1
 388 128 333 232 299 336 c 1
 260 274 227 213 199 160 c 1
 165 0 l 1
EndSplineSet
Validated: 3073
EndChar

StartChar: l
Encoding: 108 108 75
Width: 922
VWidth: 1947
GlyphClass: 2
Flags: W
HStem: 0 185<109 294 484 627> 1215 186<368 512>
VStem: 70 672
LayerCount: 2
Fore
SplineSet
328 1215 m 1
 368 1401 l 1
 742 1401 l 1
 484 185 l 1
 666 185 l 1
 627 0 l 1
 70 0 l 1
 109 185 l 1
 294 185 l 1
 512 1215 l 1
 328 1215 l 1
EndSplineSet
Validated: 3073
EndChar

StartChar: m
Encoding: 109 109 76
Width: 922
VWidth: 1947
GlyphClass: 2
Flags: W
HStem: 0 21G<-56 120.242 263 439.245 582 758.237> 873 168<336.144 437.443 657.043 752.646>
VStem: 758 168<729.325 871.113>
LayerCount: 2
Fore
SplineSet
439 848 m 3
 439 859 433 873 417 873 c 2
 407 873 l 2
 357 873 281 779 263 693 c 2
 116 -0 l 1
 -56 0 l 1
 169 1050 l 1
 341 1050 l 1
 336 1028 l 1
 370 1040 398 1041 407 1041 c 2
 417 1041 l 2
 508 1041 550 998 568 975 c 1
 637 1034 714 1041 726 1041 c 2
 736 1041 l 2
 919 1041 926 884 926 848 c 3
 926 820 922 791 915 760 c 2
 754 -0 l 1
 582 0 l 1
 751 794 l 2
 756 817 758 831 758 848 c 3
 758 859 753 873 736 873 c 2
 726 873 l 2
 675 873 598 767 577 669 c 2
 435 -0 l 1
 263 0 l 1
 432 794 l 2
 437 817 439 831 439 848 c 3
EndSplineSet
Validated: 3073
EndChar

StartChar: n
Encoding: 110 110 77
Width: 922
VWidth: 1947
GlyphClass: 2
Flags: W
HStem: -0 21G<-25 169.256 533 727.252> 864 185<447.25 679.947> 1003 20G<188.738 383>
VStem: 691 186<641.942 849.467>
LayerCount: 2
Fore
SplineSet
691 773 m 27xd0
 691 835 675 864 561 864 c 2
 543 864 l 2xd0
 447 864 311 686 288 578 c 2
 165 0 l 1
 102 0 38 0 -25 -0 c 1
 193 1023 l 1
 383 1023 l 1xb0
 377 999 l 1
 422 1027 471 1049 522 1049 c 2
 591 1049 l 2
 858 1049 877 928 877 773 c 27
 877 732 873 704 865 668 c 2
 723 0 l 1
 660 0 596 0 533 0 c 1
 683 706 l 2
 686 719 691 747 691 773 c 27xd0
EndSplineSet
Validated: 3073
EndChar

StartChar: o
Encoding: 111 111 78
Width: 922
VWidth: 1947
GlyphClass: 2
Flags: W
HStem: -26 186<273.447 501.713> 864 186<420.12 652.124>
VStem: 55 186<191.236 567.781> 678 186<470.828 842.78>
LayerCount: 2
Fore
SplineSet
678 730 m 3
 678 849 606 864 561 864 c 2
 543 864 l 2
 492 864 347 854 288 578 c 2
 252 408 l 2
 244 372 241 340 241 313 c 3
 241 174 339 160 354 160 c 2
 372 160 l 2
 423 160 569 170 628 446 c 2
 664 616 l 2
 673 659 678 698 678 730 c 3
543 1050 m 2
 561 1050 l 2
 594 1050 864 1035 864 730 c 3
 864 682 857 632 846 578 c 2
 810 408 l 2
 755 149 606 -26 372 -26 c 2
 354 -26 l 2
 303 -26 195 -12 119 90 c 0
 67 160 55 246 55 313 c 3
 55 355 60 399 70 446 c 2
 106 616 l 2
 161 871 308 1050 543 1050 c 2
EndSplineSet
Validated: 3073
EndChar

StartChar: p
Encoding: 112 112 79
Width: 922
VWidth: 1947
GlyphClass: 2
Flags: W
HStem: -384 21G<-107 87.2584> -26 186<274.26 501.713> 864 186<413.81 658.025> 1003 20G<187.75 383>
VStem: 678 186<470.828 845.011>
LayerCount: 2
Fore
SplineSet
678 730 m 3xe8
 678 857 605 864 561 864 c 2
 543 864 l 2
 492 864 347 854 288 578 c 2
 252 407 l 2
 245 372 241 341 241 313 c 3
 241 174 340 160 354 160 c 2
 372 160 l 2
 423 160 569 170 628 446 c 2
 664 616 l 2
 676 672 678 707 678 730 c 3xe8
354 -26 m 2
 318 -26 246 -25 172 34 c 1
 83 -384 l 1
 -107 -384 l 1
 192 1023 l 1
 383 1023 l 1xd8
 381 1017 l 1
 429 1038 483 1050 543 1050 c 2
 561 1050 l 2
 594 1050 864 1040 864 730 c 3
 864 669 852 608 846 578 c 2
 810 408 l 2
 755 149 606 -26 372 -26 c 2
 354 -26 l 2
EndSplineSet
Validated: 3073
EndChar

StartChar: q
Encoding: 113 113 80
Width: 922
VWidth: 1947
GlyphClass: 2
Flags: W
HStem: -384 21G<451 645.264> -26 186<271.475 503.797> 864 186<419.749 657.591> 1003 20G<746.2 941>
VStem: 55 186<187.529 567.781>
LayerCount: 2
Fore
SplineSet
678 730 m 3xe8
 678 859 603 864 561 864 c 2
 543 864 l 2
 493 864 347 854 288 578 c 2
 252 408 l 2
 244 372 241 340 241 313 c 3
 241 169 334 160 354 160 c 2
 372 160 l 2
 424 160 563 169 624 427 c 1
 666 628 l 2
 674 667 678 701 678 730 c 3xe8
561 1050 m 2
 601 1050 677 1045 745 998 c 1
 751 1023 l 1
 941 1023 l 1xd8
 641 -384 l 1
 451 -384 l 1
 534 7 l 1
 486 -14 432 -26 372 -26 c 2
 354 -26 l 2
 313 -26 200 -23 119 90 c 0
 68 161 55 246 55 313 c 3
 55 355 60 399 70 446 c 2
 106 616 l 2
 161 871 307 1050 543 1050 c 2
 561 1050 l 2
EndSplineSet
Validated: 3073
EndChar

StartChar: r
Encoding: 114 114 81
Width: 922
VWidth: 1947
GlyphClass: 2
Flags: W
HStem: 0 21G<-25 169.27> 864 186<508.089 717.187> 1003 20G<188.738 383>
LayerCount: 2
Fore
SplineSet
165 0 m 1xc0
 -25 0 l 1
 193 1023 l 1
 383 1023 l 1xa0
 367 951 l 1
 443 1012 527 1050 613 1050 c 2
 631 1050 l 2
 795 1050 874 957 901 857 c 1
 721 807 l 1
 713 837 700 864 631 864 c 2
 613 864 l 2
 496 864 304 652 261 451 c 2
 225 281 l 1
 165 0 l 1xc0
EndSplineSet
Validated: 3073
EndChar

StartChar: s
Encoding: 115 115 82
Width: 922
VWidth: 1947
GlyphClass: 2
Flags: W
HStem: -26 186<236.732 522.167> 864 186<381.131 648.519>
VStem: 14 186<194.507 292> 134 185<682.79 808.17> 602 186<232.677 385.731>
LayerCount: 2
Fore
SplineSet
372 160 m 2xe8
 504 160 602 244 602 328 c 3
 602 355 586 372 531 402 c 1
 293 509 l 1
 188 563 134 655 134 733 c 3
 134 790 176 1050 543 1050 c 2
 561 1050 l 2
 711 1050 834 935 865 798 c 1
 683 758 l 1
 669 820 615 864 561 864 c 2
 543 864 l 2
 332 864 319 740 319 730 c 3xd8
 319 714 348 688 369 679 c 2
 609 570 l 1
 648 549 788 473 788 328 c 3
 788 141 596 -26 372 -26 c 2
 324 -26 l 2
 146 -26 14 128 14 292 c 1
 200 292 l 1
 200 220 260 160 324 160 c 2
 372 160 l 2xe8
EndSplineSet
Validated: 3073
EndChar

StartChar: t
Encoding: 116 116 83
Width: 922
VWidth: 1947
GlyphClass: 2
Flags: W
HStem: -26 186<392.258 546.249> 823 186<194 328 558 803> 1405 20G<452.721 648>
VStem: 202 186<162.151 293.114>
LayerCount: 2
Fore
SplineSet
769 226 m 1
 739 96 593 -26 457 -26 c 2
 441 -26 l 2
 307 -26 202 89 202 214 c 0
 202 230 204 247 209 268 c 2
 328 823 l 1
 154 823 l 1
 194 1009 l 1
 368 1009 l 1
 457 1425 l 1
 648 1425 l 1
 558 1009 l 1
 843 1009 l 1
 803 823 l 1
 519 823 l 1
 391 228 l 2
 390 224 388 217 388 214 c 0
 388 190 412 160 441 160 c 2
 457 160 l 2
 514 160 577 225 587 268 c 1
 769 226 l 1
EndSplineSet
Validated: 3073
EndChar

StartChar: u
Encoding: 117 117 84
Width: 922
VWidth: 1947
GlyphClass: 2
Flags: W
HStem: -26 186<230.353 446.201> -0 21G<533 727.262> 1003 20G<188.742 383 746.709 941>
VStem: 36 186<169.019 471.43>
LayerCount: 2
Fore
SplineSet
222 238 m 3xb0
 222 185 236 160 334 160 c 2
 352 160 l 2xb0
 442 160 606 346 633 473 c 2
 751 1023 l 1
 941 1023 l 1
 723 0 l 1
 533 -0 l 1x70
 542 42 l 1
 482 1 422 -26 352 -26 c 2
 334 -26 l 2
 82 -26 36 88 36 238 c 3
 36 276 43 321 51 356 c 2
 193 1023 l 1
 383 1023 l 1
 233 318 l 2
 225 282 222 258 222 238 c 3xb0
EndSplineSet
Validated: 3073
EndChar

StartChar: v
Encoding: 118 118 85
Width: 922
VWidth: 1947
GlyphClass: 2
Flags: W
HStem: -25 21G<282.938 432.782> 1003 20G<173 362 687 957>
VStem: 156 186<419.156 1022.72>
LayerCount: 2
Fore
SplineSet
357 992 m 2
 348 930 342 856 342 779 c 3
 342 693 349 605 365 528 c 2
 396 373 l 1
 474 550 l 2
 542 706 641 885 733 1023 c 2
 957 1023 l 1
 888 920 l 2
 803 794 707 619 644 476 c 2
 424 -25 l 1
 287 -25 l 1
 182 492 l 2
 164 584 156 683 156 779 c 3
 156 865 162 947 173 1018 c 2
 173 1023 l 1
 362 1023 l 1
 357 992 l 2
EndSplineSet
Validated: 3073
EndChar

StartChar: w
Encoding: 119 119 86
Width: 922
VWidth: 1947
GlyphClass: 2
Flags: W
HStem: 0 21G<20 165.051 548.506 705.383> 1003 20G<107.629 300 811.059 1018>
LayerCount: 2
Fore
SplineSet
439 547 m 1
 410 500 372 432 351 390 c 2
 155 0 l 1
 20 0 l 1
 34 434 l 2
 39 586 69 771 96 934 c 2
 111 1023 l 1
 300 1023 l 1
 279 902 l 2
 257 774 242 674 231 562 c 1
 262 618 301 677 340 730 c 2
 489 932 l 1
 616 932 l 1
 619 670 l 2
 620 616 625 542 636 480 c 1
 680 639 733 807 792 955 c 2
 819 1023 l 1
 1018 1023 l 1
 965 887 l 2
 904 730 852 566 809 405 c 2
 700 0 l 1
 553 0 l 1
 462 405 l 2
 453 444 442 504 439 547 c 1
EndSplineSet
Validated: 3073
EndChar

StartChar: x
Encoding: 120 120 87
Width: 922
VWidth: 1947
GlyphClass: 2
Flags: W
HStem: -0 21G<-67 202.144 523.287 727> 1003 20G<184 387.744 715.667 951>
LayerCount: 2
Fore
SplineSet
-67 -0 m 1
 134 221 l 2
 216 312 288 399 363 496 c 1
 184 1023 l 1
 381 1023 l 1
 497 679 l 1
 542 744 612 846 651 906 c 2
 729 1023 l 1
 951 1023 l 1
 808 804 l 2
 731 686 651 572 570 463 c 1
 727 0 l 1
 662 0 595 0 530 -0 c 1
 434 286 l 1
 381 221 333 164 272 97 c 2
 184 0 l 1
 100 0 17 0 -67 -0 c 1
EndSplineSet
Validated: 3073
EndChar

StartChar: y
Encoding: 121 121 88
Width: 922
VWidth: 1947
GlyphClass: 2
Flags: W
HStem: -387 186<98.0929 230.144> 1003 20G<193 382 762.162 974>
VStem: -92 186<-197.047 -128.722> 193 186<600.275 1023>
LayerCount: 2
Fore
SplineSet
94 -141 m 24
 94 -173 128 -201 150 -201 c 3
 225 -201 282 -86 289 -71 c 2
 375 124 l 1
 239 447 199 757 193 1023 c 1
 379 1023 l 1
 385 782 418 569 482 369 c 1
 771 1023 l 1
 974 1023 l 1
 457 -149 l 1
 431 -202 334 -387 150 -387 c 3
 10 -387 -92 -270 -92 -142 c 3
 -92 -126 -90 -109 -85 -88 c 1
 95 -132 l 1
 94 -135 94 -137 94 -141 c 24
EndSplineSet
Validated: 3073
EndChar

StartChar: z
Encoding: 122 122 89
Width: 922
VWidth: 1947
GlyphClass: 2
Flags: W
HStem: 0 185<295 725> 839 184<243 621>
LayerCount: 2
Fore
SplineSet
204 839 m 1
 243 1023 l 1
 943 1023 l 1
 915 892 l 1
 295 185 l 1
 760 185 l 1
 760 163 l 1
 725 0 l 1
 -25 0 l 1
 4 135 l 1
 621 839 l 1
 204 839 l 1
EndSplineSet
Validated: 3073
EndChar

StartChar: braceleft
Encoding: 123 123 90
Width: 922
VWidth: 1947
GlyphClass: 2
Flags: W
HStem: -173 186<392.767 593> 639 186<154 236.743> 1387 186<692.411 925>
VStem: 179 186<42.9124 234.924> 250 186<419.105 627.616>
LayerCount: 2
Fore
SplineSet
250 537 m 3xe8
 250 624 192 639 163 639 c 2
 115 639 l 1
 154 825 l 1
 163 825 l 2
 281 825 342 945 359 1023 c 2
 404 1230 l 2
 447 1428 634 1573 823 1573 c 2
 964 1573 l 1
 925 1387 l 1
 823 1387 l 2
 722 1387 610 1303 586 1190 c 2
 541 982 l 2
 520 885 466 786 385 719 c 1
 426 660 436 587 436 537 c 3xe8
 436 506 433 475 426 443 c 2
 369 171 l 2
 366 158 365 146 365 134 c 3
 365 60 414 13 491 13 c 2
 633 13 l 1
 593 -173 l 1
 491 -173 l 2
 304 -173 179 -35 179 134 c 3xf0
 179 158 182 183 187 209 c 2
 244 481 l 2
 248 501 250 520 250 537 c 3xe8
EndSplineSet
Validated: 3073
EndChar

StartChar: bar
Encoding: 124 124 91
Width: 922
VWidth: 1947
GlyphClass: 2
Flags: W
VStem: 235 523
LayerCount: 2
Fore
SplineSet
235 -78 m 1
 567 1476 l 1
 758 1476 l 1
 425 -78 l 1
 235 -78 l 1
EndSplineSet
Validated: 3073
EndChar

StartChar: braceright
Encoding: 125 125 92
Width: 922
VWidth: 1947
GlyphClass: 2
Flags: W
HStem: -173 186<-18 210.444> 573 186<672.234 752> 1387 186<313 511.141>
VStem: 466 186<774.361 978.376> 538 186<1032.33 1360.86>
LayerCount: 2
Fore
SplineSet
519 680 m 1xf0
 469 748 466 789 466 862 c 3xf0
 466 897 471 926 477 955 c 2
 534 1229 l 2
 537 1243 538 1257 538 1268 c 3
 538 1343 487 1387 413 1387 c 2
 274 1387 l 1
 313 1573 l 1
 413 1573 l 2
 600 1573 724 1437 724 1268 c 3xe8
 724 1242 721 1216 716 1191 c 2
 659 917 l 2
 655 896 652 881 652 862 c 3
 652 812 689 759 741 759 c 2
 791 759 l 1
 752 573 l 1
 741 573 l 2
 644 573 565 480 543 376 c 2
 499 170 l 2
 456 -28 269 -173 81 -173 c 2
 -58 -173 l 1
 -18 13 l 1
 81 13 l 2
 181 13 292 97 317 210 c 2
 362 416 l 2
 386 524 442 618 519 680 c 1xf0
EndSplineSet
Validated: 3073
EndChar

StartChar: asciitilde
Encoding: 126 126 93
Width: 922
VWidth: 1947
GlyphClass: 2
Flags: W
HStem: 708 186<620.357 741.17> 884 186<340.153 457.412> 1003 20G<781.5 834.044>
LayerCount: 2
Fore
SplineSet
114 842 m 1x40
 159 921 264 1070 413 1070 c 2
 428 1070 l 2x40
 441 1070 523 1056 576 990 c 2
 634 919 l 18
 642 909 658 894 667 894 c 2
 673 894 l 2
 716 894 765 961 798 1023 c 1
 962 932 l 1
 854 737 732 708 663 708 c 2
 648 708 l 2xa0
 582 708 517 768 504 784 c 2
 439 863 l 2
 431 873 412 884 407 884 c 2
 403 884 l 2
 387 884 342 870 280 758 c 1
 114 842 l 1x40
EndSplineSet
Validated: 3073
EndChar

StartChar: cent
Encoding: 162 162 96
Width: 922
VWidth: 1947
GlyphClass: 2
Flags: W
VStem: 55 186<207.243 567.781>
LayerCount: 2
Fore
SplineSet
479 854 m 1
 415 834 330 773 288 578 c 2
 252 408 l 2
 244 372 241 350 241 313 c 0
 241 270 248 233 265 205 c 1
 479 854 l 1
161 -111 m 1
 202 14 l 1
 170 33 142 58 119 90 c 0
 60 172 55 223 55 313 c 0
 55 365 60 399 70 446 c 2
 106 616 l 2
 161 871 308 1049 543 1049 c 1
 592 1197 l 1
 788 1197 l 1
 727 1012 l 1
 820 966 881 880 891 777 c 1
 705 759 l 1
 702 787 690 812 667 831 c 1
 448 168 l 1
 506 181 548 213 577 265 c 1
 741 175 l 1
 671 47 549 -23 384 -26 c 1
 356 -111 l 1
 161 -111 l 1
EndSplineSet
Validated: 3073
EndChar

StartChar: sterling
Encoding: 163 163 97
Width: 922
VWidth: 1947
GlyphClass: 2
Flags: W
HStem: -26 186<509 666.051> 606 186<129 222 460 739> 1240 186<510.23 732.203>
VStem: 189 186<793.125 1112.23> 274 186<414.43 606>
LayerCount: 2
Fore
SplineSet
641 1240 m 2xf0
 623 1240 l 2
 537 1240 407 1139 387 1044 c 2
 379 1005 l 2
 377 994 375 982 375 969 c 0xf0
 375 945 379 918 387 889 c 2
 416 792 l 1
 779 792 l 1
 739 606 l 1
 460 606 l 1
 460 580 l 2
 460 552 457 525 451 497 c 2
 441 450 l 2
 425 378 390 309 346 247 c 1
 385 242 421 226 449 205 c 2
 509 160 l 1
 552 160 l 2
 591 160 652 190 677 214 c 1
 805 80 l 1
 742 20 635 -26 552 -26 c 2
 507 -26 l 18
 471 -25 433 -16 401 8 c 2
 337 57 l 2
 333 60 326 63 312 63 c 2
 283 63 l 2
 219 63 181 56 72 -6 c 2
 35 -26 l 1
 -57 135 l 1
 -20 156 l 2
 98 223 232 370 259 490 c 2
 269 535 l 2
 272 550 274 564 274 580 c 2
 274 606 l 1xe8
 90 606 l 1
 129 792 l 1
 222 792 l 1
 209 839 l 2
 198 880 189 924 189 969 c 0
 189 994 192 1018 197 1043 c 2
 205 1082 l 2
 241 1253 438 1426 623 1426 c 2
 641 1426 l 2
 768 1426 877 1351 925 1235 c 1
 753 1165 l 1
 734 1210 694 1240 641 1240 c 2xf0
EndSplineSet
Validated: 3073
EndChar

StartChar: euro
Encoding: 8364 8364 98
Width: 922
VWidth: 1947
GlyphClass: 2
Flags: W
HStem: -26 186<364.353 565.822> 472 186<93 157 376 596> 782 186<189 212 459 792> 1240 186<579.887 796.435>
VStem: 150 186<183.082 472> 820 186<1116 1219.1>
LayerCount: 2
Fore
SplineSet
443 -26 m 3
 354 -26 150 54 150 349 c 3
 150 380 151 420 157 472 c 1
 43 472 l 1
 93 658 l 1
 186 658 l 1
 208 767 l 1
 212 782 l 1
 139 782 l 1
 189 968 l 1
 262 968 l 1
 336 1195 462 1426 712 1426 c 3
 842 1426 1006 1364 1006 1116 c 1
 820 1116 l 1
 820 1214 756 1240 712 1240 c 3
 567 1240 531 1164 459 968 c 1
 842 968 l 1
 792 782 l 1
 403 782 l 1
 390 727 l 1
 376 658 l 1
 646 658 l 1
 596 472 l 1
 344 472 l 1
 338 419 336 380 336 349 c 3
 336 196 382 160 443 160 c 3
 557 160 601 222 663 354 c 1
 831 274 l 1
 788 184 634 -26 443 -26 c 3
EndSplineSet
Validated: 3073
EndChar

StartChar: yen
Encoding: 165 165 99
Width: 922
VWidth: 1947
GlyphClass: 2
Flags: W
HStem: 62 186<33 267 497 731> 419 186<109 343 613 807> 1380 20G<259 448.393 821.197 1043>
LayerCount: 2
Fore
SplineSet
109 605 m 1
 353 605 l 1
 259 1400 l 1
 446 1400 l 1
 516 815 l 1
 832 1400 l 1
 1043 1400 l 1
 613 605 l 1
 847 605 l 1
 807 419 l 1
 533 419 l 1
 497 248 l 1
 771 248 l 1
 731 62 l 1
 457 62 l 1
 410 -160 l 1
 220 -160 l 1
 267 62 l 1
 -7 62 l 1
 33 248 l 1
 307 248 l 1
 343 419 l 1
 69 419 l 1
 109 605 l 1
EndSplineSet
Validated: 3073
EndChar

StartChar: section
Encoding: 167 167 101
Width: 922
VWidth: 1947
GlyphClass: 2
Flags: W
HStem: -169 186<261.533 470.086> 1379 186<510.713 707.953>
VStem: 119 186<578.226 813.627> 267 186<1114.68 1324> 521 186<69.3989 288.823> 681 186<575.168 820.958>
LayerCount: 2
Fore
SplineSet
502 890 m 2xe4
 484 890 l 2
 399 890 305 793 305 710 c 2
 305 684 l 2
 305 594 399 504 484 504 c 2
 502 504 l 2
 590 504 681 596 681 684 c 2
 681 710 l 2
 681 795 597 890 502 890 c 2xe4
867 710 m 2
 867 684 l 2xd4
 867 542 774 416 654 356 c 1
 687 306 707 248 707 187 c 2
 707 164 l 2
 707 -8 550 -169 374 -169 c 2
 358 -169 l 2
 213 -169 87 -60 44 61 c 1
 218 125 l 1
 240 65 302 17 358 17 c 2
 374 17 l 2
 439 17 521 87 521 164 c 2
 521 187 l 2
 521 242 480 313 412 326 c 0
 228 360 119 520 119 684 c 2
 119 710 l 2xe8
 119 843 208 970 325 1033 c 1
 288 1085 267 1146 267 1209 c 2
 267 1232 l 2
 267 1397 423 1565 599 1565 c 2
 615 1565 l 2
 753 1565 870 1462 918 1358 c 1
 750 1280 l 1
 726 1330 669 1379 615 1379 c 2
 599 1379 l 2
 533 1379 453 1301 453 1232 c 2
 453 1209 l 2xd0
 453 1151 508 1083 581 1065 c 0
 750 1024 867 872 867 710 c 2
EndSplineSet
Validated: 3073
EndChar

StartChar: copyright
Encoding: 169 169 103
Width: 922
VWidth: 1947
GlyphClass: 2
Flags: W
HStem: 165 92<279.518 640.37> 363 92<347.63 589.957> 760 92<348.259 590.445> 958 92<275.849 643.987>
VStem: 19 92<425.206 788.715> 217 92<495.212 720.785> 811 92<428.037 790.99>
LayerCount: 2
Fore
SplineSet
903 608 m 0
 903 376 749 165 461 165 c 0
 178 165 19 369 19 608 c 0
 19 852 182 1050 461 1050 c 0
 747 1050 903 849 903 608 c 0
461 958 m 0
 230 958 111 797 111 608 c 0
 111 422 227 257 461 257 c 0
 698 257 811 428 811 608 c 0
 811 794 699 958 461 958 c 0
461 363 m 0
 308 363 217 473 217 608 c 0
 217 744 310 852 461 852 c 0
 568 852 621 801 639 782 c 1
 573 718 l 1
 543 749 500 760 461 760 c 0
 357 760 309 689 309 608 c 0
 309 528 356 455 461 455 c 0
 503 455 544 467 574 499 c 1
 641 437 l 1
 593 385 529 363 461 363 c 0
EndSplineSet
Validated: 3073
EndChar

StartChar: ordfeminine
Encoding: 170 170 104
Width: 922
VWidth: 1947
GlyphClass: 2
Flags: W
HStem: 226 186<66 768> 500 186<376.743 580.949> 920 186<432.564 687> 1256 186<495.648 732.453>
VStem: 182 186<699.492 860.323> 739 186<1106.74 1252.3>
LayerCount: 2
Fore
SplineSet
604 530 m 0
 546 503 521 500 483 500 c 2
 467 500 l 2
 275 500 182 637 182 756 c 3
 182 765 185 794 187 803 c 2
 196 842 l 18
 197 845 285 1106 557 1106 c 2
 726 1106 l 1
 733 1139 l 2
 735 1149 739 1171 739 1192 c 3
 739 1251 701 1256 643 1256 c 2
 628 1256 l 2
 551 1256 503 1233 473 1185 c 1
 315 1283 l 1
 381 1389 488 1442 628 1442 c 2
 643 1442 l 2
 780 1442 925 1392 925 1192 c 3
 925 1162 922 1133 915 1101 c 2
 787 493 l 1
 596 493 l 1
 604 530 l 0
369 765 m 2
 369 763 368 760 368 756 c 3
 368 727 391 686 467 686 c 2
 483 686 l 2
 560 686 661 799 670 842 c 2
 687 920 l 1
 557 920 l 2
 460 920 390 856 378 802 c 2
 369 765 l 2
808 412 m 1
 768 226 l 1
 26 226 l 1
 66 412 l 1
 808 412 l 1
EndSplineSet
Validated: 3073
EndChar

StartChar: guillemotleft
Encoding: 171 171 105
Width: 922
VWidth: 1947
GlyphClass: 2
Flags: W
LayerCount: 2
Fore
SplineSet
608 117 m 1
 473 415 l 1
 503 555 l 1
 756 843 l 1
 896 721 l 1
 675 469 l 1
 667 435 l 1
 778 195 l 1
 608 117 l 1
188 117 m 1
 53 415 l 1
 83 555 l 1
 336 843 l 1
 476 721 l 1
 255 469 l 1
 247 435 l 1
 358 195 l 1
 188 117 l 1
EndSplineSet
Validated: 3073
EndChar

StartChar: logicalnot
Encoding: 172 172 106
Width: 922
VWidth: 1947
GlyphClass: 2
Flags: W
HStem: 507 186<85 641>
LayerCount: 2
Fore
SplineSet
585 246 m 1
 641 507 l 1
 46 507 l 1
 85 693 l 1
 871 693 l 1
 776 246 l 1
 585 246 l 1
EndSplineSet
Validated: 3073
EndChar

StartChar: softhyphen
Encoding: 173 173 107
Width: 922
VWidth: 1947
GlyphClass: 2
Flags: W
HStem: 507 186<222 700>
VStem: 222 478<507 693>
LayerCount: 2
Fore
SplineSet
700 693 m 1
 700 507 l 1
 222 507 l 1
 222 693 l 1
 700 693 l 1
EndSplineSet
Validated: 3073
EndChar

StartChar: registered
Encoding: 174 174 108
Width: 922
VWidth: 1947
GlyphClass: 2
Flags: W
HStem: 165 92<279.518 640.37> 568 92<380 447> 774 92<380 561.078> 958 92<275.849 643.987>
VStem: 19 92<425.206 788.715> 288 92<388 568 660 774> 564 92<664.084 771.881> 811 92<428.037 790.99>
LayerCount: 2
Fore
SplineSet
461 958 m 0
 230 958 111 797 111 608 c 0
 111 422 227 257 461 257 c 0
 698 257 811 428 811 608 c 0
 811 794 699 958 461 958 c 0
903 608 m 0
 903 376 749 165 461 165 c 0
 178 165 19 369 19 608 c 0
 19 852 182 1050 461 1050 c 0
 747 1050 903 849 903 608 c 0
564 739 m 1
 564 740 564 742 564 743 c 0
 564 758 561 774 476 774 c 2
 380 774 l 1
 380 660 l 1
 476 660 l 1
 551 660 564 677 564 704 c 2
 564 739 l 1
656 704 m 2
 656 655 632 598 553 577 c 1
 668 415 l 1
 593 362 l 1
 447 568 l 1
 380 568 l 1
 380 388 l 1
 288 388 l 1
 288 866 l 1
 476 866 l 2
 611 866 656 823 656 739 c 1
 656 704 l 2
EndSplineSet
Validated: 3073
EndChar

StartChar: degree
Encoding: 176 176 110
Width: 922
VWidth: 1947
GlyphClass: 2
Flags: W
HStem: 789 186<497.602 705.137> 1240 186<497.875 705.31>
VStem: 283 186<1004.93 1211.66> 733 186<1005.32 1211.46>
LayerCount: 2
Fore
SplineSet
919 1108 m 3
 919 939 801 789 601 789 c 3
 404 789 283 934 283 1108 c 3
 283 1285 408 1426 601 1426 c 3
 799 1426 919 1283 919 1108 c 3
601 1240 m 3
 512 1240 469 1184 469 1108 c 3
 469 1041 504 975 601 975 c 3
 699 975 733 1044 733 1108 c 3
 733 1172 702 1240 601 1240 c 3
EndSplineSet
Validated: 3073
EndChar

StartChar: plusminus
Encoding: 177 177 111
Width: 922
VWidth: 1947
GlyphClass: 2
Flags: W
HStem: 47 186<-32 790> 737 186<114 411 640 936>
LayerCount: 2
Fore
SplineSet
936 923 m 1
 936 737 l 1
 601 737 l 1
 529 400 l 1
 347 438 l 1
 411 737 l 1
 114 737 l 1
 114 923 l 1
 450 923 l 1
 522 1260 l 1
 704 1222 l 1
 640 923 l 1
 936 923 l 1
790 233 m 1
 790 47 l 1
 -32 47 l 1
 -32 233 l 1
 790 233 l 1
EndSplineSet
Validated: 3073
EndChar

StartChar: twosuperior
Encoding: 178 178 112
Width: 922
VWidth: 2334
GlyphClass: 2
Flags: W
HStem: 566 168<506 697> 1249 168<567.608 693.517>
VStem: 697 168<1128.6 1247.38>
LayerCount: 2
Fore
SplineSet
414 1278 m 1
 467 1357 525 1417 648 1417 c 2
 658 1417 l 2
 768 1417 865 1344 865 1217 c 3
 865 1114 819 1056 758 994 c 2
 523 752 l 2
 518 747 512 741 506 734 c 1
 731 734 l 1
 697 566 l 1
 238 566 l 1
 273 700 l 2
 282 736 342 808 403 870 c 2
 636 1110 l 2
 689 1164 697 1185 697 1217 c 3
 697 1231 683 1249 658 1249 c 2
 648 1249 l 2
 601 1249 585 1231 554 1186 c 1
 414 1278 l 1
EndSplineSet
Validated: 3073
EndChar

StartChar: threesuperior
Encoding: 179 179 113
Width: 922
VWidth: 2334
GlyphClass: 2
Flags: W
HStem: 548 168<412.033 599.128> 938 168<461 631.315> 1244 168<518.744 671.141>
VStem: 632 168<744.792 936.02> 667 169<1114.74 1241.92>
LayerCount: 2
Fore
SplineSet
605 1412 m 2xe8
 617 1412 l 2
 735 1412 842 1333 842 1215 c 3
 842 1199 841 1182 836 1162 c 2xe8
 831 1140 l 2
 827 1121 810 1066 762 1020 c 1
 786 986 800 942 800 889 c 3
 800 871 796 840 790 808 c 2
 788 797 l 2
 780 750 761 697 730 655 c 0
 713 632 677 589 609 565 c 0
 574 553 538 548 499 548 c 2
 487 548 l 2
 359 548 244 629 244 751 c 1
 412 751 l 1
 412 730 457 716 487 716 c 2
 499 716 l 2
 523 716 541 719 554 724 c 0
 575 731 587 743 594 753 c 0
 612 777 620 806 624 829 c 2
 626 840 l 2
 628 849 632 870 632 889 c 3xf0
 632 914 614 938 572 938 c 2
 461 938 l 1
 461 1106 l 1
 501 1106 581 1106 581 1106 c 2
 632 1106 658 1132 667 1174 c 2
 674 1198 l 2
 676 1207 674 1211 674 1215 c 3
 674 1234 646 1244 617 1244 c 2
 605 1244 l 2
 567 1244 534 1224 509 1186 c 1
 369 1278 l 1
 425 1364 510 1412 605 1412 c 2xe8
EndSplineSet
Validated: 3073
EndChar

StartChar: micro
Encoding: 181 181 115
Width: 922
VWidth: 2334
GlyphClass: 2
Flags: W
HStem: -26 186<258.211 474.278> 1003 20G<188.743 383 745.75 941>
VStem: 548 186<-42 26.873>
LayerCount: 2
Fore
SplineSet
236 297 m 27
 236 226 260 160 354 160 c 2
 372 160 l 2
 472 160 598 310 621 416 c 2
 750 1023 l 1
 941 1023 l 1
 744 97 l 2
 737 64 734 20 734 -16 c 2
 734 -42 l 1
 548 -42 l 1
 548 -16 l 2
 548 -2 548 13 548 27 c 1
 494 -6 435 -26 372 -26 c 2
 354 -26 l 2
 328 -26 238 -23 171 28 c 1
 156 -44 l 2
 131 -161 103 -258 62 -349 c 1
 -146 -349 l 1
 -83 -239 -54 -136 -26 -6 c 2
 193 1023 l 1
 383 1023 l 1
 240 353 l 2
 237 333 236 319 236 297 c 27
EndSplineSet
Validated: 3073
EndChar

StartChar: paragraph
Encoding: 182 182 116
Width: 922
VWidth: 2334
GlyphClass: 2
Flags: W
HStem: 0 21G<173 368.239 533 728.246> 1307 186<641 811>
LayerCount: 2
Fore
SplineSet
312 652 m 1
 221 687 156 775 156 926 c 0
 156 971 162 1020 174 1076 c 2
 182 1114 l 2
 242 1401 448 1493 548 1493 c 2
 1041 1493 l 1
 724 -0 l 1
 661 0 596 0 533 -0 c 1
 811 1307 l 1
 641 1307 l 1
 364 -0 l 1
 301 0 236 0 173 0 c 1
 312 652 l 1
EndSplineSet
Validated: 3073
EndChar

StartChar: periodcentered
Encoding: 183 183 117
Width: 922
VWidth: 1947
GlyphClass: 2
Flags: W
HStem: 552 390<390.595 635.057>
VStem: 318 389<624.912 869.919>
LayerCount: 2
Fore
SplineSet
707 747 m 3
 707 644 627 552 512 552 c 3
 401 552 318 642 318 747 c 3
 318 849 395 942 512 942 c 3
 626 942 707 852 707 747 c 3
EndSplineSet
Validated: 3073
EndChar

StartChar: onesuperior
Encoding: 185 185 119
Width: 922
VWidth: 1708
GlyphClass: 2
Flags: W
HStem: 1405 20G<674.371 803>
VStem: 462 341
LayerCount: 2
Fore
SplineSet
462 641 m 1
 573 1143 l 1
 507 1123 l 1
 457 1204 l 1
 696 1425 l 1
 803 1425 l 1
 633 641 l 1
 462 641 l 1
EndSplineSet
Validated: 3073
EndChar

StartChar: ordmasculine
Encoding: 186 186 120
Width: 922
VWidth: 1947
GlyphClass: 2
Flags: W
HStem: 228 182<65 768> 507 182<396.732 576.144> 1262 182<539.18 717.409>
VStem: 200 182<703.474 1043.16> 732 182<908.723 1247.99>
LayerCount: 2
Fore
SplineSet
476 689 m 3
 647 689 732 986 732 1139 c 3
 732 1235 698 1262 637 1262 c 3
 514 1262 382 1037 382 812 c 3
 382 723 418 689 476 689 c 3
914 1139 m 3
 914 975 837 507 476 507 c 3
 391 507 200 555 200 812 c 3
 200 887 225 1059 300 1201 c 0
 372 1337 490 1444 637 1444 c 11
 798 1444 914 1424 914 1139 c 3
807 410 m 1
 768 228 l 1
 26 228 l 1
 65 410 l 1
 807 410 l 1
EndSplineSet
Validated: 3073
EndChar

StartChar: guillemotright
Encoding: 187 187 121
Width: 922
VWidth: 1947
GlyphClass: 2
Flags: W
LayerCount: 2
Fore
SplineSet
222 468 m 1
 230 502 l 1
 119 743 l 1
 289 821 l 1
 424 522 l 1
 394 382 l 1
 141 95 l 1
 0 217 l 1
 222 468 l 1
642 468 m 1
 650 502 l 1
 539 743 l 1
 709 821 l 1
 844 522 l 1
 814 382 l 1
 561 95 l 1
 421 217 l 1
 642 468 l 1
EndSplineSet
Validated: 3073
EndChar

StartChar: OE
Encoding: 338 338 122
Width: 922
VWidth: 1947
GlyphClass: 2
Flags: W
HStem: 0 185<140.971 337.115 544 710> 639 186<680 793> 1215 185<360.081 557.677 762 968>
VStem: -49 186<188.474 322.796>
LayerCount: 2
Fore
SplineSet
316 8 m 1
 296 3 276 0 249 0 c 2
 193 0 l 2
 48 0 -49 114 -49 241 c 3
 -49 257 -48 275 -43 296 c 2
 137 1144 l 2
 164 1270 296 1400 451 1400 c 2
 507 1400 l 2
 543 1400 577 1393 607 1379 c 1
 612 1400 l 1
 1008 1400 l 1
 968 1215 l 1
 762 1215 l 1
 680 825 l 1
 832 825 l 1
 793 639 l 1
 640 639 l 1
 544 185 l 1
 750 185 l 1
 710 0 l 1
 314 0 l 1
 316 8 l 1
319 1104 m 2
 139 256 l 2
 138 252 137 244 137 241 c 3
 137 207 160 185 193 185 c 2
 249 185 l 2
 288 185 355 224 377 295 c 1
 557 1143 l 2
 558 1149 559 1156 559 1159 c 3
 559 1188 539 1215 507 1215 c 2
 451 1215 l 2
 390 1215 329 1151 319 1104 c 2
EndSplineSet
Validated: 3073
EndChar

StartChar: oe
Encoding: 339 339 123
Width: 922
VWidth: 1947
GlyphClass: 2
Flags: W
HStem: -26 186<135.272 281.717 493.709 634.147> 449 186<579 749> 864 186<282.659 421.73 640.601 783.455>
VStem: -55 186<163.492 298.225> 785 186<638.234 862.204>
LayerCount: 2
Fore
SplineSet
732 864 m 27
 666 864 614 799 604 754 c 2
 579 635 l 1
 749 635 l 1
 782 793 l 2
 784 801 785 808 785 814 c 3
 785 824 760 864 732 864 c 27
541 978 m 1
 601 1027 674 1050 732 1050 c 3
 874 1050 971 945 971 814 c 3
 971 796 969 777 964 753 c 2
 899 449 l 1
 539 449 l 1
 493 232 l 2
 492 226 492 222 492 217 c 3
 492 183 515 160 543 160 c 3
 590 160 657 203 671 270 c 1
 853 232 l 1
 822 84 683 -26 543 -26 c 3
 476 -26 417 2 374 46 c 1
 314 -3 241 -26 183 -26 c 3
 40 -26 -55 81 -55 211 c 3
 -55 227 -54 246 -49 270 c 2
 62 792 l 2
 92 930 224 1050 372 1050 c 3
 439 1050 498 1022 541 978 c 1
244 754 m 2
 133 232 l 2
 131 224 131 217 131 211 c 3
 131 201 155 160 183 160 c 27
 249 160 295 194 311 270 c 2
 422 792 l 2
 423 797 424 803 424 808 c 3
 424 837 404 864 372 864 c 3
 321 864 257 816 244 754 c 2
EndSplineSet
Validated: 3073
EndChar

StartChar: AE
Encoding: 198 198 132
Width: 922
VWidth: 1947
GlyphClass: 2
Flags: W
HStem: 0 185<544 711> 639 186<379 450 680 793> 1215 186<762 968>
LayerCount: 2
Fore
SplineSet
489 825 m 1
 569 1201 l 1
 530 1183 497 1148 481 1104 c 2
 379 825 l 1
 489 825 l 1
-121 0 m 1
 307 1168 l 2
 350 1286 462 1401 612 1401 c 1
 1008 1401 l 1
 968 1215 l 1
 762 1215 l 1
 680 825 l 1
 833 825 l 1
 793 639 l 1
 640 639 l 1
 544 185 l 1
 750 185 l 1
 711 0 l 1
 314 0 l 1
 450 639 l 1
 311 639 l 1
 77 0 l 1
 -121 0 l 1
EndSplineSet
Validated: 3073
EndChar

StartChar: Eth
Encoding: 208 208 142
Width: 922
VWidth: 1947
GlyphClass: 2
Flags: W
HStem: -1 186<245 482.736> 663 186<111 156 386 501> 1215 186<463 706.93>
VStem: 739 186<710.751 1190.94>
LayerCount: 2
Fore
SplineSet
627 1401 m 2
 665 1401 925 1391 925 1037 c 3
 925 928 907 806 878 681 c 2
 853 574 l 2
 789 298 661 -1 369 -1 c 2
 15 -1 l 1
 156 663 l 1
 72 663 l 1
 111 849 l 1
 196 849 l 1
 313 1401 l 1
 627 1401 l 2
627 1215 m 2
 463 1215 l 1
 386 849 l 1
 542 849 l 1
 501 663 l 1
 346 663 l 1
 245 185 l 1
 369 185 l 2
 489 185 595 285 673 620 c 2
 696 719 l 2
 722 838 739 951 739 1037 c 3
 739 1205 666 1215 627 1215 c 2
EndSplineSet
Validated: 3073
EndChar

StartChar: multiply
Encoding: 215 215 149
Width: 922
VWidth: 1708
GlyphClass: 2
Flags: W
LayerCount: 2
Fore
SplineSet
770 963 m 1
 888 819 l 1
 606 586 l 1
 779 367 l 1
 633 251 l 1
 462 468 l 1
 183 237 l 1
 65 381 l 1
 347 614 l 1
 174 833 l 1
 320 949 l 1
 491 732 l 1
 770 963 l 1
EndSplineSet
Validated: 3073
EndChar

StartChar: Thorn
Encoding: 222 222 156
Width: 922
VWidth: 1947
GlyphClass: 2
Flags: W
HStem: 0 21G<-25 169.261> 352 186<279 603.891> 1105 186<439 737.178>
VStem: 748 186<800.531 1095.55>
LayerCount: 2
Fore
SplineSet
453 538 m 2
 595 538 661 603 689 734 c 2
 740 972 l 2
 747 1004 748 1017 748 1038 c 0
 748 1076 740 1105 613 1105 c 2
 400 1105 l 1
 279 538 l 1
 453 538 l 2
165 -0 m 1
 102 -0 38 0 -25 0 c 1
 302 1538 l 1
 492 1538 l 1
 439 1291 l 1
 613 1291 l 2
 922 1291 934 1128 934 1038 c 0
 934 1010 930 971 922 934 c 2
 871 696 l 2
 800 365 538 352 453 352 c 2
 240 352 l 1
 165 -0 l 1
EndSplineSet
Validated: 3073
EndChar

StartChar: germandbls
Encoding: 223 223 157
Width: 922
VWidth: 1947
GlyphClass: 2
Flags: W
HStem: -26 186<356.283 529.574> 662 186<450 616.154> 1240 186<473.268 710.244>
VStem: 648 186<449.597 647.96> 722 186<966.994 1229.88>
LayerCount: 2
Fore
SplineSet
648 571 m 3xf0
 648 639 606 662 518 662 c 2
 450 662 l 1
 450 848 l 1
 514 848 l 2
 578 848 677 912 705 1044 c 2
 713 1082 l 2
 716 1097 722 1128 722 1158 c 3
 722 1205 689 1240 641 1240 c 2
 623 1240 l 2
 481 1240 414 1174 387 1045 c 2
 83 -387 l 1
 -107 -387 l 1
 205 1083 l 2
 221 1160 289 1426 623 1426 c 2
 641 1426 l 2
 796 1426 908 1335 908 1158 c 3xe8
 908 1122 903 1084 895 1044 c 2
 887 1006 l 2
 864 898 819 820 761 765 c 1
 806 720 834 656 834 571 c 3
 834 537 830 502 822 466 c 2
 791 318 l 2
 743 93 597 -26 417 -26 c 2
 409 -26 l 2
 326 -26 266 -5 216 53 c 1
 356 175 l 1
 362 168 370 160 409 160 c 2
 417 160 l 2
 532 160 587 253 609 356 c 2
 640 504 l 2
 643 517 648 544 648 571 c 3xf0
EndSplineSet
Validated: 3073
EndChar

StartChar: ae
Encoding: 230 230 164
Width: 922
VWidth: 1947
GlyphClass: 2
Flags: W
HStem: -26 186<131.81 279.634 493.42 634.147> 449 186<191.979 349 579 749> 864 186<282.852 421.77 646.185 783.039>
VStem: -55 186<163.205 293.358> 785 186<730.081 861.752>
LayerCount: 2
Fore
SplineSet
373 47 m 1
 296 -16 193 -26 183 -26 c 3
 41 -26 -55 80 -55 211 c 3
 -55 229 -54 247 -49 270 c 2
 -26 377 l 2
 4 517 136 635 288 635 c 2
 389 635 l 1
 422 792 l 2
 423 799 424 805 424 808 c 3
 424 840 400 864 372 864 c 3
 321 864 257 816 244 754 c 1
 62 792 l 1
 92 930 225 1050 372 1050 c 3
 439 1050 498 1022 541 978 c 1
 600 1025 674 1050 732 1050 c 3
 874 1050 971 945 971 814 c 3
 971 796 969 777 964 753 c 2
 899 449 l 1
 539 449 l 1
 493 232 l 2
 492 226 492 222 492 217 c 3
 492 183 515 160 543 160 c 3
 590 160 657 203 671 270 c 1
 853 232 l 1
 822 84 683 -26 543 -26 c 3
 475 -26 416 2 373 47 c 1
579 635 m 1
 749 635 l 1
 782 793 l 2
 784 801 785 808 785 814 c 3
 785 824 783 864 732 864 c 2
 726 864 l 2
 692 864 615 808 604 754 c 2
 579 635 l 1
183 160 m 27
 249 160 296 201 311 270 c 2
 349 449 l 1
 288 449 l 2
 234 449 170 403 156 339 c 2
 133 232 l 2
 131 224 131 217 131 211 c 3
 131 186 155 160 183 160 c 27
EndSplineSet
Validated: 3073
EndChar

StartChar: eth
Encoding: 240 240 174
Width: 922
VWidth: 1947
GlyphClass: 2
Flags: W
HStem: -26 186<274.322 481.75> 724 186<383.561 624.165> 1390 20G<849.571 913.045>
VStem: 55 186<191.394 531.884> 648 217<455.688 875.316>
LayerCount: 2
Fore
SplineSet
648 590 m 3
 648 684 599 724 532 724 c 2
 514 724 l 2
 461 724 317 713 258 438 c 2
 252 408 l 2
 244 372 241 340 241 313 c 3
 241 222 295 160 354 160 c 2
 372 160 l 2
 539 160 623 426 628 450 c 10
 637 491 l 2
 645 529 648 562 648 590 c 3
514 910 m 2
 532 910 l 2
 580 910 621 903 662 887 c 1
 646 959 619 1031 585 1099 c 1
 336 1011 l 1
 274 1187 l 1
 487 1262 l 1
 459 1301 429 1335 398 1366 c 1
 530 1498 l 1
 577 1451 625 1392 669 1326 c 1
 906 1410 l 1
 968 1234 l 1
 762 1162 l 1
 824 1032 865 885 865 741 c 3
 865 694 862 651 851 601 c 2
 810 408 l 2
 755 149 606 -26 372 -26 c 2
 354 -26 l 2
 319 -26 201 -24 119 90 c 0
 68 161 55 246 55 313 c 3
 55 355 60 399 70 446 c 2
 76 476 l 2
 131 732 279 910 514 910 c 2
EndSplineSet
Validated: 3073
EndChar

StartChar: divide
Encoding: 247 247 181
Width: 922
VWidth: 1947
GlyphClass: 2
Flags: W
HStem: 96 291<299.4 502.465> 507 186<66 882> 813 294<450.415 655.079>
VStem: 253 292<142.125 341.964> 406 292<857.651 1062.35>
LayerCount: 2
Fore
SplineSet
882 693 m 1xe0
 882 507 l 1
 66 507 l 1
 66 693 l 1
 882 693 l 1xe0
698 960 m 0xe8
 698 890 638 813 554 813 c 0
 462 813 406 897 406 960 c 0
 406 1023 462 1107 554 1107 c 0
 638 1107 698 1030 698 960 c 0xe8
545 243 m 0xf0
 545 170 486 96 401 96 c 0
 317 96 253 173 253 243 c 0
 253 308 314 387 401 387 c 0
 488 387 545 308 545 243 c 0xf0
EndSplineSet
Validated: 3073
EndChar

StartChar: oslash
Encoding: 248 248 182
Width: 922
VWidth: 1947
GlyphClass: 2
Flags: W
HStem: -26 186<311.592 501.713> 864 186<420.12 615.123>
LayerCount: 2
Fore
SplineSet
561 1050 m 2
 601 1050 665 1050 734 1005 c 1
 824 1120 l 1
 970 1004 l 1
 848 849 l 1
 859 811 864 772 864 730 c 3
 864 682 857 632 846 578 c 2
 810 408 l 2
 755 149 606 -26 372 -26 c 2
 354 -26 l 2
 323 -26 259 -23 193 19 c 1
 95 -106 l 1
 -51 10 l 1
 77 172 l 1
 60 221 55 270 55 313 c 3
 55 353 59 395 70 446 c 2
 106 616 l 2
 161 871 308 1050 543 1050 c 2
 561 1050 l 2
616 856 m 1
 603 861 585 864 561 864 c 2
 543 864 l 2
 492 864 347 854 288 578 c 2
 252 408 l 2
 251 402 249 395 248 389 c 1
 616 856 l 1
310 167 m 1
 321 162 342 160 354 160 c 2
 372 160 l 2
 423 160 569 170 628 446 c 2
 664 616 l 1
 310 167 l 1
EndSplineSet
Validated: 3073
EndChar

StartChar: thorn
Encoding: 254 254 188
Width: 922
VWidth: 1947
GlyphClass: 2
Flags: W
HStem: -384 21G<-106 88.2105> -26 186<274.602 501.713> 864 186<413.81 659.784> 1380 20G<268.751 463>
VStem: 678 186<470.828 846.157>
LayerCount: 2
Fore
SplineSet
678 730 m 3
 678 861 609 864 561 864 c 2
 543 864 l 2
 492 864 347 854 288 578 c 2
 252 408 l 2
 244 372 241 340 241 313 c 3
 241 177 344 160 354 160 c 2
 372 160 l 2
 423 160 569 170 628 446 c 2
 664 616 l 2
 673 659 678 698 678 730 c 3
354 -26 m 2
 315 -26 225 -25 172 34 c 1
 84 -384 l 1
 -106 -384 l 1
 273 1400 l 1
 463 1400 l 1
 381 1017 l 1
 429 1038 483 1050 543 1050 c 2
 561 1050 l 2
 597 1050 864 1038 864 730 c 3
 864 682 857 632 846 578 c 2
 810 408 l 2
 755 149 606 -26 372 -26 c 2
 354 -26 l 2
EndSplineSet
Validated: 3073
EndChar

StartChar: minus
Encoding: 8722 8722 190
Width: 922
VWidth: 1708
GlyphClass: 2
Flags: W
HStem: 508 184<50 872>
LayerCount: 2
Fore
SplineSet
872 692 m 1
 872 508 l 1
 50 508 l 1
 50 692 l 1
 872 692 l 1
EndSplineSet
Validated: 3073
EndChar

StartChar: gravemodifier
Encoding: 715 715 193
Width: 922
VWidth: 2334
GlyphClass: 2
Flags: MW
HStem: 1325 395
VStem: 523 368
DStem2: 691 1720 523 1597 0.59239 -0.805651<0 337.189>
LayerCount: 2
Fore
SplineSet
891 1448 m 5
 723 1325 l 5
 523 1597 l 5
 691 1720 l 5
 891 1448 l 5
EndSplineSet
Validated: 3073
EndChar

StartChar: acute
Encoding: 180 180 194
Width: 922
VWidth: 1947
GlyphClass: 2
Flags: MW
HStem: 1164 527
VStem: 401 512
DStem2: 401 1328 578 1164 0.678196 0.734881<0 493.478>
LayerCount: 2
Fore
SplineSet
578 1164 m 5
 401 1328 l 5
 736 1691 l 5
 913 1527 l 5
 578 1164 l 5
EndSplineSet
Validated: 3073
EndChar

StartChar: circumflex
Encoding: 710 710 195
Width: 922
VWidth: 1947
GlyphClass: 2
Flags: W
HStem: 1392 246 1400 21G<783.294 824.721>
VStem: 417 493
LayerCount: 2
Fore
SplineSet
769 1638 m 1xa0
 910 1522 l 1
 808 1400 l 1x60
 682 1502 l 1
 501 1392 l 1
 417 1528 l 1
 598 1638 l 1
 769 1638 l 1xa0
EndSplineSet
Validated: 3073
EndChar

StartChar: tilde
Encoding: 732 732 196
Width: 922
VWidth: 1947
GlyphClass: 2
Flags: W
HStem: 1442 160<715.713 876.655> 1532 160<491.367 647.18>
LayerCount: 2
Fore
SplineSet
358 1585 m 2x40
 402 1629 471 1692 575 1692 c 2
 591 1692 l 2x40
 640 1692 694 1671 733 1630 c 2
 749 1612 l 2
 750 1611 759 1602 773 1602 c 2
 790 1602 l 2
 832 1602 862 1630 895 1664 c 2
 917 1687 l 1
 1033 1577 l 1
 1011 1554 l 2
 963 1504 894 1442 790 1442 c 2
 773 1442 l 2x80
 723 1442 667 1463 629 1506 c 2
 615 1522 l 2
 611 1527 602 1532 591 1532 c 2
 575 1532 l 2
 541 1532 514 1513 472 1471 c 2
 446 1445 l 1
 332 1559 l 1
 358 1585 l 2x40
EndSplineSet
Validated: 3073
EndChar

StartChar: macronmodifier
Encoding: 713 713 197
Width: 922
VWidth: 1947
GlyphClass: 2
Flags: W
HStem: 1458 160<454 907>
VStem: 454 453<1458 1618>
LayerCount: 2
Fore
SplineSet
454 1458 m 1
 454 1618 l 1
 907 1618 l 1
 907 1458 l 1
 454 1458 l 1
EndSplineSet
Validated: 3073
EndChar

StartChar: breve
Encoding: 728 728 198
Width: 922
VWidth: 1947
GlyphClass: 2
Flags: W
HStem: 1400 160<547.319 802.459>
VStem: 387 587
LayerCount: 2
Fore
SplineSet
661 1400 m 3
 544 1400 445 1457 387 1550 c 1
 523 1634 l 1
 566 1565 633 1560 661 1560 c 3
 686 1560 772 1564 864 1651 c 1
 974 1535 l 1
 834 1403 696 1400 661 1400 c 3
EndSplineSet
Validated: 3073
EndChar

StartChar: dotaccent
Encoding: 729 729 199
Width: 922
VWidth: 1947
GlyphClass: 2
Flags: W
HStem: 1351 312<566.52 782.047>
VStem: 519 312<1399.43 1614.57>
LayerCount: 2
Fore
SplineSet
519 1507 m 27
 519 1593 587 1663 674 1663 c 27
 760 1663 831 1593 831 1507 c 27
 831 1421 760 1351 674 1351 c 27
 587 1351 519 1421 519 1507 c 27
EndSplineSet
Validated: 3073
EndChar

StartChar: dieresis
Encoding: 168 168 200
Width: 922
VWidth: 1947
GlyphClass: 2
Flags: W
HStem: 1371 304<255.56 457.963 746.81 946.125>
VStem: 209 295<1417.75 1630.12> 700 292<1417.36 1632.17>
LayerCount: 2
Fore
SplineSet
504 1526 m 0
 504 1444 437 1371 357 1371 c 0
 277 1371 209 1440 209 1526 c 0
 209 1617 281 1675 355 1675 c 0
 440 1675 504 1605 504 1526 c 0
992 1526 m 0
 992 1436 921 1371 847 1371 c 0
 769 1371 700 1441 700 1526 c 0
 700 1611 769 1675 847 1675 c 0
 918 1675 992 1617 992 1526 c 0
EndSplineSet
Validated: 3073
EndChar

StartChar: ring
Encoding: 730 730 202
Width: 922
VWidth: 1947
GlyphClass: 2
Flags: W
HStem: 1223 110<572.515 727.788> 1517 110<572.515 727.788>
VStem: 448 110<1346.79 1504.33> 742 110<1346.79 1502.05>
LayerCount: 2
Fore
SplineSet
448 1426 m 27
 448 1538 536 1627 648 1627 c 27
 760 1627 852 1538 852 1426 c 27
 852 1314 760 1223 648 1223 c 27
 536 1223 448 1314 448 1426 c 27
558 1426 m 27
 558 1375 598 1333 649 1333 c 27
 700 1333 742 1375 742 1426 c 27
 742 1477 700 1517 649 1517 c 27
 598 1517 558 1477 558 1426 c 27
EndSplineSet
Validated: 3073
EndChar

StartChar: cedilla
Encoding: 184 184 203
Width: 922
VWidth: 1947
GlyphClass: 2
Flags: W
HStem: -495 168<157.883 431.507> -196 284<302 432.478>
VStem: 302 168<-34.592 88> 437 168<-314.32 -207.278>
LayerCount: 2
Fore
SplineSet
302 -327 m 3xe0
 372 -327 437 -312 437 -261 c 3xd0
 437 -223 391 -196 349 -196 c 2
 238 -196 l 1
 302 12 l 1
 302 88 l 1
 470 88 l 1
 470 -12 l 1xe0
 456 -61 l 1
 555 -88 605 -164 605 -261 c 3xd0
 605 -315 600 -370 532 -429 c 0
 466 -486 374 -495 302 -495 c 3
 201 -495 114 -453 56 -391 c 1
 178 -277 l 1
 204 -305 247 -327 302 -327 c 3xe0
EndSplineSet
Validated: 3073
EndChar

StartChar: ogonek
Encoding: 731 731 204
Width: 922
VWidth: 1947
GlyphClass: 2
Flags: W
HStem: -425 160<287.156 414.862>
VStem: 127 160<-263.34 -176.033>
LayerCount: 2
Fore
SplineSet
449 -378 m 2
 409 -408 360 -425 310 -425 c 3
 212 -425 127 -344 127 -243 c 27
 127 -166 145 -122 214 -65 c 2
 345 44 l 1
 355 88 l 1
 511 56 l 1
 491 -44 l 1
 316 -187 l 2
 296 -204 287 -215 287 -243 c 3
 287 -255 298 -265 310 -265 c 3
 327 -265 343 -258 353 -250 c 2
 385 -226 l 1
 481 -354 l 1
 449 -378 l 2
EndSplineSet
Validated: 3073
EndChar

StartChar: caron
Encoding: 711 711 205
Width: 922
VWidth: 1947
GlyphClass: 2
Flags: W
HStem: 1422 246
VStem: 438 493
LayerCount: 2
Fore
SplineSet
666 1558 m 1
 847 1668 l 1
 931 1532 l 1
 750 1422 l 1
 579 1422 l 1
 438 1538 l 1
 540 1662 l 1
 666 1558 l 1
EndSplineSet
Validated: 3073
EndChar

StartChar: dotlessi
Encoding: 305 305 206
Width: 922
VWidth: 1947
GlyphClass: 2
Flags: W
HStem: 0 185<109 294 484 627> 839 184<287 432>
VStem: 69 593
LayerCount: 2
Fore
SplineSet
627 0 m 1
 69 0 l 1
 109 185 l 1
 294 185 l 1
 432 839 l 1
 248 839 l 1
 287 1023 l 1
 662 1023 l 1
 484 185 l 1
 667 185 l 1
 627 0 l 1
EndSplineSet
Validated: 3073
EndChar

StartChar: currency
Encoding: 164 164 210
Width: 922
VWidth: 1947
GlyphClass: 2
Flags: W
HStem: 436 186<356.414 567.916> 946 186<357.283 564.986>
VStem: 117 186<673.065 890.966> 619 186<674.482 890.966>
LayerCount: 2
Fore
SplineSet
469 946 m 2
 453 946 l 2
 382 946 303 864 303 796 c 2
 303 772 l 2
 303 694 386 622 453 622 c 2
 469 622 l 2
 540 622 619 697 619 772 c 2
 619 796 l 2
 619 864 540 946 469 946 c 2
805 796 m 2
 805 772 l 2
 805 702 780 637 741 583 c 1
 844 457 l 1
 700 339 l 1
 598 465 l 1
 557 446 513 436 469 436 c 2
 453 436 l 2
 386 436 318 460 262 501 c 1
 136 399 l 1
 18 543 l 1
 145 645 l 1
 127 684 117 727 117 772 c 2
 117 796 l 2
 117 861 140 926 180 981 c 1
 78 1107 l 1
 222 1225 l 1
 322 1102 l 1
 363 1121 407 1132 453 1132 c 2
 469 1132 l 2
 539 1132 607 1106 662 1064 c 1
 786 1165 l 1
 904 1021 l 1
 778 918 l 1
 795 879 805 838 805 796 c 2
EndSplineSet
Validated: 3073
EndChar

StartChar: brokenbar
Encoding: 166 166 211
Width: 922
VWidth: 1947
GlyphClass: 2
Flags: W
VStem: 235 523
LayerCount: 2
Fore
SplineSet
423 801 m 1
 567 1476 l 1
 758 1476 l 1
 613 801 l 1
 423 801 l 1
235 -75 m 1
 380 600 l 1
 570 600 l 1
 425 -75 l 1
 235 -75 l 1
EndSplineSet
Validated: 3073
EndChar

StartChar: onequarter
Encoding: 188 188 212
Width: 922
VWidth: 1708
GlyphClass: 2
Flags: W
HStem: -35 120<514 597 745 766>
LayerCount: 2
Fore
SplineSet
212 776 m 1
 327 1320 l 1
 198 1288 l 1
 175 1334 l 1
 414 1555 l 1
 496 1555 l 1
 334 776 l 1
 212 776 l 1
664 279 m 1
 514 85 l 1
 622 85 l 1
 664 279 l 1
851 1473 m 1
 1011 1377 l 1
 145 -73 l 1
 -15 23 l 1
 851 1473 l 1
720 -35 m 1
 683 -209 l 1
 560 -209 l 1
 597 -35 l 1
 357 -35 l 1
 390 121 l 1
 739 574 l 1
 849 574 l 1
 745 85 l 1
 791 85 l 1
 766 -35 l 1
 720 -35 l 1
EndSplineSet
Validated: 3073
EndChar

StartChar: onehalf
Encoding: 189 189 213
Width: 922
VWidth: 1708
GlyphClass: 2
Flags: W
HStem: -270 120<532 774> 413 120<632.05 791.995>
VStem: 795 120<315 411.722>
LayerCount: 2
Fore
SplineSet
851 1473 m 1
 1011 1377 l 1
 145 -73 l 1
 -15 23 l 1
 851 1473 l 1
723 533 m 2
 733 533 l 2
 874 533 915 447 915 373 c 3
 915 353 912 333 908 312 c 2
 903 291 l 2
 890 238 854 191 814 150 c 2
 581 -91 l 2
 564 -109 547 -129 532 -150 c 1
 799 -150 l 1
 774 -270 l 1
 348 -270 l 1
 360 -212 l 1
 374 -184 l 2
 397 -137 436 -68 495 -7 c 2
 728 234 l 2
 761 268 781 297 785 315 c 2
 790 338 l 2
 792 348 795 364 795 373 c 3
 795 396 791 413 733 413 c 2
 723 413 l 2
 672 413 645 395 608 339 c 1
 508 405 l 1
 558 482 616 533 723 533 c 2
212 776 m 1
 327 1317 l 1
 198 1288 l 1
 175 1334 l 1
 414 1555 l 1
 496 1555 l 1
 334 776 l 1
 212 776 l 1
EndSplineSet
Validated: 3073
EndChar

StartChar: threequarters
Encoding: 190 190 214
Width: 922
VWidth: 1708
GlyphClass: 2
Flags: W
HStem: -35 120<514 597 745 766> 772 120<140.63 327.745> 1162 120<204 367.295> 1400 21G<207.125 253> 1468 120<260.474 410.891>
VStem: 18 120<900.172 947> 370 120<932.464 1159.79> 415 120<1310.76 1465.15>
LayerCount: 2
Fore
SplineSet
720 -35 m 1xfc
 683 -209 l 1
 560 -209 l 1
 597 -35 l 1
 357 -35 l 1
 390 121 l 1
 739 574 l 1
 849 574 l 1
 745 85 l 1
 791 85 l 1
 766 -35 l 1
 720 -35 l 1xfc
861 1473 m 1
 1021 1377 l 1
 155 -73 l 1
 -5 23 l 1
 861 1473 l 1
664 279 m 1
 514 85 l 1
 622 85 l 1
 664 279 l 1
348 1588 m 2
 359 1588 l 2
 455 1588 535 1512 535 1419 c 3xfd
 535 1400 534 1386 530 1367 c 2
 525 1345 l 2
 516 1306 490 1258 450 1222 c 1
 477 1190 490 1147 490 1094 c 3
 490 1068 485 1035 481 1012 c 2
 479 1001 l 2
 453 858 365 772 231 772 c 2
 220 772 l 2
 172 772 144 780 104 803 c 0
 56 831 18 880 18 947 c 1
 138 947 l 1
 138 927 150 915 165 906 c 0
 184 895 201 892 220 892 c 2
 231 892 l 2
 296 892 342 920 361 1023 c 2
 363 1036 l 2
 367 1060 370 1078 370 1094 c 3xfe
 370 1161 333 1162 304 1162 c 2
 204 1162 l 1
 204 1282 l 1
 305 1282 l 2
 357 1282 399 1334 407 1369 c 2
 412 1393 l 2
 414 1403 415 1411 415 1419 c 3xfd
 415 1455 387 1468 359 1468 c 2
 348 1468 l 2
 314 1468 267 1444 239 1400 c 1
 137 1464 l 1
 181 1536 266 1588 348 1588 c 2
EndSplineSet
Validated: 3073
EndChar

StartChar: Lslash
Encoding: 321 321 216
Width: 922
VWidth: 1947
GlyphClass: 2
Flags: W
HStem: -0 186<205 717> 1380 20G<268.74 463>
LayerCount: 2
Fore
SplineSet
-25 -0 m 1
 65 423 l 1
 63 423 l 1
 11 601 l 1
 109 630 l 1
 273 1400 l 1
 463 1400 l 1
 312 689 l 1
 652 787 l 1
 704 609 l 1
 268 482 l 1
 205 186 l 1
 757 186 l 1
 717 0 l 1
 -25 -0 l 1
EndSplineSet
Validated: 3073
EndChar

StartChar: lslash
Encoding: 322 322 257
Width: 922
VWidth: 1947
GlyphClass: 2
Flags: W
HStem: 0 185<109 294 484 627> 1215 186<368 512>
LayerCount: 2
Fore
SplineSet
328 1215 m 1
 368 1401 l 1
 742 1401 l 1
 601 738 l 1
 772 787 l 1
 824 609 l 1
 557 531 l 1
 484 185 l 1
 666 185 l 1
 627 0 l 1
 70 0 l 1
 109 185 l 1
 294 185 l 1
 355 473 l 1
 183 423 l 1
 131 601 l 1
 398 679 l 1
 512 1215 l 1
 328 1215 l 1
EndSplineSet
Validated: 3073
EndChar

StartChar: dotlessj
Encoding: 567 567 260
Width: 922
VWidth: 1947
GlyphClass: 2
Flags: W
HStem: -387 186<249.396 404.122> 839 184<373 631>
LayerCount: 2
Fore
SplineSet
302 -201 m 3
 362 -201 416 -176 434 -91 c 2
 631 839 l 1
 334 839 l 1
 373 1023 l 1
 861 1023 l 1
 616 -129 l 2
 580 -301 451 -387 302 -387 c 3
 165 -387 60 -285 60 -147 c 1
 246 -147 l 1
 246 -180 266 -201 302 -201 c 3
EndSplineSet
Validated: 3073
EndChar

StartChar: eng
Encoding: 331 331 261
Width: 922
VWidth: 2334
GlyphClass: 2
Flags: W
HStem: -387 186<250.483 447.42> -0 21G<-25 169.256> 864 186<446.641 673.845> 1003 20G<187.758 382>
VStem: 691 186<641.936 845.903>
LayerCount: 2
Fore
SplineSet
691 773 m 27xe8
 691 835 654 864 561 864 c 2
 543 864 l 2xe8
 447 864 311 686 288 578 c 2
 165 -0 l 1
 -25 -0 l 1
 192 1023 l 1
 382 1023 l 1xd8
 377 999 l 1
 428 1031 484 1050 543 1050 c 2
 561 1050 l 2
 810 1050 877 937 877 773 c 27
 877 732 873 704 865 668 c 2
 713 -47 l 2
 678 -210 549 -387 352 -387 c 2
 301 -387 l 2
 220 -387 135 -353 90 -275 c 1
 250 -181 l 1
 260 -198 290 -201 301 -201 c 2
 352 -201 l 2
 424 -201 505 -129 531 -9 c 2
 683 706 l 2
 686 719 691 747 691 773 c 27xe8
EndSplineSet
Validated: 3073
EndChar

StartChar: ellipsis
Encoding: 8230 8230 266
Width: 922
VWidth: 1947
GlyphClass: 2
Flags: W
HStem: 12 201<75.0994 231.18 383.04 538.841 690.378 846.841>
VStem: 58 190<28.3537 196.445> 366 190<28.8501 196.445> 673 191<28.8501 196.445>
LayerCount: 2
Fore
SplineSet
864 113 m 0
 864 61 823 12 768 12 c 0
 715 12 673 59 673 113 c 0
 673 165 714 213 768 213 c 0
 824 213 864 162 864 113 c 0
248 113 m 0
 248 61 208 12 153 12 c 0
 99 12 58 59 58 113 c 0
 58 165 98 213 153 213 c 0
 208 213 248 162 248 113 c 0
556 113 m 0
 556 61 515 12 460 12 c 0
 407 12 366 59 366 113 c 0
 366 165 406 213 460 213 c 0
 516 213 556 162 556 113 c 0
EndSplineSet
Validated: 3073
EndChar

StartChar: uparrow
Encoding: 8593 8593 267
Width: 922
VWidth: 1708
GlyphClass: 2
Flags: W
HStem: 1024 20G<381.598 540.402>
VStem: 381 160<209 794>
LayerCount: 2
Fore
SplineSet
541 209 m 1
 381 209 l 1
 381 794 l 1
 158 564 l 1
 44 676 l 1
 401 1044 l 1
 521 1044 l 1
 878 676 l 1
 764 564 l 1
 541 794 l 1
 541 209 l 1
EndSplineSet
Validated: 3073
EndChar

StartChar: downarrow
Encoding: 8595 8595 268
Width: 922
VWidth: 1708
GlyphClass: 2
Flags: W
VStem: 381 160<406 991>
LayerCount: 2
Fore
SplineSet
381 991 m 1
 541 991 l 1
 541 406 l 1
 764 636 l 1
 878 524 l 1
 521 156 l 1
 401 156 l 1
 44 524 l 1
 158 636 l 1
 381 406 l 1
 381 991 l 1
EndSplineSet
Validated: 3073
EndChar

StartChar: spaceopenbox
Encoding: 9251 9251 269
Width: 922
VWidth: 1947
GlyphClass: 2
Flags: W
HStem: -185 341<8 165 566 683> -185 185<165 533>
LayerCount: 2
Fore
SplineSet
566 156 m 1x80
 756 156 l 1
 683 -185 l 1x80
 -65 -185 l 1x40
 8 156 l 1
 198 156 l 1x80
 165 0 l 1
 533 0 l 1x40
 566 156 l 1x80
EndSplineSet
Validated: 3073
EndChar

StartChar: uni2074
Encoding: 8308 8308 271
Width: 922
VWidth: 1947
GlyphClass: 2
Flags: W
HStem: 723 168<430 559 766 834> 1405 20G<675.55 878>
LayerCount: 2
Fore
SplineSet
643 1122 m 1
 430 891 l 1
 594 891 l 1
 643 1122 l 1
194 883 m 1
 694 1425 l 1
 878 1425 l 1
 766 891 l 1
 870 891 l 1
 834 723 l 1
 731 723 l 1
 694 544 l 1
 522 544 l 1
 559 723 l 1
 160 723 l 1
 194 883 l 1
EndSplineSet
Validated: 3073
EndChar

StartChar: Eng
Encoding: 330 330 273
Width: 922
VWidth: 2334
GlyphClass: 2
Flags: W
HStem: -387 186<250.483 447.42> 0 21G<-25 169.256> 1240 186<526.641 761.883> 1380 20G<268.743 463>
VStem: 771 186<1016.83 1226.52>
LayerCount: 2
Fore
SplineSet
463 1400 m 1xd8
 457 1375 l 1
 508 1407 564 1426 623 1426 c 2
 641 1426 l 2
 888 1426 957 1350 957 1149 c 3
 957 1108 953 1080 945 1044 c 2
 713 -47 l 2
 678 -210 549 -387 352 -387 c 2
 301 -387 l 2
 220 -387 135 -353 90 -275 c 1
 250 -181 l 1
 260 -198 290 -201 301 -201 c 2
 352 -201 l 2
 424 -201 505 -129 531 -9 c 2
 763 1082 l 2
 766 1095 771 1123 771 1149 c 3
 771 1215 735 1240 641 1240 c 2
 623 1240 l 2xe8
 527 1240 391 1062 368 954 c 2
 165 0 l 1
 -25 0 l 1
 273 1400 l 1
 463 1400 l 1xd8
EndSplineSet
Validated: 3073
EndChar

StartChar: dcroat
Encoding: 273 273 274
Width: 922
VWidth: 1947
GlyphClass: 2
Flags: W
HStem: -25 184<271.952 506.025> 865 184<413.287 655.388> 1178 184<569 784> 1405 20G<832.556 1025>
VStem: 56 184<188.271 567.781>
LayerCount: 2
Fore
SplineSet
679 730 m 3
 679 849 609 865 561 865 c 2
 543 865 l 2
 492 865 346 855 287 578 c 2
 251 408 l 2
 243 372 240 341 240 313 c 3
 240 171 333 159 354 159 c 2
 372 159 l 2
 422 159 570 167 625 427 c 2
 667 628 l 2
 675 667 679 701 679 730 c 3
561 1049 m 2
 606 1049 674 1047 746 996 c 1
 784 1178 l 1
 530 1178 l 1
 569 1362 l 1
 823 1362 l 1
 837 1425 l 1
 1025 1425 l 1
 1012 1362 l 1
 1051 1362 l 1
 1012 1178 l 1
 972 1178 l 1
 717 -25 l 1
 534 -25 l 1
 536 8 l 1
 487 -14 432 -25 372 -25 c 2
 354 -25 l 1
 321 -25 201 -12 128 80 c 0
 79 142 56 223 56 313 c 3
 56 355 61 399 71 446 c 2
 107 616 l 2
 162 871 309 1049 543 1049 c 2
 561 1049 l 2
EndSplineSet
Validated: 3073
EndChar

StartChar: bullet
Encoding: 8226 8226 280
Width: 922
VWidth: 1947
GlyphClass: 2
Flags: W
HStem: 406 523<328.792 590.593>
VStem: 209 503<530.414 810.152>
LayerCount: 2
Fore
SplineSet
712 669 m 3
 712 539 599 406 460 406 c 3
 319 406 209 543 209 669 c 3
 209 803 326 929 460 929 c 3
 594 929 712 803 712 669 c 3
EndSplineSet
Validated: 3073
EndChar

StartChar: florin
Encoding: 402 402 281
Width: 922
VWidth: 1947
GlyphClass: 2
Flags: W
HStem: -405 186<-0.581806 195.147> 702 186<237 402 632 829> 1243 186<721.447 914.766>
LayerCount: 2
Fore
SplineSet
829 888 m 1
 829 702 l 1
 592 702 l 1
 410 -147 l 2
 377 -303 251 -405 96 -405 c 0
 10 -405 -90 -357 -130 -255 c 1
 44 -187 l 1
 52 -208 78 -219 96 -219 c 0
 152 -219 211 -189 228 -109 c 2
 402 702 l 1
 237 702 l 1
 237 888 l 1
 442 888 l 1
 503 1172 l 2
 533 1309 656 1429 817 1429 c 0
 919 1429 1005 1375 1041 1286 c 1
 869 1216 l 1
 861 1237 838 1243 817 1243 c 0
 751 1243 698 1193 685 1132 c 2
 632 888 l 1
 829 888 l 1
EndSplineSet
Validated: 3073
EndChar

StartChar: dagger
Encoding: 8224 8224 282
Width: 922
VWidth: 1947
GlyphClass: 2
Flags: W
HStem: 840 186<195 432 662 898> 1406 20G<552.75 747>
LayerCount: 2
Fore
SplineSet
195 1026 m 1
 472 1026 l 1
 557 1426 l 1
 747 1426 l 1
 662 1026 l 1
 937 1026 l 1
 898 840 l 1
 623 840 l 1
 362 -387 l 1
 172 -387 l 1
 432 840 l 1
 156 840 l 1
 195 1026 l 1
EndSplineSet
Validated: 3073
EndChar

StartChar: daggerdbl
Encoding: 8225 8225 283
Width: 922
VWidth: 1947
GlyphClass: 2
Flags: W
HStem: 13 186<20 257 486 723> 840 186<195 432 662 898> 1406 20G<552.75 747>
LayerCount: 2
Fore
SplineSet
195 1026 m 1
 472 1026 l 1
 557 1426 l 1
 747 1426 l 1
 662 1026 l 1
 937 1026 l 1
 898 840 l 1
 623 840 l 1
 486 199 l 1
 762 199 l 1
 723 13 l 1
 447 13 l 1
 362 -387 l 1
 172 -387 l 1
 257 13 l 1
 -19 13 l 1
 20 199 l 1
 296 199 l 1
 432 840 l 1
 156 840 l 1
 195 1026 l 1
EndSplineSet
Validated: 3073
EndChar

StartChar: trademark
Encoding: 8482 8482 284
Width: 922
VWidth: 1947
GlyphClass: 2
Flags: W
HStem: 1248 120<215 328 451 580> 1380 20G<608.25 734.16 945.36 1081>
LayerCount: 2
Fore
SplineSet
161 466 m 1
 328 1248 l 1
 190 1248 l 1
 215 1368 l 1
 606 1368 l 1
 612 1400 l 1
 734 1400 l 1
 738 900 l 1
 954 1400 l 1
 1081 1400 l 1
 1079 1388 l 1
 881 466 l 1
 758 466 l 1
 834 820 l 1
 704 519 l 1
 621 519 l 1
 618 852 l 1
 536 466 l 1
 413 466 l 1
 580 1248 l 1
 451 1248 l 1
 284 466 l 1
 161 466 l 1
EndSplineSet
Validated: 3073
EndChar

StartChar: Ecyrillic
Encoding: 1028 1028 290
Width: 922
VWidth: 1947
GlyphClass: 2
Flags: W
HStem: -26 186<288.944 482.732> 663 185<341 606> 1240 186<492.501 715.667>
VStem: 70 186<188.564 662.576> 740 186<1086 1219.47>
LayerCount: 2
Fore
SplineSet
740 1086 m 1
 740 1230 668 1240 632 1240 c 3
 461 1240 421 1133 341 848 c 1
 606 848 l 1
 606 663 l 1
 297 663 l 1
 290 632 l 2
 262 492 256 405 256 349 c 3
 256 206 308 160 363 160 c 3
 461 160 521 222 583 354 c 1
 751 274 l 1
 708 184 554 -26 363 -26 c 3
 224 -26 70 92 70 349 c 3
 70 413 77 512 108 670 c 2
 128 767 l 2
 183 1034 309 1426 632 1426 c 3
 718 1426 926 1388 926 1086 c 1
 740 1086 l 1
EndSplineSet
Validated: 3073
EndChar

StartChar: Becyrillic
Encoding: 1041 1041 298
Width: 922
VWidth: 2334
GlyphClass: 2
Flags: W
HStem: -26 186<199 539.868> 662 186<345 639.349> 1215 185<423 887>
VStem: 648 186<332.165 650.851>
LayerCount: 2
Fore
SplineSet
306 662 m 1
 199 160 l 1
 372 160 l 2
 533 160 577 211 603 331 c 2
 640 505 l 2
 643 518 648 545 648 572 c 3
 648 661 583 662 518 662 c 2
 306 662 l 1
518 848 m 2
 768 848 834 698 834 572 c 3
 834 538 830 502 822 465 c 2
 785 293 l 2
 735 60 594 -26 372 -26 c 2
 -31 -26 l 1
 273 1400 l 1
 926 1400 l 1
 887 1215 l 1
 423 1215 l 1
 345 848 l 1
 518 848 l 2
EndSplineSet
Validated: 3073
EndChar

StartChar: Gecyrillic
Encoding: 1043 1043 299
Width: 922
VWidth: 2334
GlyphClass: 2
Flags: W
HStem: -0 21G<-25 169.25> 1214 186<423 978>
LayerCount: 2
Fore
SplineSet
165 -0 m 1
 102 -0 38 -0 -25 -0 c 1
 273 1400 l 1
 1015 1400 l 1
 978 1214 l 1
 423 1214 l 1
 165 -0 l 1
EndSplineSet
Validated: 3073
EndChar

StartChar: Decyrillic
Encoding: 1044 1044 300
Width: 922
VWidth: 1947
GlyphClass: 2
Flags: W
HStem: -0 186<254 553> 1380 20G<649 1001>
VStem: -69 160<-162 -93.6932>
LayerCount: 2
Fore
SplineSet
770 1208 m 1
 679 1163 581 1061 539 948 c 2
 254 186 l 1
 553 186 l 1
 770 1208 l 1
365 1014 m 2
 416 1152 546 1325 752 1400 c 1
 1001 1400 l 1
 743 186 l 1
 803 186 l 1
 756 -34 l 1
 697 -162 l 1
 539 -162 l 1
 573 0 l 1
 125 -0 l 1
 91 -162 l 1
 -69 -162 l 1
 -69 -22 l 1
 -25 186 l 1
 55 186 l 1
 365 1014 l 2
EndSplineSet
Validated: 3073
EndChar

StartChar: Zhecyrillic
Encoding: 1046 1046 302
Width: 922
VWidth: 1947
GlyphClass: 2
Flags: W
HStem: -0 21G<-100 120.5 254 448.299 597.994 787> 1380 20G<212 400.667 874.793 1094>
LayerCount: 2
Fore
SplineSet
-100 -0 m 1
 270 705 l 1
 212 1400 l 1
 399 1400 l 1
 442 884 l 1
 537 1333 l 1
 727 1333 l 1
 639 918 l 1
 885 1400 l 1
 1094 1400 l 1
 719 665 l 1
 787 0 l 1
 725 0 662 0 600 0 c 1
 564 359 l 1
 490 214 l 1
 444 0 l 1
 381 0 317 0 254 0 c 1
 308 255 l 1
 299 360 l 1
 110 -0 l 1
 -100 -0 l 1
EndSplineSet
Validated: 3073
EndChar

StartChar: Zecyrillic
Encoding: 1047 1047 303
Width: 922
VWidth: 1947
GlyphClass: 2
Flags: W
HStem: -26 186<235.967 507.163> 684 186<355 616.268> 1240 186<474.985 712.303>
VStem: 22 186<184.238 274> 639 186<327.111 666.246> 724 186<973.898 1230.57>
LayerCount: 2
Fore
SplineSet
208 274 m 1xf8
 208 194 267 160 334 160 c 2
 372 160 l 2
 508 160 585 243 621 418 c 2
 626 438 l 2
 635 481 639 517 639 549 c 3xf8
 639 677 566 684 523 684 c 2
 355 684 l 1
 355 870 l 1
 524 870 l 2
 603 870 692 963 709 1041 c 2
 718 1083 l 2
 722 1104 724 1122 724 1139 c 3xf4
 724 1234 659 1240 639 1240 c 2
 603 1240 l 2
 537 1240 444 1194 394 1110 c 1
 234 1206 l 1
 310 1333 457 1426 603 1426 c 2
 639 1426 l 2xf8
 677 1426 910 1415 910 1139 c 3xf4
 910 1108 907 1075 900 1043 c 2
 891 1003 l 2
 874 926 824 840 752 777 c 1
 810 711 825 624 825 549 c 3
 825 501 819 449 808 396 c 2
 803 376 l 2
 724 -3 470 -26 372 -26 c 2
 334 -26 l 2
 126 -26 22 125 22 274 c 1
 208 274 l 1xf8
EndSplineSet
Validated: 3073
EndChar

StartChar: Iicyrillic
Encoding: 1048 1048 304
Width: 922
VWidth: 1947
GlyphClass: 2
Flags: W
HStem: 0 21G<-24 166.04 533 727.243> 1380 20G<268.757 463 833.882 1020>
LayerCount: 2
Fore
SplineSet
-24 0 m 1
 273 1400 l 1
 463 1400 l 1
 279 534 l 1
 847 1400 l 1
 1020 1400 l 1
 723 0 l 1
 660 0 596 0 533 0 c 1
 717 865 l 1
 153 0 l 1
 -24 0 l 1
EndSplineSet
Validated: 3073
EndChar

StartChar: Elcyrillic
Encoding: 1051 1051 307
Width: 922
VWidth: 1947
GlyphClass: 2
Flags: W
HStem: 0 21G<-67 142.339 533 727.257> 1380 20G<736 1021>
LayerCount: 2
Fore
SplineSet
356 1017 m 2
 421 1174 571 1335 736 1395 c 2
 752 1400 l 1
 1021 1400 l 1
 723 -0 l 1
 660 0 596 0 533 -0 c 1
 791 1215 l 1
 786 1215 l 1
 688 1173 577 1064 528 945 c 2
 134 0 l 1
 67 0 0 0 -67 0 c 1
 356 1017 l 2
EndSplineSet
Validated: 3073
EndChar

StartChar: Pecyrillic
Encoding: 1055 1055 311
Width: 922
VWidth: 1947
GlyphClass: 2
Flags: W
HStem: -0 21G<-25 169.247 533 727.257> 1215 185<423 791>
LayerCount: 2
Fore
SplineSet
165 -0 m 1
 102 0 38 0 -25 -0 c 1
 273 1400 l 1
 1021 1400 l 1
 723 -0 l 1
 660 0 596 0 533 -0 c 1
 791 1215 l 1
 423 1215 l 1
 165 -0 l 1
EndSplineSet
Validated: 3073
EndChar

StartChar: Ucyrillic
Encoding: 1059 1059 315
Width: 922
VWidth: 1947
GlyphClass: 2
Flags: W
HStem: -26 186<127.391 283.919> -8 172<125.405 287.684> 1380 20G<264 456.355 834.863 1049>
LayerCount: 2
Fore
SplineSet
503 206 m 2xa0
 475 145 422 47 310 -3 c 0
 273 -19 238 -26 203 -26 c 2
 174 -26 l 2xa0
 141 -26 112 -22 80 -8 c 2
 51 5 l 1
 127 175 l 1
 152 164 l 2x60
 159 161 167 160 174 160 c 2
 201 160 l 2
 211 160 226 163 235 168 c 0
 285 192 311 233 335 286 c 2
 420 473 l 1
 264 1400 l 1
 453 1400 l 1
 558 774 l 1
 844 1400 l 1
 1049 1400 l 1
 503 206 l 2xa0
EndSplineSet
Validated: 3073
EndChar

StartChar: Efcyrillic
Encoding: 1060 1060 316
Width: 922
VWidth: 1947
GlyphClass: 2
Flags: W
HStem: -24 21G<249 443.228> 1406 20G<552.69 747>
VStem: 34 186<320.177 748.989> 778 186<662.88 1092.49>
LayerCount: 2
Fore
SplineSet
315 289 m 1
 489 1105 l 1
 381 1056 303 933 260 728 c 2
 240 632 l 2
 226 568 220 512 220 466 c 0
 220 356 253 307 315 289 c 1
682 1121 m 1
 508 300 l 1
 620 343 689 457 734 665 c 2
 756 768 l 2
 771 836 778 895 778 943 c 0
 778 1054 744 1103 682 1121 c 1
439 -24 m 1
 249 -24 l 1
 277 107 l 1
 126 145 34 264 34 466 c 0
 34 529 42 596 58 670 c 2
 78 766 l 2
 167 1184 383 1287 532 1310 c 1
 557 1426 l 1
 747 1426 l 1
 721 1301 l 1
 866 1261 964 1144 964 943 c 0
 964 878 955 807 938 729 c 2
 916 625 l 2
 846 301 699 129 465 99 c 1
 439 -24 l 1
EndSplineSet
Validated: 3073
EndChar

StartChar: Tsecyrillic
Encoding: 1062 1062 318
Width: 922
VWidth: 1947
GlyphClass: 2
Flags: W
HStem: 0 185<205 503> 1380 20G<267.757 462 755.77 950>
LayerCount: 2
Fore
SplineSet
760 12 m 1
 584 -242 l 1
 432 -136 l 1
 525 0 l 1
 -25 0 l 1
 272 1400 l 1
 462 1400 l 1
 205 185 l 1
 503 185 l 1
 760 1400 l 1
 950 1400 l 1
 693 185 l 1
 798 185 l 1
 760 12 l 1
EndSplineSet
Validated: 3073
EndChar

StartChar: Checyrillic
Encoding: 1063 1063 319
Width: 922
VWidth: 1947
GlyphClass: 2
Flags: W
HStem: -0 21G<533 727.257> 419 186<330.086 622> 1380 20G<267.76 463 826.748 1021>
VStem: 133 186<617.035 826.417>
LayerCount: 2
Fore
SplineSet
723 -0 m 1
 660 -0 596 -0 533 -0 c 1
 622 419 l 1
 449 419 l 2
 416 419 399 420 366 425 c 0
 206 452 133 560 133 696 c 3
 133 729 137 764 145 801 c 2
 272 1400 l 1
 463 1400 l 1
 327 763 l 2
 321 736 319 714 319 696 c 3
 319 640 338 618 396 609 c 0
 417 605 428 605 449 605 c 2
 662 605 l 1
 831 1400 l 1
 1021 1400 l 1
 723 -0 l 1
EndSplineSet
Validated: 3073
EndChar

StartChar: Shacyrillic
Encoding: 1064 1064 320
Width: 922
VWidth: 1947
GlyphClass: 2
Flags: W
HStem: -0 185<155 294 484 623> 1380 20G<217.757 412 875.77 1070>
LayerCount: 2
Fore
SplineSet
484 185 m 1
 623 185 l 1
 880 1400 l 1
 1070 1400 l 1
 774 0 l 1
 491 0 208 0 -75 -0 c 1
 222 1400 l 1
 412 1400 l 1
 155 185 l 1
 294 185 l 1
 499 1152 l 1
 689 1152 l 1
 484 185 l 1
EndSplineSet
Validated: 3073
EndChar

StartChar: Shchacyrillic
Encoding: 1065 1065 321
Width: 922
VWidth: 1947
GlyphClass: 2
Flags: W
HStem: -1 186<155 268 458 555> 1380 20G<214.803 409 822.802 1017>
LayerCount: 2
Fore
SplineSet
794 16 m 1
 614 -242 l 1
 462 -136 l 1
 555 -1 l 1
 -75 -1 l 1
 219 1400 l 1
 409 1400 l 1
 155 185 l 1
 268 185 l 1
 470 1152 l 1
 660 1152 l 1
 458 185 l 1
 572 185 l 1
 827 1400 l 1
 1017 1400 l 1
 763 185 l 1
 830 185 l 1
 794 16 l 1
EndSplineSet
Validated: 3073
EndChar

StartChar: Hardsigncyrillic
Encoding: 1066 1066 322
Width: 922
VWidth: 1947
GlyphClass: 2
Flags: W
HStem: 0 185<355 545.198> 622 186<487 631.745> 1380 20G<241.728 613>
VStem: 640 186<414.055 615.475>
LayerCount: 2
Fore
SplineSet
570 808 m 2
 724 808 826 702 826 535 c 0
 826 500 822 465 814 426 c 2
 791 318 l 2
 742 88 594 0 438 0 c 2
 125 0 l 1
 383 1215 l 1
 354 1215 l 1
 234 974 l 1
 155 974 l 1
 246 1400 l 1
 613 1400 l 1
 487 808 l 1
 570 808 l 2
448 622 m 1
 355 185 l 1
 438 185 l 2
 501 185 578 209 609 356 c 2
 632 464 l 2
 638 492 640 516 640 535 c 0
 640 610 609 622 570 622 c 2
 448 622 l 1
EndSplineSet
Validated: 3073
EndChar

StartChar: Yericyrillic
Encoding: 1067 1067 323
Width: 922
VWidth: 1947
GlyphClass: 2
Flags: W
HStem: -0 187<175 303.766> 672 184<319 385.404> 1380 20G<241.7 436 859.786 1054>
VStem: 400 186<458.754 653.726>
LayerCount: 2
Fore
SplineSet
319 856 m 1
 540 856 586 676 586 583 c 3
 586 549 582 513 574 476 c 2
 541 318 l 2
 495 99 367 0 168 -0 c 2
 168 -0 19 0 -55 -0 c 1
 246 1400 l 1
 436 1400 l 1
 319 856 l 1
280 672 m 1
 175 187 l 1
 297 187 336 249 359 356 c 2
 392 514 l 2
 395 527 400 556 400 583 c 3
 400 614 390 672 280 672 c 1
759 0 m 1
 696 0 632 0 569 -0 c 1
 864 1400 l 1
 1054 1400 l 1
 759 0 l 1
EndSplineSet
Validated: 3073
EndChar

StartChar: Softsigncyrillic
Encoding: 1068 1068 324
Width: 922
VWidth: 1947
GlyphClass: 2
Flags: W
HStem: 0 185<205 545.954> 622 186<337 623.199> 1380 20G<268.743 463>
VStem: 640 186<306.279 610.167>
LayerCount: 2
Fore
SplineSet
298 622 m 1
 205 185 l 1
 378 185 l 2
 539 185 583 236 609 356 c 2
 632 464 l 2
 635 477 640 504 640 531 c 3
 640 620 575 622 510 622 c 2
 298 622 l 1
510 808 m 2
 760 808 826 657 826 531 c 3
 826 497 822 463 814 426 c 2
 791 318 l 2
 744 99 617 0 418 0 c 2
 -25 -0 l 1
 273 1400 l 1
 463 1400 l 1
 337 808 l 1
 510 808 l 2
EndSplineSet
Validated: 3073
EndChar

StartChar: Ereversedcyrillic
Encoding: 1069 1069 325
Width: 922
VWidth: 1947
GlyphClass: 2
Flags: W
HStem: -26 186<282.728 477.261> 662 186<436 683> 1035 21G<362.41 438.5> 1240 186<518.361 713.087>
VStem: 71 186<177.819 319> 740 186<850.953 1202.87>
LayerCount: 2
Fore
SplineSet
721 848 m 1
 736 939 740 1003 740 1050 c 3
 740 1067 740 1139 719 1188 c 0
 707 1216 690 1240 632 1240 c 3
 541 1240 471 1176 406 1035 c 1
 236 1113 l 1
 282 1213 395 1426 632 1426 c 3
 787 1426 859 1333 890 1261 c 0
 923 1184 926 1133 926 1050 c 3
 926 968 922 893 906 818 c 2
 850 560 l 2
 794 300 659 -26 363 -26 c 3
 208 -26 136 67 104 144 c 0
 83 196 71 268 71 319 c 1
 257 319 l 1
 257 292 263 245 276 215 c 0
 289 184 307 160 363 160 c 3
 490 160 596 290 683 662 c 1
 386 662 l 1
 436 848 l 1
 721 848 l 1
EndSplineSet
Validated: 3073
EndChar

StartChar: IUcyrillic
Encoding: 1070 1070 326
Width: 922
VWidth: 1947
GlyphClass: 2
Flags: W
HStem: -26 188<505.548 580.882> -0 21G<-75 119.25> 607 186<284 355> 1238 188<713.171 792.377> 1380 20G<218.743 413>
VStem: 316 183<163.811 605.656> 796 184<778.117 1237.61>
LayerCount: 2
Fore
SplineSet
980 1097 m 3x36
 980 996 966 895 956 846 c 2
 883 509 l 2
 868 439 766 126 669 40 c 0
 627 3 579 -26 513 -26 c 3xb6
 475 -26 406 -11 363 64 c 0
 341 105 316 173 316 306 c 3
 316 403 333 502 343 549 c 2
 355 607 l 1
 244 607 l 1
 115 -0 l 1
 -75 -0 l 1
 223 1400 l 1
 413 1400 l 1x6e
 284 793 l 1
 394 793 l 1
 414 884 l 2
 429 954 526 1264 625 1358 c 0
 665 1396 715 1426 782 1426 c 3
 831 1426 887 1413 932 1337 c 0
 955 1298 980 1230 980 1097 c 3x36
522 162 m 3
 580 162 648 299 702 547 c 2
 774 884 l 2
 781 918 796 1047 796 1139 c 3
 796 1195 790 1238 774 1238 c 3
 714 1238 645 1098 592 846 c 2
 521 511 l 2
 505 436 499 363 499 304 c 3
 499 220 511 162 522 162 c 3
EndSplineSet
Validated: 3073
EndChar

StartChar: IAcyrillic
Encoding: 1071 1071 327
Width: 922
VWidth: 1947
GlyphClass: 2
Flags: W
HStem: 0 21G<-77 160.514 533 727.257> 592 186<547 659> 1215 185<450.132 791>
VStem: 170 186<788.694 1094.04>
LayerCount: 2
Fore
SplineSet
698 778 m 1
 791 1215 l 1
 618 1215 l 2
 457 1215 413 1164 387 1044 c 2
 364 937 l 2
 361 924 356 897 356 870 c 3
 356 784 410 778 486 778 c 2
 698 778 l 1
659 592 m 1
 547 592 l 1
 147 -0 l 1
 -77 0 l 1
 338 615 l 1
 239 652 170 735 170 870 c 3
 170 904 174 938 182 975 c 2
 205 1082 l 2
 255 1315 396 1400 618 1400 c 2
 1021 1400 l 1
 723 -0 l 1
 660 0 596 0 533 -0 c 1
 659 592 l 1
EndSplineSet
Validated: 3073
EndChar

StartChar: becyrillic
Encoding: 1073 1073 329
Width: 922
VWidth: 1947
GlyphClass: 2
Flags: W
HStem: -26 186<271.308 501.713> 1215 185<558 887>
VStem: 55 186<184.97 567.781> 678 186<470.828 841.534>
LayerCount: 2
Fore
SplineSet
678 730 m 3
 678 851 602 864 561 864 c 2
 543 864 l 2
 493 864 347 854 288 578 c 2
 252 408 l 2
 244 372 241 340 241 313 c 3
 241 181 317 160 354 160 c 2
 372 160 l 2
 423 160 569 170 628 446 c 2
 664 616 l 2
 673 659 678 698 678 730 c 3
297 1400 m 1
 926 1400 l 1
 887 1215 l 1
 558 1215 l 1
 780 968 l 1
 844 903 864 814 864 730 c 3
 864 682 857 632 846 578 c 2
 810 408 l 2
 755 149 606 -26 372 -26 c 2
 354 -26 l 2
 307 -26 195 -17 119 90 c 0
 68 161 55 246 55 313 c 3
 55 355 60 399 70 446 c 2
 106 616 l 2
 154 841 275 1007 463 1043 c 1
 267 1260 l 1
 297 1400 l 1
EndSplineSet
Validated: 3073
EndChar

StartChar: vecyrillic
Encoding: 1074 1074 330
Width: 922
VWidth: 2334
GlyphClass: 2
Flags: W
HStem: 0 185<253.283 551.031> 1239 187<432.038 641.125>
VStem: 41 186<210.962 357.91> 629 186<255.806 435.793> 646 186<1098.47 1231.53>
LayerCount: 2
Fore
SplineSet
41 282 m 3xf0
 41 292 44 321 46 331 c 2
 225 1172 l 1
 241 1239 294 1384 446 1416 c 0
 474 1422 505 1426 538 1426 c 2
 570 1426 l 2
 713 1426 832 1325 832 1179 c 3xe8
 832 1161 831 1144 826 1121 c 2
 810 1044 l 2
 780 902 677 751 571 637 c 1
 608 632 815 601 815 378 c 3
 815 354 812 329 807 305 c 2
 805 296 l 2
 766 120 624 0 397 0 c 2
 358 0 l 2
 247 0 165 38 99 122 c 0
 64 166 41 221 41 282 c 3xf0
358 185 m 2
 397 185 l 2
 578 185 613 290 623 336 c 2
 625 345 l 2
 628 362 629 371 629 378 c 3xf0
 629 421 605 439 563 449 c 0
 536 455 526 456 494 456 c 2
 263 456 l 1
 228 293 l 25
 228 293 227 290 227 282 c 3
 227 269 232 253 245 237 c 0
 274 200 313 185 358 185 c 2
305 654 m 1
 412 710 595 925 628 1083 c 2
 644 1159 l 2
 646 1167 646 1173 646 1179 c 3xe8
 646 1234 587 1239 570 1239 c 2
 538 1239 l 2
 516 1239 499 1237 486 1234 c 0
 440 1224 421 1187 407 1132 c 1
 305 654 l 1
EndSplineSet
Validated: 3073
EndChar

StartChar: gecyrillic
Encoding: 1075 1075 331
Width: 922
VWidth: 1947
GlyphClass: 2
Flags: W
HStem: -26 186<238.038 485.165> 864 186<397.85 667.751>
VStem: 4 186<181.53 347.354> 672 186<721.583 850.056>
LayerCount: 2
Fore
SplineSet
513 1050 m 2
 531 1050 l 2
 568 1050 604 1049 652 1039 c 0
 765 1015 858 943 858 808 c 3
 858 787 855 763 850 736 c 2
 847 724 l 2
 840 698 808 595 675 539 c 2
 264 364 l 2
 246 357 207 338 195 283 c 2
 192 269 l 2
 191 263 190 252 190 246 c 3
 190 222 204 197 237 179 c 0
 259 167 290 160 324 160 c 2
 372 160 l 2
 460 160 588 261 609 357 c 1
 791 317 l 1
 754 147 558 -26 372 -26 c 2
 324 -26 l 2
 264 -26 205 -12 153 13 c 0
 21 78 4 212 4 246 c 3
 4 264 7 291 10 306 c 2
 13 320 l 2
 33 417 98 496 192 536 c 2
 607 711 l 2
 647 729 660 743 665 766 c 2
 668 778 l 2
 670 784 672 795 672 808 c 3
 672 831 654 842 613 856 c 0
 596 862 553 864 531 864 c 2
 513 864 l 2
 439 864 347 795 303 728 c 1
 147 828 l 1
 220 942 367 1050 513 1050 c 2
EndSplineSet
Validated: 3073
EndChar

StartChar: decyrillic
Encoding: 1076 1076 332
Width: 922
VWidth: 1947
GlyphClass: 2
Flags: W
HStem: -26 186<273.062 501.713> 864 186<420.12 656.975> 1215 185<393.822 694.421>
VStem: 55 186<191.845 567.781> 741 186<1000.13 1180.44>
LayerCount: 2
Fore
SplineSet
633 1215 m 2
 614 1215 l 2
 496 1215 439 1199 380 1162 c 1
 284 1322 l 1
 366 1373 428 1400 618 1400 c 2
 639 1400 l 2
 661 1400 768 1385 837 1303 c 0
 914 1212 927 1085 927 1014 c 3
 927 995 926 956 918 919 c 2
 810 408 l 2
 755 149 606 -26 372 -26 c 2
 354 -26 l 2
 312 -26 192 -12 119 90 c 0
 68 161 55 246 55 313 c 3
 55 355 60 399 70 446 c 2
 106 616 l 2
 161 871 308 1050 543 1050 c 2
 561 1050 l 2
 600 1050 670 1048 741 1000 c 1
 741 1006 741 1012 741 1014 c 3
 741 1048 732 1131 695 1183 c 0
 683 1200 648 1215 633 1215 c 2
678 730 m 3
 678 836 626 864 561 864 c 2
 543 864 l 2
 492 864 347 854 288 578 c 2
 252 408 l 2
 244 372 241 340 241 313 c 3
 241 176 340 160 354 160 c 2
 372 160 l 2
 423 160 569 170 628 446 c 2
 664 616 l 2
 673 659 678 686 678 730 c 3
EndSplineSet
Validated: 3073
EndChar

StartChar: zhecyrillic
Encoding: 1078 1078 334
Width: 922
VWidth: 1947
GlyphClass: 2
Flags: W
HStem: 0 21G<-77 149.75 254 448.276 569.723 761> 1003 20G<467.704 662>
LayerCount: 2
Fore
SplineSet
-77 0 m 1
 219 507 l 1
 103 1029 l 1
 285 1069 l 1
 385 618 l 1
 472 1023 l 1
 662 1023 l 1
 584 659 l 1
 868 1099 l 1
 1024 999 l 1
 685 472 l 1
 761 0 l 1
 698 0 636 0 573 0 c 1
 534 238 l 1
 475 145 l 1
 444 -0 l 1
 381 0 317 0 254 -0 c 1
 292 180 l 1
 279 240 l 1
 138 0 l 1
 -77 0 l 1
EndSplineSet
Validated: 3073
EndChar

StartChar: zecyrillic
Encoding: 1079 1079 335
Width: 922
VWidth: 1947
GlyphClass: 2
Flags: W
HStem: -26 186<247.523 522.256> 467 186<369 593.684> 863 186<388.773 653.003>
VStem: 36 186<188.672 256> 611 186<251.129 443.998> 658 186<711.219 846.232>
LayerCount: 2
Fore
SplineSet
658 805 m 3xf4
 658 832 598 863 541 863 c 2
 503 863 l 2
 439 863 366 820 314 733 c 1
 154 829 l 1
 234 963 363 1049 503 1049 c 2
 541 1049 l 2
 603 1049 639 1042 694 1016 c 0
 773 979 844 904 844 805 c 3xf4
 844 781 838 660 726 561 c 1
 774 511 797 446 797 380 c 3
 797 225 675 -26 392 -26 c 2
 374 -26 l 2
 332 -26 233 -21 138 55 c 0
 41 132 36 223 36 256 c 1
 222 256 l 1
 222 218 271 160 374 160 c 1
 392 160 l 2
 520 160 587 255 604 333 c 2
 608 353 l 2
 610 363 611 372 611 380 c 3xf8
 611 452 506 467 477 467 c 2
 369 467 l 1
 369 653 l 1
 478 653 l 2
 596 653 658 750 658 805 c 3xf4
EndSplineSet
Validated: 3073
EndChar

StartChar: iicyrillic
Encoding: 1080 1080 336
Width: 922
VWidth: 1947
GlyphClass: 2
Flags: W
HStem: -26 186<231.015 446.201> 0 21G<533 727.258> 1003 20G<187.772 383 745.745 941>
VStem: 37 186<168.984 381.168>
LayerCount: 2
Fore
SplineSet
223 238 m 27xb0
 223 185 250 160 334 160 c 2
 352 160 l 2xb0
 442 160 606 346 633 473 c 2
 750 1023 l 1
 941 1023 l 1
 832 512 l 1
 723 -0 l 1
 660 0 596 0 533 0 c 1x70
 542 42 l 1
 482 0 417 -26 352 -26 c 2
 334 -26 l 2
 150 -26 37 83 37 238 c 27
 37 284 42 315 51 356 c 2
 192 1023 l 1
 383 1023 l 1
 233 318 l 2
 225 279 223 269 223 238 c 27xb0
EndSplineSet
Validated: 3073
EndChar

StartChar: kacyrillic
Encoding: 1082 1082 338
Width: 922
VWidth: 1947
GlyphClass: 2
Flags: W
HStem: 0 21G<-25 169.298 480 746> 1004 20G<187.762 382>
LayerCount: 2
Fore
SplineSet
165 -0 m 1
 -25 -0 l 1
 192 1024 l 1
 382 1024 l 1
 287 574 l 1
 437 755 595 902 752 1023 c 2
 815 1071 l 1
 925 921 l 1
 869 879 l 2
 757 793 645 692 536 576 c 1
 536 572 l 2
 536 347 621 145 746 0 c 1
 669 0 592 0 515 0 c 1
 445 111 393 239 368 378 c 1
 307 299 248 213 191 121 c 1
 165 -0 l 1
EndSplineSet
Validated: 3073
EndChar

StartChar: elcyrillic
Encoding: 1083 1083 339
Width: 922
VWidth: 1947
GlyphClass: 2
Flags: W
HStem: -0 21G<-66 148.451 533 727.262> 1003 20G<656 941>
LayerCount: 2
Fore
SplineSet
236 643 m 1
 306 802 492 958 656 1018 c 2
 672 1023 l 1
 941 1023 l 1
 723 0 l 1
 660 0 596 0 533 -0 c 1
 711 838 l 1
 705 838 l 1
 604 796 457 682 406 565 c 1
 139 0 l 1
 70 0 3 0 -66 -0 c 1
 236 643 l 1
EndSplineSet
Validated: 3073
EndChar

StartChar: emcyrillic
Encoding: 1084 1084 340
Width: 922
VWidth: 1947
GlyphClass: 2
Flags: W
HStem: 0 21G<-107 92.8349 614 804.698> 1003 20G<187.135 386.075 729.338 940>
LayerCount: 2
Fore
SplineSet
-107 0 m 1
 193 1023 l 1
 384 1023 l 1
 442 464 l 1
 740 1023 l 1
 940 1023 l 1
 802 -0 l 1
 739 0 677 0 614 0 c 1
 685 524 l 1
 455 92 l 1
 294 92 l 1
 246 545 l 1
 87 0 l 1
 -107 0 l 1
EndSplineSet
Validated: 3073
EndChar

StartChar: encyrillic
Encoding: 1085 1085 341
Width: 922
VWidth: 1947
GlyphClass: 2
Flags: W
HStem: 0 21G<-25 169.244 533 727.262> 377 186<285 613> 1003 20G<188.738 383 746.739 941>
LayerCount: 2
Fore
SplineSet
165 0 m 1
 -25 0 l 1
 193 1023 l 1
 383 1023 l 1
 285 563 l 1
 653 563 l 1
 751 1023 l 1
 941 1023 l 1
 723 0 l 1
 533 0 l 1
 613 377 l 1
 245 377 l 1
 165 0 l 1
EndSplineSet
Validated: 3073
EndChar

StartChar: tecyrillic
Encoding: 1090 1090 346
Width: 922
VWidth: 1947
GlyphClass: 2
Flags: W
HStem: 0 21G<-56 120.242 263 439.245 582 758.237> 873 168<336.144 437.443 657.043 752.646>
VStem: 758 168<729.325 871.113>
LayerCount: 2
Fore
SplineSet
439 848 m 3
 439 859 433 873 417 873 c 2
 407 873 l 2
 357 873 281 779 263 693 c 2
 116 -0 l 1
 -56 0 l 1
 169 1050 l 1
 341 1050 l 1
 336 1028 l 1
 370 1040 398 1041 407 1041 c 2
 417 1041 l 2
 508 1041 550 998 568 975 c 1
 637 1034 714 1041 726 1041 c 2
 736 1041 l 2
 919 1041 926 884 926 848 c 3
 926 820 922 791 915 760 c 2
 754 -0 l 1
 582 0 l 1
 751 794 l 2
 756 817 758 831 758 848 c 3
 758 859 753 873 736 873 c 2
 726 873 l 2
 675 873 598 767 577 669 c 2
 435 -0 l 1
 263 0 l 1
 432 794 l 2
 437 817 439 831 439 848 c 3
EndSplineSet
Validated: 3073
EndChar

StartChar: efcyrillic
Encoding: 1092 1092 348
Width: 922
VWidth: 1947
GlyphClass: 2
Flags: W
HStem: -384 21G<172 366.298> 1029 20G<472.765 667>
VStem: 11 186<197.601 555.86> 702 186<389.168 744.354>
LayerCount: 2
Fore
SplineSet
290 169 m 1
 415 760 l 1
 337 726 252 646 212 454 c 0
 202 406 197 364 197 329 c 3
 197 237 226 188 290 169 c 1
609 774 m 1
 483 183 l 1
 561 217 647 298 688 492 c 0
 698 538 702 578 702 612 c 3
 702 705 673 755 609 774 c 1
888 612 m 3
 888 563 882 510 870 454 c 0
 811 177 656 11 440 -21 c 1
 362 -384 l 1
 172 -384 l 1
 251 -13 l 1
 107 23 11 136 11 329 c 3
 11 380 18 434 30 492 c 0
 87 765 242 932 459 964 c 1
 477 1049 l 1
 667 1049 l 1
 647 956 l 1
 792 919 888 805 888 612 c 3
EndSplineSet
Validated: 3073
EndChar

StartChar: tsecyrillic
Encoding: 1094 1094 350
Width: 922
VWidth: 1947
GlyphClass: 2
Flags: W
HStem: -26 186<231.84 445.888> 1003 20G<188.742 383 746.724 941>
VStem: 37 186<175.205 381.168> 577 186<-86.6361 55.6746>
LayerCount: 2
Fore
SplineSet
223 238 m 3
 223 193 246 160 334 160 c 2
 352 160 l 2
 444 160 600 345 630 457 c 1
 751 1023 l 1
 941 1023 l 1
 746 111 l 1
 762 82 763 36 763 27 c 3
 763 -148 651 -250 545 -309 c 1
 455 -147 l 1
 543 -98 577 -43 577 27 c 3
 577 31 575 39 571 44 c 2
 560 56 l 1
 495 7 424 -26 352 -26 c 2
 334 -26 l 2
 111 -26 37 119 37 238 c 3
 37 285 42 315 51 356 c 2
 193 1023 l 1
 383 1023 l 1
 233 318 l 2
 225 279 223 269 223 238 c 3
EndSplineSet
Validated: 3073
EndChar

StartChar: checyrillic
Encoding: 1095 1095 351
Width: 922
VWidth: 1947
GlyphClass: 2
Flags: W
HStem: -0 21G<533 727.262> 334 186<312.297 519.788> 1003 20G<188.7 383 746.694 941>
VStem: 113 186<530.608 736.88>
LayerCount: 2
Fore
SplineSet
299 598 m 3
 299 556 318 520 411 520 c 2
 429 520 l 2
 522 520 691 744 706 814 c 2
 751 1023 l 1
 941 1023 l 1
 723 0 l 1
 660 0 596 -0 533 -0 c 1
 618 402 l 1
 559 360 494 334 429 334 c 2
 411 334 l 2
 198 334 113 466 113 598 c 3
 113 645 118 675 127 716 c 2
 193 1023 l 1
 383 1023 l 1
 309 678 l 2
 302 646 299 630 299 598 c 3
EndSplineSet
Validated: 3073
EndChar

StartChar: shacyrillic
Encoding: 1096 1096 352
Width: 922
VWidth: 1947
GlyphClass: 2
Flags: W
HStem: -13 160<157.762 260.608 474.574 579.771> 1003 20G<161.758 330 480.761 649 799.721 967>
VStem: -6 160<149.65 294.593>
LayerCount: 2
Fore
SplineSet
473 175 m 3
 473 160 478 147 498 147 c 2
 508 147 l 2
 552 147 635 231 657 336 c 2
 804 1023 l 1
 967 1023 l 1
 750 -0 l 1
 695 0 641 0 586 -0 c 1
 587 3 l 1
 558 -7 519 -13 508 -13 c 2
 498 -13 l 2
 434 -13 382 9 348 55 c 1
 305 4 212 -13 189 -13 c 2
 179 -13 l 2
 22 -13 -6 136 -6 175 c 3
 -6 203 -2 233 5 264 c 2
 166 1023 l 1
 330 1023 l 1
 161 230 l 2
 155 203 154 197 154 175 c 27
 154 160 161 147 179 147 c 2
 189 147 l 2
 242 147 320 246 343 353 c 2
 485 1023 l 1
 649 1023 l 1
 480 230 l 2
 475 208 473 189 473 175 c 3
EndSplineSet
Validated: 3073
EndChar

StartChar: shchacyrillic
Encoding: 1097 1097 353
Width: 922
VWidth: 1947
GlyphClass: 2
Flags: W
HStem: -13 160<155.169 259.804 474.574 579.58> 1003 20G<161.758 329 480.761 648 799.739 967>
VStem: -6 160<148.138 294.963> 630 160<-89.0242 26>
LayerCount: 2
Fore
SplineSet
154 175 m 27
 154 160 163 147 179 147 c 2
 189 147 l 2
 241 147 320 246 343 353 c 2
 485 1023 l 1
 648 1023 l 1
 480 230 l 2
 475 208 473 191 473 175 c 3
 473 160 481 147 498 147 c 2
 508 147 l 2
 552 147 637 238 657 333 c 2
 804 1023 l 1
 967 1023 l 1
 773 110 l 1
 782 90 790 63 790 27 c 3
 790 -102 727 -216 579 -298 c 1
 501 -158 l 1
 595 -106 630 -48 630 26 c 1
 578 -7 524 -13 508 -13 c 2
 498 -13 l 2
 434 -13 382 9 348 55 c 1
 298 1 208 -13 189 -13 c 2
 179 -13 l 2
 47 -13 -6 95 -6 175 c 3
 -6 203 -2 233 5 264 c 2
 166 1023 l 1
 329 1023 l 1
 161 230 l 2
 155 203 154 197 154 175 c 27
EndSplineSet
Validated: 3073
EndChar

StartChar: hardsigncyrillic
Encoding: 1098 1098 354
Width: 922
VWidth: 1947
GlyphClass: 2
Flags: W
HStem: 0 184<354 537.214> 468 186<454 592.549>
VStem: 611 186<275.888 447.174>
LayerCount: 2
Fore
SplineSet
611 376 m 3
 611 413 582 468 477 468 c 2
 415 468 l 1
 354 184 l 1
 377 184 l 1
 495 184 584 240 599 311 c 2
 609 356 l 2
 611 364 611 370 611 376 c 3
477 654 m 2
 532 654 590 648 663 604 c 0
 742 556 797 477 797 376 c 3
 797 359 796 340 791 318 c 2
 781 271 l 2
 737 71 530 0 377 0 c 1
 124 0 l 1
 298 813 l 1
 269 813 l 1
 149 572 l 1
 70 572 l 1
 160 999 l 1
 528 999 l 1
 454 654 l 1
 477 654 l 2
EndSplineSet
Validated: 3073
EndChar

StartChar: yericyrillic
Encoding: 1099 1099 355
Width: 922
VWidth: 1947
GlyphClass: 2
Flags: W
HStem: -0 185<155 294.817> 468 186<254 346.432> 1004 20G<138.742 333 792.781 987>
VStem: 361.653 186.138<251.803 451.304>
LayerCount: 2
Fore
SplineSet
215 468 m 1
 155 185 l 1
 232 187 329 217 349 311 c 2
 359 356 l 2
 360.778 364.383 361.653 372.444 361.653 380.128 c 3
 361.653 432.943 320.331 468 247 468 c 2
 215 468 l 1
254 654 m 1
 429.903 650.482 547.791 532.478 547.791 381.632 c 3
 547.791 360.967 547.235 340.37 542 318 c 2
 531 271 l 2
 489.475 93.5723 336 10 180 -0 c 1
 95 0 10 0 -75 0 c 1
 143 1024 l 1
 333 1024 l 1
 254 654 l 1
581 0 m 1
 797 1024 l 1
 987 1024 l 1
 771 0 l 1
 708 0 644 0 581 0 c 1
EndSplineSet
Validated: 3073
EndChar

StartChar: softsigncyrillic
Encoding: 1100 1100 356
Width: 922
VWidth: 1947
GlyphClass: 2
Flags: W
HStem: 0 185<205 532.869> 468 186<304 591.73> 1029 20G<193.748 388>
VStem: 611 186<259.079 444.875>
LayerCount: 2
Fore
SplineSet
304 654 m 1
 477 654 l 2
 551 654 616 633 663 604 c 0
 767 541 797 451 797 375 c 3
 797 355 795 335 791 318 c 2
 781 271 l 2
 741 86 560 0 410 0 c 1
 265 0 120 0 -25 0 c 1
 198 1049 l 1
 388 1049 l 1
 304 654 l 1
205 185 m 1
 378 185 l 2
 492 185 580 240 599 311 c 2
 608 344 l 2
 611 354 611 369 611 375 c 3
 611 440 534 468 477 468 c 2
 265 468 l 1
 205 185 l 1
EndSplineSet
Validated: 3073
EndChar

StartChar: ereversedcyrillic
Encoding: 1101 1101 357
Width: 922
VWidth: 1947
GlyphClass: 2
Flags: W
HStem: -26 186<220.827 468.283> 419 186<339 607> 863 186<374.846 642.12>
VStem: 663 186<605.575 841.492>
LayerCount: 2
Fore
SplineSet
663 729 m 3
 663 855 590 863 546 863 c 2
 528 863 l 2
 417 863 357 823 323 756 c 1
 157 840 l 1
 204 932 305 1049 528 1049 c 2
 546 1049 l 2
 576 1049 849 1024 849 729 c 3
 849 682 842 631 831 578 c 2
 795 408 l 2
 734 122 539 -26 357 -26 c 2
 339 -26 l 2
 291 -26 274 -25 233 -15 c 0
 101 15 38 105 26 209 c 1
 210 231 l 1
 219 171 290 160 339 160 c 2
 357 160 l 2
 454 160 562 252 607 419 c 1
 289 419 l 1
 339 605 l 1
 647 605 l 1
 654 626 663 680 663 729 c 3
EndSplineSet
Validated: 3073
EndChar

StartChar: iucyrillic
Encoding: 1102 1102 358
Width: 922
VWidth: 1947
GlyphClass: 2
Flags: W
HStem: -26 186<456.41 570.738> -0 21G<-65 129.296> 864 186<605.599 723.74> 1003 20G<149.718 344>
VStem: 267 186<163.666 417.455> 728 186<522.625 863.977>
LayerCount: 2
Fore
SplineSet
483 -26 m 2xac
 391 -26 267 16 267 258 c 3
 267 307 273 361 284 419 c 1
 215 419 l 1
 125 -0 l 1
 -65 -0 l 1
 154 1023 l 1
 344 1023 l 1x5c
 255 605 l 1
 323 605 l 1
 410 1017 602 1050 672 1050 c 2
 690 1050 l 2
 791 1050 914 990 914 798 c 3
 914 754 908 686 885 578 c 2
 849 408 l 1
 812 251 729 -26 501 -26 c 2
 483 -26 l 2xac
453 258 m 3
 453 175 467 160 483 160 c 2
 501 160 l 2
 564 160 623 237 667 446 c 2
 703 616 l 2
 722 705 728 762 728 798 c 3
 728 852 717 864 690 864 c 2
 672 864 l 2xac
 639 864 564 820 507 578 c 1
 471 408 l 2
 458 349 453 298 453 258 c 3
EndSplineSet
Validated: 3073
EndChar

StartChar: iacyrillic
Encoding: 1103 1103 359
Width: 922
VWidth: 1947
GlyphClass: 2
Flags: W
HStem: 0 21G<533 727.25> 394 186<516 617> 840 186<377.014 711>
VStem: 124 186<605.702 772.201>
LayerCount: 2
Fore
SplineSet
294 425 m 1
 129 498 124 639 124 668 c 3
 124 689 124 709 130 732 c 2
 136 754 l 2
 179 952 383 1026 538 1026 c 2
 941 1026 l 1
 723 -0 l 1
 660 0 596 0 533 0 c 1
 617 394 l 1
 516 394 l 1
 124 -44 l 1
 -15 80 l 1
 294 425 l 1
711 840 m 1
 538 840 l 2
 424 840 333 786 317 714 c 2
 312 690 l 2
 311 684 310 678 310 672 c 3
 310 618 372 580 444 580 c 2
 656 580 l 1
 711 840 l 1
EndSplineSet
Validated: 3073
EndChar

StartChar: ecyrillic
Encoding: 1108 1108 362
Width: 922
VWidth: 1708
GlyphClass: 2
Flags: W
HStem: -26 186<276.477 500.831> 419 186<294 601> 864 186<420.12 650.498>
VStem: 55 186<192.601 417.79>
CounterMasks: 1 e0
LayerCount: 2
Fore
SplineSet
673 780 m 1
 667 812 646 864 561 864 c 2
 543 864 l 2
 494 864 357 854 294 605 c 1
 601 605 l 1
 601 419 l 1
 254 419 l 1
 247 384 241 355 241 313 c 3
 241 252 278 160 354 160 c 2
 372 160 l 2
 456 160 517 200 561 270 c 1
 718 170 l 1
 638 44 518 -26 372 -26 c 2
 354 -26 l 2
 276 -26 173 15 119 90 c 0
 78 148 55 232 55 313 c 3
 55 360 60 399 70 446 c 2
 106 616 l 2
 161 871 308 1050 543 1050 c 2
 561 1050 l 2
 798 1050 852 838 856 816 c 1
 673 780 l 1
EndSplineSet
Validated: 3073
EndChar

StartChar: numero
Encoding: 8470 8470 372
Width: 922
VWidth: 1947
Flags: W
HStem: -0 21G<-97 97.2814 236 417.243> 486 120<719.577 782.005> 1165 120<828.152 895.885> 1380 20G<198.714 392 519.048 710>
VStem: 598 120<608.672 953.687> 897 120<824.419 1162.48>
LayerCount: 2
Fore
SplineSet
735 486 m 3
 704 486 598 491 598 681 c 3
 598 706.161 605.051 797.605 626.092 902 c 0
 661.08 1075.59 734.749 1285 879 1285 c 3
 879 1285 1017 1281 1017 1090 c 3
 1017 1047 1012 980 990 875 c 0
 951 699 888 486 735 486 c 3
879 1165 m 3
 829.297 1165 775.745 1024.72 744.636 884 c 0
 728.177 809.549 718 734.978 718 681 c 3
 718 641 722 606 735 606 c 3
 762 606 824 682 872 899 c 0
 892 993 897 1052 897 1090 c 3
 897 1132 892 1165 879 1165 c 3
-97 -0 m 1
 203 1400 l 1
 392 1400 l 1
 392 737 l 1
 523 1400 l 1
 710 1400 l 1
 413 0 l 1
 354 0 295 0 236 0 c 1
 236 668 l 1
 93 0 l 1
 30 0 -34 -0 -97 -0 c 1
EndSplineSet
Validated: 3073
EndChar

StartChar: caroncomb
Encoding: 780 780 377
Width: 922
VWidth: 1947
Flags: W
HStem: 1422 246
VStem: 438 493
LayerCount: 2
Fore
SplineSet
666 1558 m 1
 847 1668 l 1
 931 1532 l 1
 750 1422 l 1
 579 1422 l 1
 438 1538 l 1
 540 1662 l 1
 666 1558 l 1
EndSplineSet
Validated: 3073
EndChar

StartChar: gravecomb
Encoding: 768 768 379
Width: 922
VWidth: 2334
Flags: MW
HStem: 1325 395
VStem: 523 368
DStem2: 691 1720 523 1597 0.59239 -0.805651<0 337.189>
LayerCount: 2
Fore
SplineSet
891 1448 m 5
 723 1325 l 5
 523 1597 l 5
 691 1720 l 5
 891 1448 l 5
EndSplineSet
Validated: 3073
EndChar

StartChar: acutecomb
Encoding: 769 769 380
Width: 922
VWidth: 2334
Flags: MW
HStem: 1308 429
VStem: 422 450
DStem2: 422 1465 558 1308 0.755848 0.654747<0 415.427>
LayerCount: 2
Fore
SplineSet
558 1308 m 1
 422 1465 l 1
 736 1737 l 1
 872 1580 l 1
 558 1308 l 1
EndSplineSet
Validated: 3073
EndChar

StartChar: tildecomb
Encoding: 771 771 381
Width: 922
VWidth: 1947
Flags: W
HStem: 1442 160<715.713 876.655> 1532 160<491.367 647.18>
LayerCount: 2
Fore
SplineSet
358 1585 m 2x40
 402 1629 471 1692 575 1692 c 2
 591 1692 l 2x40
 640 1692 694 1671 733 1630 c 2
 749 1612 l 2
 750 1611 759 1602 773 1602 c 2
 790 1602 l 2
 832 1602 862 1630 895 1664 c 2
 917 1687 l 1
 1033 1577 l 1
 1011 1554 l 2
 963 1504 894 1442 790 1442 c 2
 773 1442 l 2x80
 723 1442 667 1463 629 1506 c 2
 615 1522 l 2
 611 1527 602 1532 591 1532 c 2
 575 1532 l 2
 541 1532 514 1513 472 1471 c 2
 446 1445 l 1
 332 1559 l 1
 358 1585 l 2x40
EndSplineSet
Validated: 3073
EndChar

StartChar: hookabovecomb
Encoding: 777 777 382
Width: 922
VWidth: 1947
Flags: W
HStem: 1536 150<518.369 793.853>
VStem: 794 160<1467.37 1529.63>
LayerCount: 2
Fore
SplineSet
545 1272 m 1
 586 1457 l 1
 651 1457 l 2
 784 1457 794 1487 794 1503 c 3
 794 1523 747 1536 709 1536 c 3
 647 1536 594 1527 532 1491 c 1
 456 1618 l 1
 531 1661 605 1686 709 1686 c 3
 772 1686 954 1653 954 1515 c 3
 954 1448 954 1328 716 1309 c 1
 701 1238 l 1
 545 1272 l 1
EndSplineSet
Validated: 3073
EndChar

StartChar: dotbelowcomb
Encoding: 803 803 383
Width: 922
VWidth: 2334
Flags: W
HStem: -409 312<183.52 398.66>
VStem: 136 312<-360.57 -145.43>
LayerCount: 2
Fore
SplineSet
136 -253 m 27
 136 -167 204 -97 291 -97 c 27
 376 -97 448 -167 448 -253 c 27
 448 -339 376 -409 291 -409 c 27
 204 -409 136 -339 136 -253 c 27
EndSplineSet
Validated: 3073
EndChar

StartChar: commaturnedabovecmb
Encoding: 786 786 396
Width: 922
VWidth: 1947
Flags: W
HStem: -491 160<157.015 430.357> -212 240<306 440.991>
VStem: 306 160<-39.7449 28> 441 160<-312.727 -215.658>
LayerCount: 2
Fore
SplineSet
466 28 m 1xe0
 466 -11 l 1xe0
 451 -64 l 1
 549 -90 601 -151 601 -241 c 27
 601 -428 407 -491 302 -491 c 3
 202 -491 116 -450 59 -389 c 1
 175 -279 l 1
 202 -308 246 -331 302 -331 c 3
 371 -331 441 -309 441 -251 c 3xd0
 441 -228 429 -212 349 -212 c 2
 243 -212 l 1
 306 11 l 1
 306 28 l 1
 466 28 l 1xe0
EndSplineSet
Validated: 3073
EndChar

StartChar: Hbar
Encoding: 294 294 400
Width: 922
VWidth: 1947
Flags: W
HStem: 0 21G<-24 168.243 534 726.249> 608 184<332 663> 1078 184<432 763 990 991> 1380 20G<269.652 462 827.652 1020>
LayerCount: 2
Fore
SplineSet
332 792 m 1
 702 792 l 1
 763 1078 l 1
 393 1078 l 1
 332 792 l 1
164 0 m 1
 101 0 39 0 -24 0 c 1
 205 1078 l 1
 166 1078 l 1
 206 1262 l 1
 244 1262 l 1
 274 1400 l 1
 462 1400 l 1
 432 1262 l 1
 802 1262 l 1
 832 1400 l 1
 1020 1400 l 1
 990 1262 l 1
 1031 1262 l 1
 991 1078 l 1
 951 1078 l 1
 722 0 l 1
 659 0 597 0 534 0 c 1
 663 608 l 1
 293 608 l 1
 164 0 l 1
EndSplineSet
Validated: 3073
EndChar

StartChar: hbar
Encoding: 295 295 401
Width: 922
VWidth: 1947
Flags: W
HStem: 0 21G<-24 168.256 534 726.252> 865 184<446.463 682.671> 1188 184<227 228 456 673> 1380 20G<269.714 462>
VStem: 692 184<641.942 848.91>
LayerCount: 2
Fore
SplineSet
227 1372 m 1
 268 1372 l 1
 274 1400 l 1
 462 1400 l 1
 456 1372 l 1
 712 1372 l 1
 673 1188 l 1
 417 1188 l 1
 376 997 l 1
 428 1029 484 1049 543 1049 c 2
 561 1049 l 2
 598 1049 632 1046 665 1039 c 0
 859 997 875 791 876 773 c 3
 876 739 871 700 864 668 c 2
 722 0 l 1
 534 0 l 1
 684 706 l 2
 690 732 692 747 692 773 c 27
 692 816 692 844 625 859 c 0
 608 863 587 865 561 865 c 2
 543 865 l 2
 446 865 310 687 287 578 c 2
 164 -0 l 1
 101 0 39 0 -24 0 c 1
 228 1188 l 1
 188 1188 l 1
 227 1372 l 1
EndSplineSet
Validated: 3073
EndChar

StartChar: IJ
Encoding: 306 306 410
Width: 922
VWidth: 1947
Flags: W
HStem: 0 185<-31 104 294 449> 244 186<446 524.824> 1215 185<225 322 512 701 891 1028>
LayerCount: 2
Fore
SplineSet
488 185 m 1
 449 0 l 1
 -70 0 l 1
 -31 185 l 1
 104 185 l 1
 322 1215 l 1
 186 1215 l 1
 225 1400 l 1
 1068 1400 l 1
 1028 1215 l 1
 891 1215 l 1
 756 578 l 2
 747 534 725 441 678 366 c 0
 606 250 500 244 475 244 c 2
 407 244 l 1
 446 430 l 1
 475 430 l 2
 488 430 502 436 521 466 c 0
 539 495 559 545 574 616 c 2
 701 1215 l 1
 512 1215 l 1
 294 185 l 1
 488 185 l 1
EndSplineSet
Validated: 3073
EndChar

StartChar: Tbar
Encoding: 358 358 430
Width: 922
VWidth: 1947
Flags: W
HStem: -0 21G<255 447.273> 468 184<97 354 582 840> 1216 184<255 513 702 999>
LayerCount: 2
Fore
SplineSet
255 1400 m 1
 1038 1400 l 1
 999 1216 l 1
 702 1216 l 1
 582 652 l 1
 879 652 l 1
 840 468 l 1
 543 468 l 1
 443 -0 l 1
 380 0 318 0 255 -0 c 1
 354 468 l 1
 58 468 l 1
 97 652 l 1
 394 652 l 1
 513 1216 l 1
 217 1216 l 1
 255 1400 l 1
EndSplineSet
Validated: 3073
EndChar

StartChar: tbar
Encoding: 359 359 431
Width: 922
VWidth: 1947
Flags: W
HStem: -25 184<392.588 544.255> 468 184<118 253 481 839> 824 184<193 330 557 803> 1405 20G<454.683 647>
VStem: 203 184<162.516 299.795>
LayerCount: 2
Fore
SplineSet
768 227 m 1
 740 105 601 -25 459 -25 c 2
 441 -25 l 2
 308 -25 203 90 203 214 c 3
 203 233 206 250 210 267 c 2
 253 468 l 1
 78 468 l 1
 118 652 l 1
 293 652 l 1
 330 824 l 1
 154 824 l 1
 193 1008 l 1
 369 1008 l 1
 459 1425 l 1
 647 1425 l 1
 557 1008 l 1
 842 1008 l 1
 803 824 l 1
 518 824 l 1
 481 652 l 1
 879 652 l 1
 839 468 l 1
 441 468 l 1
 392 239 l 2
 390 229 387 211 387 204 c 3
 387 187 411 159 441 159 c 2
 464 159 l 2
 514 159 573 214 588 267 c 1
 768 227 l 1
EndSplineSet
Validated: 3073
EndChar

StartChar: A
Encoding: 65 65 461
Width: 922
VWidth: 1708
Flags: W
HStem: 0 21G<-48 160.621 558.828 743> 232 184<331 556> 1405 20G<554.425 732.154>
VStem: 559 184<0 232 416 931>
LayerCount: 2
Fore
SplineSet
331 416 m 1
 556 416 l 1
 552 931 l 1
 331 416 l 1
152 -0 m 1
 -48 0 l 1
 563 1425 l 1
 732 1425 l 1
 743 0 l 1
 682 0 621 0 559 0 c 1
 557 232 l 1
 252 232 l 1
 152 -0 l 1
EndSplineSet
Validated: 3073
EndChar

StartChar: Lambda
Encoding: 923 923 462
Width: 922
VWidth: 1708
Flags: W
HStem: -0 21G<-52 159.621 558.828 745> 1406 20G<553.388 733.168>
VStem: 559 186<0 928>
LayerCount: 2
Fore
SplineSet
151 0 m 1
 83 0 16 0 -52 -0 c 1
 562 1426 l 1
 733 1426 l 1
 745 -0 l 1
 683 0 621 0 559 -0 c 1
 551 928 l 1
 151 0 l 1
EndSplineSet
Validated: 3073
EndChar

StartChar: Delta
Encoding: 916 916 463
Width: 922
VWidth: 1708
Flags: W
HStem: -0 185<230 554> 1406 20G<553.388 733.126>
VStem: 554 188<185 926>
LayerCount: 2
Fore
SplineSet
554 185 m 1
 550 926 l 1
 230 185 l 1
 554 185 l 1
742 -0 m 1
 -52 -0 l 1
 562 1426 l 1
 733 1426 l 1
 742 -0 l 1
EndSplineSet
Validated: 3073
EndChar

StartChar: Theta
Encoding: 920 920 464
Width: 922
VWidth: 1947
Flags: W
HStem: -26 186<281.142 490.729> 606 186<403 596> 1240 186<518.793 715.324>
VStem: 70 186<176.888 683.797> 740 186<716.438 1219.13>
LayerCount: 2
Fore
SplineSet
926 1052 m 3
 926 988 922 888 888 730 c 2
 865 625 l 2
 807 352 654 -26 363 -26 c 3
 243 -26 174 -12 106 139 c 0
 97 157 70 223 70 349 c 3
 70 413 77 512 108 670 c 2
 128 767 l 2
 189 1033 309 1426 632 1426 c 27
 751 1426 834 1400 890 1262 c 0
 898 1243 926 1137 926 1052 c 3
632 1240 m 3
 503 1240 396 1104 310 727 c 2
 290 632 l 2
 262 492 256 405 256 349 c 3
 256 329 261 246 276 212 c 0
 300 161 324 160 363 160 c 3
 522 160 605 297 684 665 c 2
 706 767 l 2
 736 908 740 995 740 1052 c 3
 740 1072 740 1139 720 1188 c 0
 705 1224 663 1240 632 1240 c 3
645 792 m 1
 596 606 l 1
 354 606 l 1
 403 792 l 1
 645 792 l 1
EndSplineSet
Validated: 3073
EndChar

StartChar: Xi
Encoding: 926 926 465
Width: 922
VWidth: 1708
Flags: W
HStem: 0 336<46 205 605 723> 0 185<205 573> 607 186<309 687> 1050 350<273 388 791 946> 1215 185<423 791>
LayerCount: 2
Fore
SplineSet
687 793 m 1x20
 687 607 l 1
 309 607 l 1
 309 793 l 1
 687 793 l 1x20
205 185 m 1x60
 573 185 l 1x60
 605 336 l 1
 795 336 l 1
 723 0 l 1xa0
 -25 0 l 1x60
 46 336 l 1
 237 336 l 1xa0
 205 185 l 1x60
388 1050 m 1x30
 198 1050 l 1
 273 1400 l 1x30
 1021 1400 l 1x28
 946 1050 l 1
 756 1050 l 1x30
 791 1215 l 1
 423 1215 l 1x28
 388 1050 l 1x30
EndSplineSet
Validated: 3073
EndChar

StartChar: Sigma
Encoding: 931 931 468
Width: 922
VWidth: 1947
Flags: W
HStem: -25 185<233 717> 1215 185<443 980>
LayerCount: 2
Fore
SplineSet
276 1400 m 1
 1020 1400 l 1
 980 1215 l 1
 443 1215 l 1
 601 685 l 1
 233 160 l 1
 756 160 l 1
 717 -25 l 1
 -27 -25 l 1
 15 174 l 1
 397 719 l 1
 242 1239 l 1
 276 1400 l 1
EndSplineSet
Validated: 3073
EndChar

StartChar: Psi
Encoding: 936 936 473
Width: 922
VWidth: 1947
Flags: W
HStem: -24 21G<246 440.289> 419 186<291.066 341 571 664.397> 1406 20G<552.713 747>
VStem: 101 186<608.12 741.056>
LayerCount: 2
Fore
SplineSet
436 -24 m 1
 246 -24 l 1
 341 419 l 1
 203 419 101 531 101 662 c 3
 101 684 104 700 107 716 c 2
 241 1334 l 1
 432 1334 l 1
 289 676 l 2
 288 672 287 668 287 662 c 3
 287 627 312 605 343 605 c 2
 381 605 l 1
 557 1426 l 1
 747 1426 l 1
 571 605 l 1
 573 605 l 2
 634 605 691 652 705 716 c 2
 839 1334 l 1
 1030 1334 l 1
 887 676 l 2
 857 537 730 419 573 419 c 2
 531 419 l 1
 436 -24 l 1
EndSplineSet
Validated: 3073
EndChar

StartChar: Omega
Encoding: 937 937 474
Width: 922
VWidth: 1947
Flags: W
HStem: 0 185<17 123 654 720> 1240 186<461.216 728.418>
VStem: 112 186<419.204 875.585> 754 186<794.588 1214.61>
LayerCount: 2
Fore
SplineSet
754 1082 m 3
 754 1203 710 1240 632 1240 c 27
 427 1240 405 1176 327 811 c 0
 303 698 298 627 298 581 c 3
 298 499 315 454 332 432 c 2
 358 398 l 1
 275 0 l 1
 -22 0 l 1
 17 185 l 1
 123 185 l 1
 159 357 l 1
 120 430 112 515 112 581 c 3
 112 635 117 717 145 849 c 0
 204 1128 338 1426 632 1426 c 27
 812 1426 940 1400 940 1082 c 3
 940 966 887 527 684 327 c 1
 654 185 l 1
 759 185 l 1
 720 0 l 1
 424 0 l 1
 515 425 l 1
 539 446 l 2
 697 580 754 974 754 1082 c 3
EndSplineSet
Validated: 3073
EndChar

StartChar: alpha
Encoding: 945 945 483
Width: 922
VWidth: 1947
Flags: W
HStem: -26 186<245.482 417.533> 0 21G<577.81 764> 863 186<410.497 566.862>
VStem: 52 186<165.161 582.434> 578 186<0 105>
LayerCount: 2
Fore
SplineSet
238 309 m 3xb8
 238 178 248 160 313 160 c 27
 380 160 428 200 454 260 c 2
 572 533 l 1
 569 799 l 2
 569 843 553 863 502 863 c 3
 344 863 238 523 238 309 c 3xb8
52 309 m 3
 52 548 172 1049 502 1049 c 3
 613 1049 698 996 735 908 c 1
 801 1061 l 1
 971 987 l 1
 758 496 l 1
 764 0 l 1
 578 0 l 1x78
 577 105 l 1
 516 25 428 -26 313 -26 c 3
 120 -26 52 12 52 309 c 3
EndSplineSet
Validated: 3073
EndChar

StartChar: beta
Encoding: 946 946 484
Width: 922
VWidth: 2334
Flags: W
HStem: -26 186<227.26 553.528> 456 186<406 619.259> 864 186<393.342 678.7>
VStem: 628 186<236.802 443.068> 686 186<700.915 847.612>
LayerCount: 2
Fore
SplineSet
686 794 m 3xe8
 686 859 579 864 547 864 c 2
 543 864 l 2
 401 864 335 798 307 668 c 2
 223 272 l 1
 223 271 l 1
 220 257 219 246 219 236 c 3
 219 168 305 160 354 160 c 2
 392 160 l 2
 497 160 594 195 618 310 c 2
 625 344 l 2
 628 357 628 368 628 378 c 3xf0
 628 456 536 456 494 456 c 2
 406 456 l 1
 406 642 l 1
 461 642 l 2
 631 642 686 733 686 794 c 3xe8
354 -26 m 2
 295 -26 237 -22 168 12 c 1
 97 -318 l 1
 -93 -318 l 1
 125 706 l 2
 142 784 209 1050 543 1050 c 2
 547 1050 l 2
 604 1050 633 1048 686 1031 c 0
 809 992 872 899 872 794 c 3xe8
 872 767 867 643 752 549 c 1
 794 503 814 443 814 378 c 3
 814 354 812 330 807 306 c 2
 800 272 l 2
 763 93 617 -26 392 -26 c 2
 354 -26 l 2
EndSplineSet
Validated: 3073
EndChar

StartChar: gamma
Encoding: 947 947 485
Width: 922
VWidth: 2334
Flags: W
HStem: -384 21G<172 366.35> 1003 20G<193 381.583 732.855 951>
LayerCount: 2
Fore
SplineSet
172 -384 m 1
 270 68 l 1
 193 1023 l 1
 380 1023 l 1
 429 404 l 1
 743 1023 l 1
 951 1023 l 1
 454 39 l 1
 362 -384 l 1
 172 -384 l 1
EndSplineSet
Validated: 3073
EndChar

StartChar: delta
Encoding: 948 948 486
Width: 922
VWidth: 1947
Flags: W
HStem: -26 186<271.308 501.713> 1215 185<558 887>
VStem: 55 186<184.97 567.781> 678 186<470.828 841.534>
LayerCount: 2
Fore
SplineSet
678 730 m 3
 678 851 602 864 561 864 c 2
 543 864 l 2
 493 864 347 854 288 578 c 2
 252 408 l 2
 244 372 241 340 241 313 c 3
 241 181 317 160 354 160 c 2
 372 160 l 2
 423 160 569 170 628 446 c 2
 664 616 l 2
 673 659 678 698 678 730 c 3
297 1400 m 1
 926 1400 l 1
 887 1215 l 1
 558 1215 l 1
 780 968 l 1
 844 903 864 814 864 730 c 3
 864 682 857 632 846 578 c 2
 810 408 l 2
 755 149 606 -26 372 -26 c 2
 354 -26 l 2
 307 -26 195 -17 119 90 c 0
 68 161 55 246 55 313 c 3
 55 355 60 399 70 446 c 2
 106 616 l 2
 154 841 275 1007 463 1043 c 1
 267 1260 l 1
 297 1400 l 1
EndSplineSet
Validated: 3073
EndChar

StartChar: epsilon
Encoding: 949 949 487
Width: 922
VWidth: 2334
Flags: W
HStem: -26 186<235.127 543.246> 440 186<322.963 586> 864 186<384.106 700.856>
VStem: 34 187<174.148 360.453> 128 186<641.457 795.134>
LayerCount: 2
Fore
SplineSet
581 864 m 2xe8
 543 864 l 2
 446 864 346 833 319 720 c 2
 317 712 l 2
 315 703 314 696 314 691 c 3xe8
 314 675 326 650 368 637 c 0
 389 631 418 626 457 626 c 2
 635 626 l 1
 586 440 l 1
 457 440 l 2
 294 440 232 323 228 299 c 2
 225 282 l 2
 222 267 221 251 221 239 c 3
 221 223 235 178 285 167 c 0
 303 163 326 160 354 160 c 2
 392 160 l 2
 475 160 521 178 565 222 c 1
 697 90 l 1
 625 18 537 -26 392 -26 c 2
 354 -26 l 2
 314 -26 278 -23 243 -14 c 0
 73 28 34 177 34 239 c 3xf0
 34 259 37 289 40 306 c 2
 45 328 l 2
 54 380 81 468 184 538 c 1
 132 599 128 677 128 691 c 3
 128 707 131 732 135 752 c 2
 137 762 l 2
 178 932 323 1050 543 1050 c 2
 581 1050 l 2
 637 1050 688 1040 732 1023 c 0
 805 995 853 932 867 910 c 1
 701 826 l 1
 698 831 690 841 665 851 c 0
 646 858 618 864 581 864 c 2xe8
EndSplineSet
Validated: 3073
EndChar

StartChar: zeta
Encoding: 950 950 488
Width: 922
VWidth: 2334
Flags: W
HStem: -387 186<306 461.72> -26 186<235.765 512.827>
VStem: 39 186<176.159 373.92> 516 187<-133 -39.3399>
LayerCount: 2
Fore
SplineSet
453 -33 m 0
 421 -27 400 -26 372 -26 c 2
 354 -26 l 2
 325 -26 297 -25 271 -20 c 0
 73 16 39 152 39 249 c 3
 39 283 44 321 51 356 c 2
 55 376 l 2
 87 530 217 632 337 706 c 2
 574 853 l 2
 583 859 588 862 599 869 c 1
 529 891 464 928 412 989 c 1
 554 1109 l 1
 602 1052 691 1023 826 1023 c 2
 938 1023 l 1
 907 881 l 1
 892 866 l 2
 826 800 751 744 672 695 c 2
 435 548 l 2
 310 470 251 404 237 338 c 2
 233 318 l 2
 230 305 225 276 225 249 c 3
 225 207 242 174 301 164 c 0
 316 161 334 160 354 160 c 2
 372 160 l 2
 416 160 443 159 489 150 c 0
 619 125 703 45 703 -71 c 0
 703 -79 700 -107 698 -116 c 2
 695 -133 l 2
 688 -173 681 -188 664 -221 c 0
 629 -288 581 -320 555 -335 c 0
 511 -360 439 -387 297 -387 c 2
 266 -387 l 1
 306 -201 l 1
 390 -201 436 -188 463 -173 c 0
 478 -165 504 -146 513 -95 c 2
 516 -78 l 2
 516 -76 516 -75 516 -73 c 3
 516 -60 507 -44 453 -33 c 0
EndSplineSet
Validated: 3073
EndChar

StartChar: eta
Encoding: 951 951 489
Width: 922
VWidth: 2334
Flags: W
HStem: 0 21G<-25 169.256> 864 186<446.641 683.207> 1003 20G<188.738 382>
VStem: 692 186<640.982 848.391>
LayerCount: 2
Fore
SplineSet
165 -0 m 1xd0
 -25 0 l 1
 193 1023 l 1
 382 1023 l 1xb0
 377 999 l 1
 428 1031 484 1050 543 1050 c 2
 561 1050 l 2
 598 1050 632 1047 665 1040 c 0
 865 997 878 801 878 773 c 3
 878 743 873 704 865 668 c 2
 641 -387 l 1
 451 -387 l 1
 683 706 l 2
 686 719 692 747 692 773 c 3
 692 815 686 843 625 858 c 0
 608 862 587 864 561 864 c 2
 543 864 l 2
 447 864 311 686 288 578 c 2
 165 -0 l 1xd0
EndSplineSet
Validated: 3073
EndChar

StartChar: theta
Encoding: 952 952 490
Width: 922
VWidth: 1947
Flags: W
HStem: -26 186<271.138 501.256> 419 186<294 622> 864 186<420.12 655.852>
VStem: 55 186<192.487 418.275> 678 186<605.336 847.631>
CounterMasks: 1 e0
LayerCount: 2
Fore
SplineSet
543 1050 m 2
 561 1050 l 2
 593 1050 790 1042 847 853 c 0
 859 814 864 773 864 730 c 3
 864 682 857 632 846 578 c 2
 810 408 l 2
 755 149 606 -26 372 -26 c 2
 354 -26 l 2
 315 -26 190 -8 119 90 c 0
 67 161 55 246 55 313 c 3
 55 355 60 399 70 446 c 2
 106 616 l 2
 161 871 308 1050 543 1050 c 2
294 605 m 1
 662 605 l 1
 664 616 l 2
 673 659 678 698 678 730 c 3
 678 759 674 781 669 798 c 0
 650 861 593 864 561 864 c 2
 543 864 l 2
 494 864 357 854 294 605 c 1
622 419 m 1
 254 419 l 1
 252 408 l 2
 244 372 241 340 241 313 c 3
 241 257 254 221 270 199 c 0
 294 166 336 160 354 160 c 2
 372 160 l 2
 421 160 560 169 622 419 c 1
EndSplineSet
Validated: 3073
EndChar

StartChar: lambda
Encoding: 955 955 491
Width: 922
VWidth: 2334
Flags: W
HStem: 0 21G<-37 181.145 534.352 722> 1390 20G<424 612.574>
LayerCount: 2
Fore
SplineSet
-37 0 m 5
 458 976 l 5
 424 1410 l 5
 611 1410 l 5
 722 0 l 5
 660 0 598 0 536 -0 c 5
 485 619 l 5
 171 0 l 5
 -37 0 l 5
EndSplineSet
Validated: 3073
EndChar

StartChar: xi
Encoding: 958 958 494
Width: 922
VWidth: 2334
Flags: W
HStem: -387 186<305 453.407> -26 186<228.059 512.349> 440 186<321.814 627>
VStem: 34 186<173.878 364.274> 128 186<641.996 805.862> 515 188<-146.111 -37.7407>
LayerCount: 2
Fore
SplineSet
43 328 m 2xf4
 58 411 99 477 184 538 c 1
 136 596 128 646 128 691 c 3
 128 712 130 731 135 752 c 2
 138 764 l 2
 180 951 312 1017 442 1063 c 1
 407 1088 377 1119 349 1157 c 1
 499 1267 l 1
 548 1199 610 1175 721 1170 c 2
 875 1163 l 1
 852 1054 l 1
 768 999 l 2
 567 867 361 910 319 722 c 2
 317 712 l 2
 315 705 314 697 314 691 c 3xec
 314 671 337 626 457 626 c 2
 666 626 l 1
 627 440 l 1
 457 440 l 2
 282 440 230 322 226 299 c 2
 223 282 l 2
 220 265 220 247 220 239 c 3xf4
 220 198 245 175 285 167 c 0
 303 163 326 160 354 160 c 2
 392 160 l 2
 540 160 649 50 675 13 c 0
 691 -10 703 -46 703 -76 c 3
 703 -85 702 -100 700 -108 c 2
 693 -139 l 2
 689 -156 675 -205 636 -248 c 0
 553 -341 412 -387 314 -387 c 2
 266 -387 l 1
 305 -201 l 1
 314 -201 l 2xec
 385 -201 499 -143 510 -105 c 2
 513 -95 l 2
 514 -90 515 -81 515 -78 c 3
 515 -42 443 -26 392 -26 c 2
 354 -26 l 2
 314 -26 278 -22 243 -14 c 0
 80 24 34 133 34 239 c 3
 34 255 37 298 41 318 c 2
 43 328 l 2xf4
EndSplineSet
Validated: 3073
EndChar

StartChar: pi
Encoding: 960 960 496
Width: 922
VWidth: 2334
Flags: W
HStem: -0 21G<5 240.5 482.5 673> 839 186<433 621>
VStem: 478 186<0 350.938>
LayerCount: 2
Fore
SplineSet
672 181 m 2
 665 148 664 112 664 95 c 3
 664 84 665.333 36.6667 673 0 c 1
 610 0 548 0 485 0 c 1
 480 32.6667 478 68.6582 478 95 c 3
 478 140.71 482 180 490 219 c 2
 621 839 l 1
 433 839 l 1
 294 180 l 2
 282 126 257 62 224 -0 c 1
 151 0 78 0 5 -0 c 1
 52 65 98 158 112 220 c 2
 238 813 l 1
 198 796 165 772 136 746 c 1
 189 994 l 1
 243 1014 304 1025 378 1025 c 2
 716 1025 l 2
 810 1025 897 1054 957 1117 c 1
 905 869 l 1
 876 859 845 851 813 846 c 1
 672 181 l 2
EndSplineSet
Validated: 3073
EndChar

StartChar: rho
Encoding: 961 961 497
Width: 922
VWidth: 2334
Flags: W
HStem: -384 21G<-106 87.2439> -26 186<257.928 502.439> 864 186<412.814 644.86>
VStem: 675 186<456.219 831.431>
LayerCount: 2
Fore
SplineSet
628 446 m 2
 664 616 l 2
 671 651 675 683 675 710 c 3
 675 755 662 803 646 825 c 0
 622 858 577 864 561 864 c 2
 543 864 l 2
 390 864 320 727 288 578 c 2
 252 408 l 2
 243 364 238 326 238 294 c 3
 238 265 242 242 247 225 c 0
 261 180 306 160 354 160 c 2
 372 160 l 2
 425 160 569 171 628 446 c 2
372 -26 m 2
 354 -26 l 2
 309 -26 229 -16 170 26 c 1
 83 -384 l 1
 -106 -384 l 1
 106 616 l 2
 162 875 309 1050 543 1050 c 2
 561 1050 l 2
 600 1050 720 1035 796 934 c 0
 841 874 861 786 861 710 c 3
 861 668 856 625 846 578 c 2
 810 408 l 2
 755 152 603 -26 372 -26 c 2
EndSplineSet
Validated: 3073
EndChar

StartChar: sigmafinal
Encoding: 962 962 498
Width: 922
VWidth: 2334
Flags: W
HStem: -387 186<306 469.797> -26 186<270.992 516.188> 864 186<463.916 836.086>
VStem: 55 186<191.127 567.781> 517 186<-154.352 -39.1025>
LayerCount: 2
Fore
SplineSet
790 831 m 2
 732 854 679 864 629 864 c 3
 458 864 323 744 288 578 c 2
 252 408 l 2
 244 372 241 342 241 313 c 3
 241 267 244 235 270 199 c 0
 291 169 322 160 354 160 c 2
 372 160 l 2
 560 160 657 87 694 -16 c 0
 701 -35 703 -57 703 -73 c 3
 703 -84 701 -103 699 -113 c 2
 695 -131 l 2
 660 -301 507 -387 304 -387 c 2
 267 -387 l 1
 306 -201 l 1
 394 -201 495 -177 513 -91 c 2
 516 -79 l 2
 517 -76 517 -73 517 -69 c 3
 517 -55 476 -26 372 -26 c 2
 354 -26 l 2
 260 -26 172 15 119 90 c 0
 74 154 55 223 55 313 c 3
 55 350 60 399 70 446 c 2
 106 616 l 2
 159 867 368 1050 629 1050 c 3
 704 1050 782 1034 860 1003 c 2
 897 988 l 1
 827 816 l 1
 790 831 l 2
EndSplineSet
Validated: 3073
EndChar

StartChar: sigma
Encoding: 963 963 499
Width: 922
VWidth: 1947
Flags: W
HStem: -26 186<270.853 501.713> 839 187<851 928> 864 186<420.12 658.955>
VStem: 55 186<190.702 567.781> 678 186<470.828 838.176>
LayerCount: 2
Fore
SplineSet
543 1050 m 2xb8
 561 1050 l 2xb8
 581 1050 619 1047 638 1043 c 0
 660 1038 677 1034 695 1026 c 1
 968 1026 l 1
 928 839 l 1
 851 839 l 1xd8
 858 814 864 768 864 730 c 3
 864 682 857 632 846 578 c 2
 810 408 l 2
 755 149 606 -26 372 -26 c 2
 354 -26 l 2
 275 -26 184 0 119 90 c 0
 68 161 55 246 55 313 c 3
 55 355 60 399 70 446 c 2
 106 616 l 2
 161 871 308 1050 543 1050 c 2xb8
288 578 m 2
 252 408 l 2
 244 372 241 340 241 313 c 3
 241 257 255 222 270 199 c 0
 288 172 319 160 354 160 c 2
 372 160 l 2
 423 160 569 170 628 446 c 2
 664 616 l 2
 673 659 678 698 678 730 c 3
 678 828 639 849 601 860 c 0
 591 863 575 864 561 864 c 2
 543 864 l 2
 492 864 347 854 288 578 c 2
EndSplineSet
Validated: 3073
EndChar

StartChar: tau
Encoding: 964 964 500
Width: 922
VWidth: 2334
Flags: W
HStem: -0 21G<176 425> 839 184<202.292 432 622 879.564>
LayerCount: 2
Fore
SplineSet
378 1023 m 2
 716 1023 l 2
 808 1023 898 1064 959 1126 c 1
 905 869 l 1
 847 848 783 839 716 839 c 2
 622 839 l 1
 483 180 l 2
 470 119 442 57 408 -0 c 1
 176 -0 l 1
 231 57 284 141 301 220 c 2
 432 839 l 1
 378 839 l 2
 258 839 192 796 136 746 c 1
 189 994 l 1
 243 1014 305 1023 378 1023 c 2
EndSplineSet
Validated: 3073
EndChar

StartChar: upsilon
Encoding: 965 965 501
Width: 922
VWidth: 1947
Flags: W
HStem: -26 186<265.619 500.42> 1024 4G<188.732 383 636.892 702>
VStem: 61 186<175.39 593.438> 687 186<481.438 858.722>
LayerCount: 2
Fore
SplineSet
270 494 m 2
 251 403 247 381.705 247 309 c 27
 247 273.976 248 253 259 220 c 0
 267 197 279 173 321 164 c 0
 332 162 346 160 363 160 c 3
 488.485 160 589.942 247.875 632.299 438 c 2
 668.835 602 l 2
 685.278 673.843 687 724.444 687 760 c 3
 687 857 662 863 622 863 c 0
 616 863 609 863 603 863 c 1
 641 1048 l 1
 763 1041 873 968 873 760 c 3
 873 705.578 863.467 620.423 850.623 561 c 2
 813.879 391 l 2
 758.741 149.07 604.215 -26 363 -26 c 3
 335 -26 308 -24 282 -18 c 0
 197 0 118 53 82 160 c 0
 63 216 61 250.315 61 309 c 27
 61 396.605 79 488 88 532 c 2
 193 1024 l 1
 383 1024 l 1
 270 494 l 2
EndSplineSet
Validated: 3073
EndChar

StartChar: phi
Encoding: 966 966 502
Width: 922
VWidth: 1947
Flags: W
HStem: 863 186<642.815 720.496>
VStem: 18 186<203.24 624.594> 724 186<469.781 862.109>
LayerCount: 2
Fore
SplineSet
696 863 m 3
 679 863 628 836 589 683 c 1
 484 187 l 1
 574 229 646 321 676 455 c 2
 712 614 l 2
 723 662 724 708 724 752 c 3
 724 854 709 863 696 863 c 3
407 721 m 1
 427 801 452 890 523 966 c 0
 596 1044 621 1049 696 1049 c 3
 727 1049 778 1039 804 1018 c 0
 890 951 910 839 910 752 c 3
 910 704 908 642 893 574 c 2
 858 415 l 2
 805 176 642 13 440 -20 c 1
 362 -387 l 1
 172 -387 l 1
 252 -11 l 1
 104 33 18 167 18 358 c 0
 18 413 25 471 38 532 c 2
 129 957 l 1
 319 957 l 1
 220 494 l 2
 209 444 204 398 204 358 c 0
 204 252 237 196 291 173 c 1
 407 721 l 1
EndSplineSet
Validated: 3073
EndChar

StartChar: chi
Encoding: 967 967 503
Width: 922
VWidth: 2062
Flags: W
HStem: 1003 20G<174 423 711.341 939>
LayerCount: 2
Fore
SplineSet
-100 -387 m 1
 310 315 l 1
 301 605 302 881 174 1023 c 1
 396 1023 l 1
 450 906 473 764 484 613 c 1
 723 1023 l 1
 939 1023 l 1
 498 268 l 1
 507 4 528 -245 667 -387 c 1
 438 -387 l 1
 379 -279 348 -152 331 -17 c 1
 116 -387 l 1
 -100 -387 l 1
EndSplineSet
Validated: 3073
EndChar

StartChar: psi
Encoding: 968 968 504
Width: 922
VWidth: 1947
Flags: W
HStem: 1027 20G<471.767 667>
VStem: 18 186<203.24 624.594>
LayerCount: 2
Fore
SplineSet
172 -387 m 1
 252 -11 l 1
 104 33 18 167 18 358 c 0
 18 413 25 471 38 532 c 2
 128 957 l 1
 318 957 l 1
 220 494 l 2
 209 443 204 397 204 358 c 0
 204 252 237 196 291 173 c 1
 476 1047 l 1
 667 1047 l 1
 484 190 l 1
 604 254 669 406 696 532 c 2
 786 957 l 1
 976 957 l 1
 878 494 l 2
 822 228 667 19 440 -20 c 1
 362 -387 l 1
 172 -387 l 1
EndSplineSet
Validated: 3073
EndChar

StartChar: omega
Encoding: 969 969 505
Width: 922
VWidth: 2334
Flags: W
HStem: -26 186<188.307 287.794 488.762 583.327> 1003 20G<186 449 708 911>
VStem: 0 185<160.961 493.266> 738 186<567.977 1020.78>
LayerCount: 2
Fore
SplineSet
270 683 m 2
 192 317 l 2
 187 295 185 266 185 247 c 3
 185 186 201 160 211 160 c 2
 222 160 l 2
 275 160 300 216 311 266 c 2
 408 700 l 1
 596 700 l 1
 493 228 l 2
 491 221 488 205 488 190 c 3
 488 170 488 160 522 160 c 2
 532 160 l 2
 540 161 552 166 572 188 c 0
 603 223 633 281 649 356 c 2
 726 721 l 2
 734 757 738 794 738 841 c 27
 738 913 721 994 708 1023 c 1
 903 1023 l 1
 919 958 924 891 924 841 c 3
 924 788 919 734 908 683 c 2
 831 318 l 2
 812 232 772 135 711 64 c 0
 655 -2 586 -26 532 -26 c 2
 522 -26 l 2
 461 -26 410 -8 372 25 c 1
 323 -17 246 -26 200 -26 c 2
 190 -26 l 2
 136 -26 89 0 56 44 c 0
 5 112 0 165 0 247 c 27
 0 289 3 319 10 355 c 2
 88 721 l 2
 109 820 157 931 215 1023 c 1
 449 1023 l 1
 385 961 298 812 270 683 c 2
EndSplineSet
Validated: 3073
EndChar

StartChar: dieresiscmb
Encoding: 776 776 508
Width: 922
VWidth: 1947
Flags: W
HStem: 1212 304<295.56 497.963 786.81 986.125>
VStem: 249 295<1258.75 1471.12> 740 292<1258.36 1473.17>
LayerCount: 2
Fore
SplineSet
544 1367 m 0
 544 1285 477 1212 397 1212 c 0
 317 1212 249 1281 249 1367 c 0
 249 1458 321 1516 395 1516 c 0
 480 1516 544 1446 544 1367 c 0
1032 1367 m 0
 1032 1277 961 1212 887 1212 c 0
 809 1212 740 1282 740 1367 c 0
 740 1452 809 1516 887 1516 c 0
 958 1516 1032 1458 1032 1367 c 0
EndSplineSet
Validated: 3073
EndChar

StartChar: Djecyrillic
Encoding: 1026 1026 512
Width: 922
VWidth: 2334
Flags: W
HStem: 0 185<515 594.741> 794 186<589.888 713.588> 1215 185<258 413 603 889>
VStem: 719 186<643.877 791.411>
LayerCount: 2
Fore
SplineSet
154 0 m 1
 413 1215 l 1
 218 1215 l 1
 258 1400 l 1
 929 1400 l 1
 889 1215 l 1
 603 1215 l 1
 546 945 l 1
 571 959 614 980 659 980 c 2
 677 980 l 2
 811 980 905 895 905 753 c 3
 905 726 901 698 895 668 c 2
 820 317 l 2
 811 278 776 167 751 125 c 0
 728 87 664 0 533 0 c 2
 515 0 l 1
 515 185 l 1
 533 185 l 2
 575 185 608 214 638 355 c 2
 713 706 l 2
 716 719 719 742 719 753 c 3
 719 788 711 794 677 794 c 2
 661 794 l 2
 647 794 506 750 430 398 c 2
 344 0 l 1
 154 0 l 1
EndSplineSet
Validated: 3073
EndChar

StartChar: Ljecyrillic
Encoding: 1033 1033 513
Width: 922
VWidth: 1947
Flags: W
HStem: 0 187<495 624.04> 672 184<637 704.512> 1380 20G<478.5 753>
VStem: 720 186<340.671 660.155>
LayerCount: 2
Fore
SplineSet
598 672 m 1
 495 187 l 1
 617 187 656 248 679 356 c 2
 712 514 l 2
 715 527 720 556 720 583 c 3
 720 632 702 672 598 672 c 1
249 1102 m 2
 271 1174 306 1278 405 1362 c 0
 425 1379 458 1400 499 1400 c 2
 753 1400 l 1
 637 856 l 1
 862 856 906 692 906 583 c 3
 906 541 902 513 894 476 c 2
 861 318 l 2
 811 85 670 0 448 0 c 2
 265 0 l 1
 523 1215 l 1
 520 1215 l 1
 502 1197 461 1145 427 1048 c 1
 113 0 l 1
 -81 0 l 1
 249 1102 l 2
EndSplineSet
Validated: 3073
EndChar

StartChar: Njecyrillic
Encoding: 1034 1034 514
Width: 922
VWidth: 1947
Flags: W
HStem: 0 187<495 624.04> 672 186<296 408 637 706.594> 1380 20G<217.7 413 557.756 752>
VStem: 720 186<340.671 661.452>
LayerCount: 2
Fore
SplineSet
598 672 m 1
 495 187 l 1
 618 187 656 248 679 356 c 2
 712 514 l 2
 715 527 720 556 720 583 c 3
 720 658 682 672 598 672 c 1
111 0 m 1
 -79 0 l 1
 222 1400 l 1
 413 1400 l 1
 296 858 l 1
 447 858 l 1
 562 1400 l 1
 752 1400 l 1
 637 856 l 1
 870 856 906 678 906 583 c 3
 906 549 902 513 894 476 c 2
 861 318 l 2
 811 85 670 0 448 0 c 2
 265 0 l 1
 408 672 l 1
 256 672 l 1
 111 0 l 1
EndSplineSet
Validated: 3073
EndChar

StartChar: Tshecyrillic
Encoding: 1035 1035 515
Width: 922
VWidth: 1947
Flags: W
HStem: 0 21G<159.635 345.576 563.465 757.75> 794 186<593.776 714.281> 1215 186<259.384 413 603 891.5>
VStem: 719 186<640.926 790.719>
LayerCount: 2
Fore
SplineSet
259.384 1401 m 1
 931.357 1401 l 1
 891.5 1215 l 1
 603 1215 l 1
 546 946 l 1
 594 974 640 980 659 980 c 2
 677 980 l 2
 814 980 905 892 905 753 c 3
 905 726 901 698 895 668 c 2
 753.514 0 l 1
 563.465 0 l 1
 713 706 l 2
 717 725 719 741 719 753 c 3
 719 784 714 794 677 794 c 2
 661 794 l 2
 640 794 499 719 430 398 c 2
 345.576 2.84217e-14 l 1
 155.395 0 l 1
 413 1215 l 5
 219.637 1215 l 1
 259.384 1401 l 1
EndSplineSet
Validated: 3073
EndChar

StartChar: Dzhecyrillic
Encoding: 1039 1039 516
Width: 922
VWidth: 2334
Flags: W
HStem: -384 21G<172 367.219> 0 185<205 254 444 573> 1380 20G<268.743 463 826.753 1021>
LayerCount: 2
Fore
SplineSet
205 185 m 1
 573 185 l 1
 831 1400 l 1
 1021 1400 l 1
 723 0 l 1
 444 0 l 1
 363 -384 l 1
 172 -384 l 1
 254 0 l 1
 -25 0 l 1
 273 1400 l 1
 463 1400 l 1
 205 185 l 1
EndSplineSet
Validated: 3073
EndChar

StartChar: djecyrillic
Encoding: 1106 1106 517
Width: 922
VWidth: 2334
Flags: W
HStem: -387 186<250.483 447.42> 0 21G<25 219.236> 730 186<466.066 663.676> 1060 186<183 251 480 717> 1406 20G<324.667 519>
VStem: 669 186<430.445 724.141>
LayerCount: 2
Fore
SplineSet
717 1060 m 1
 441 1060 l 1
 399 865 l 1
 450 897 506 916 565 916 c 2
 583 916 l 2
 795 916 855 799 855 676 c 3
 855 648 852 604 837 534 c 2
 713 -47 l 2
 678 -210 549 -387 352 -387 c 2
 301 -387 l 2
 220 -387 135 -353 90 -275 c 1
 250 -181 l 1
 260 -198 290 -201 301 -201 c 2
 352 -201 l 2
 424 -201 505 -129 531 -9 c 2
 655 572 l 2
 666 623 669 655 669 676 c 3
 669 709 656 730 583 730 c 2
 565 730 l 2
 473 730 336 570 312 458 c 2
 215 0 l 1
 152 0 88 0 25 0 c 1
 251 1060 l 1
 143 1060 l 1
 183 1246 l 1
 290 1246 l 1
 329 1426 l 1
 519 1426 l 1
 480 1246 l 1
 756 1246 l 1
 717 1060 l 1
EndSplineSet
Validated: 3073
EndChar

StartChar: dzhecyrillic
Encoding: 1119 1119 519
Width: 922
VWidth: 1947
Flags: W
HStem: 0 186<205 254 444 573> 1003 20G<188.738 383 745.771 940>
LayerCount: 2
Fore
SplineSet
205 186 m 1
 573 186 l 1
 750 1023 l 1
 940 1023 l 1
 723 0 l 1
 444 0 l 1
 362 -387 l 1
 172 -387 l 1
 254 0 l 1
 -25 0 l 1
 193 1023 l 1
 383 1023 l 1
 205 186 l 1
EndSplineSet
Validated: 3073
EndChar

StartChar: ljecyrillic
Encoding: 1113 1113 520
Width: 922
VWidth: 1947
Flags: W
HStem: -0 185<485 598.146> 1003 20G<379 664>
VStem: 653 186<239.437 465.448>
LayerCount: 2
Fore
SplineSet
545 468 m 1
 485 185 l 1
 508 185 l 2
 560 185 619 220 639 311 c 2
 649 356 l 2
 652 371 653 385 653 397 c 3
 653 437 639 468 607 468 c 2
 545 468 l 1
94 639 m 2
 137 796 203 954 379 1018 c 2
 395 1023 l 1
 664 1023 l 1
 585 654 l 1
 607 654 l 2
 742 654 839 544 839 397 c 3
 839 371 837 345 831 318 c 2
 821 271 l 2
 784 102 661 -0 533 -0 c 2
 255 0 l 1
 434 838 l 1
 429 838 l 1
 351 803 310 724 274 591 c 2
 113 -0 l 1
 49 0 -15 0 -79 0 c 1
 94 639 l 2
EndSplineSet
Validated: 3073
EndChar

StartChar: njecyrillic
Encoding: 1114 1114 521
Width: 922
VWidth: 1947
Flags: W
HStem: -0 185<485 598.146> 468 186<264 354 584 649.856> 1003 20G<147.797 342 467.772 662>
VStem: 653 186<239.437 465.448>
LayerCount: 2
Fore
SplineSet
485 185 m 1
 508 185 l 2
 560 185 619 220 639 311 c 2
 649 356 l 2
 652 371 653 385 653 397 c 3
 653 437 639 468 607 468 c 2
 544 468 l 1
 485 185 l 1
127 -0 m 1
 64 0 0 0 -63 -0 c 1
 152 1023 l 1
 342 1023 l 1
 264 654 l 1
 394 654 l 1
 472 1023 l 1
 662 1023 l 1
 584 654 l 1
 607 654 l 2
 742 654 839 544 839 397 c 3
 839 371 837 345 831 318 c 2
 821 271 l 2
 784 102 661 -0 533 -0 c 2
 256 0 l 1
 354 468 l 1
 225 468 l 1
 127 -0 l 1
EndSplineSet
Validated: 3073
EndChar

StartChar: apostrophereverse
Encoding: 8219 8219 523
Width: 922
VWidth: 1708
Flags: W
HStem: 915 72<701.331 725.177>
VStem: 438 205<1097.1 1380>
LayerCount: 2
Fore
SplineSet
627 1519 m 3
 728 1519 826 1462 826 1344 c 3
 826 1187 643 1207 643 1112 c 3
 643 1060 701 1011 746 987 c 1
 720 915 l 1
 517 963 438 1128 438 1290 c 3
 438 1470 554 1519 627 1519 c 3
EndSplineSet
Validated: 3073
EndChar

StartChar: arrowleft
Encoding: 8592 8592 526
Width: 922
VWidth: 1708
Flags: W
HStem: 520 160<287 872>
LayerCount: 2
Fore
SplineSet
872 680 m 1
 872 520 l 1
 287 520 l 1
 517 297 l 1
 405 183 l 1
 50 527 l 1
 50 673 l 1
 405 1017 l 1
 517 903 l 1
 287 680 l 1
 872 680 l 1
EndSplineSet
Validated: 3073
EndChar

StartChar: arrowright
Encoding: 8594 8594 527
Width: 922
VWidth: 1708
Flags: W
HStem: 520 160<50 635>
LayerCount: 2
Fore
SplineSet
50 520 m 1
 50 680 l 1
 635 680 l 1
 405 903 l 1
 517 1017 l 1
 872 673 l 1
 872 527 l 1
 517 183 l 1
 405 297 l 1
 635 520 l 1
 50 520 l 1
EndSplineSet
Validated: 3073
EndChar

StartChar: lthorizform
Encoding: 9472 9472 528
Width: 922
Flags: W
HStem: 443 160<0 922>
LayerCount: 2
Fore
SplineSet
0 443 m 1
 -0 603 l 1
 922 603 l 1
 922 443 l 1
 0 443 l 1
EndSplineSet
Validated: 3073
EndChar

StartChar: ltvertform
Encoding: 9474 9474 529
Width: 922
Flags: W
VStem: 381 160<-615 1775>
LayerCount: 2
Fore
SplineSet
541 -615 m 1
 381 -615 l 1
 381 1775 l 1
 541 1775 l 1
 541 -615 l 1
EndSplineSet
Validated: 3073
EndChar

StartChar: rightanglenw
Encoding: 9484 9484 530
Width: 922
Flags: W
HStem: 443 160<541 922>
VStem: 381 160<-615 443>
LayerCount: 2
Fore
SplineSet
381 -615 m 1
 381 603 l 1
 922 603 l 1
 922 443 l 1
 541 443 l 1
 541 -615 l 1
 381 -615 l 1
EndSplineSet
Validated: 3073
EndChar

StartChar: rightanglene
Encoding: 9488 9488 531
Width: 922
Flags: W
HStem: 443 160<0 381>
VStem: 381 160<-615 443>
LayerCount: 2
Fore
SplineSet
381 443 m 1
 0 443 l 1
 -0 603 l 1
 541 603 l 1
 541 -615 l 1
 381 -615 l 1
 381 443 l 1
EndSplineSet
Validated: 3073
EndChar

StartChar: rightanglesw
Encoding: 9492 9492 532
Width: 922
Flags: W
HStem: 443 160<541 922>
VStem: 381 160<603 1775>
LayerCount: 2
Fore
SplineSet
541 603 m 1
 922 603 l 1
 922 443 l 1
 381 443 l 1
 381 1775 l 1
 541 1775 l 1
 541 603 l 1
EndSplineSet
Validated: 3073
EndChar

StartChar: rightanglese
Encoding: 9496 9496 533
Width: 922
Flags: W
HStem: 443 160<0 381>
VStem: 381 160<603 1775>
LayerCount: 2
Fore
SplineSet
541 1775 m 1
 541 443 l 1
 0 443 l 1
 -0 603 l 1
 381 603 l 1
 381 1775 l 1
 541 1775 l 1
EndSplineSet
Validated: 3073
EndChar

StartChar: ltvertrightform
Encoding: 9500 9500 534
Width: 922
Flags: W
HStem: 443 160<541 922>
VStem: 381 160<-615 443 603 1775>
LayerCount: 2
Fore
SplineSet
541 -615 m 1
 381 -615 l 1
 381 1775 l 1
 541 1775 l 1
 541 603 l 1
 922 603 l 1
 922 443 l 1
 541 443 l 1
 541 -615 l 1
EndSplineSet
Validated: 3073
EndChar

StartChar: ltvertleftform
Encoding: 9508 9508 535
Width: 922
Flags: W
HStem: 443 160<0 381>
VStem: 381 160<-615 443 603 1775>
LayerCount: 2
Fore
SplineSet
0 443 m 1
 -0 603 l 1
 381 603 l 1
 381 1775 l 1
 541 1775 l 1
 541 -615 l 1
 381 -615 l 1
 381 443 l 1
 0 443 l 1
EndSplineSet
Validated: 3073
EndChar

StartChar: ltdnhorizform
Encoding: 9516 9516 536
Width: 922
Flags: W
HStem: 443 160<0 381 541 922>
VStem: 381 160<-615 443>
LayerCount: 2
Fore
SplineSet
0 443 m 1
 -0 603 l 1
 922 603 l 1
 922 443 l 1
 541 443 l 1
 541 -615 l 1
 381 -615 l 1
 381 443 l 1
 0 443 l 1
EndSplineSet
Validated: 3073
EndChar

StartChar: ltuphorizform
Encoding: 9524 9524 537
Width: 922
Flags: W
HStem: 443 160<0 381 541 922>
VStem: 381 160<603 1775>
LayerCount: 2
Fore
SplineSet
0 443 m 1
 -0 603 l 1
 381 603 l 1
 381 1775 l 1
 541 1775 l 1
 541 603 l 1
 922 603 l 1
 922 443 l 1
 0 443 l 1
EndSplineSet
Validated: 3073
EndChar

StartChar: ltverthorizform
Encoding: 9532 9532 538
Width: 922
Flags: W
HStem: 443 160<0 381 541 922>
VStem: 381 160<-615 443 603 1775>
LayerCount: 2
Fore
SplineSet
0 443 m 1
 -0 603 l 1
 381 603 l 1
 381 1775 l 1
 541 1775 l 1
 541 603 l 1
 922 603 l 1
 922 443 l 1
 541 443 l 1
 541 -615 l 1
 381 -615 l 1
 381 443 l 1
 0 443 l 1
EndSplineSet
Validated: 3073
EndChar

StartChar: horizdblbar
Encoding: 9552 9552 539
Width: 922
Flags: W
HStem: 283 160<0 922> 603 160<0 922>
LayerCount: 2
Fore
SplineSet
0 603 m 1
 -0 763 l 1
 922 763 l 1
 922 603 l 1
 0 603 l 1
0 283 m 1
 -0 443 l 1
 922 443 l 1
 922 283 l 1
 0 283 l 1
EndSplineSet
Validated: 3073
EndChar

StartChar: vertdblbar
Encoding: 9553 9553 540
Width: 922
Flags: W
VStem: 221 160<-615 1775> 541 160<-615 1775>
LayerCount: 2
Fore
SplineSet
701 -615 m 1
 541 -615 l 1
 541 1775 l 1
 701 1775 l 1
 701 -615 l 1
381 -615 m 1
 221 -615 l 1
 221 1775 l 1
 381 1775 l 1
 381 -615 l 1
EndSplineSet
Validated: 3073
EndChar

StartChar: dnrtdblform
Encoding: 9554 9554 541
Width: 922
Flags: W
HStem: 283 160<541 922> 603 160<541 922>
VStem: 381 160<-615 283 443 603>
LayerCount: 2
Fore
SplineSet
541 283 m 1
 541 -615 l 1
 381 -615 l 1
 381 763 l 1
 922 763 l 1
 922 603 l 1
 541 603 l 1
 541 443 l 1
 922 443 l 1
 922 283 l 1
 541 283 l 1
EndSplineSet
Validated: 3073
EndChar

StartChar: dndblrtform
Encoding: 9555 9555 542
Width: 922
Flags: W
HStem: 443 160<381 541 701 922>
VStem: 221 160<-615 443> 541 160<-615 443>
LayerCount: 2
Fore
SplineSet
701 -615 m 1
 541 -615 l 1
 541 443 l 1
 381 443 l 1
 381 -615 l 1
 221 -615 l 1
 221 603 l 1
 922 603 l 1
 922 443 l 1
 701 443 l 1
 701 -615 l 1
EndSplineSet
Validated: 3073
EndChar

StartChar: dbldnrtform
Encoding: 9556 9556 543
Width: 922
Flags: W
HStem: 283 160<701 922> 603 160<381 922>
VStem: 221 160<-615 603> 541 160<-615 283>
LayerCount: 2
Fore
SplineSet
381 603 m 1
 381 -615 l 1
 221 -615 l 1
 221 763 l 1
 922 763 l 1
 922 603 l 1
 381 603 l 1
701 283 m 1
 701 -615 l 1
 541 -615 l 1
 541 443 l 1
 922 443 l 1
 922 283 l 1
 701 283 l 1
EndSplineSet
Validated: 3073
EndChar

StartChar: dnleftdblform
Encoding: 9557 9557 544
Width: 922
Flags: W
HStem: 283 160<0 381> 603 160<0 381>
VStem: 381 160<-615 283 443 603>
LayerCount: 2
Fore
SplineSet
0 763 m 1
 541 763 l 1
 541 -615 l 1
 381 -615 l 1
 381 283 l 1
 0 283 l 1
 -0 443 l 1
 381 443 l 1
 381 603 l 1
 -0 603 l 1
 0 763 l 1
EndSplineSet
Validated: 3073
EndChar

StartChar: dndblleftform
Encoding: 9558 9558 545
Width: 922
Flags: W
HStem: 443 160<0 221 381 541>
VStem: 221 160<-615 443> 541 160<-615 443>
LayerCount: 2
Fore
SplineSet
381 -615 m 1
 221 -615 l 1
 221 443 l 1
 0 443 l 1
 -0 603 l 1
 701 603 l 1
 701 -615 l 1
 541 -615 l 1
 541 443 l 1
 381 443 l 1
 381 -615 l 1
EndSplineSet
Validated: 3073
EndChar

StartChar: dbldnleftform
Encoding: 9559 9559 546
Width: 922
Flags: W
HStem: 283 160<0 221> 603 160<0 541>
VStem: 221 160<-615 283> 541 160<-615 603>
LayerCount: 2
Fore
SplineSet
0 763 m 1
 701 763 l 1
 701 -615 l 1
 541 -615 l 1
 541 603 l 1
 -0 603 l 1
 0 763 l 1
0 443 m 1
 381 443 l 1
 381 -615 l 1
 221 -615 l 1
 221 283 l 1
 -0 283 l 1
 0 443 l 1
EndSplineSet
Validated: 3073
EndChar

StartChar: uprtdblform
Encoding: 9560 9560 547
Width: 922
Flags: W
HStem: 283 160<541 922> 603 160<541 922>
VStem: 381 160<443 603 763 1775>
LayerCount: 2
Fore
SplineSet
922 283 m 1
 381 283 l 1
 381 1775 l 1
 541 1775 l 1
 541 763 l 1
 922 763 l 1
 922 603 l 1
 541 603 l 1
 541 443 l 1
 922 443 l 1
 922 283 l 1
EndSplineSet
Validated: 3073
EndChar

StartChar: updblrtform
Encoding: 9561 9561 548
Width: 922
Flags: W
HStem: 443 160<381 541 701 922>
VStem: 221 160<603 1775> 541 160<603 1775>
LayerCount: 2
Fore
SplineSet
701 603 m 1
 922 603 l 1
 922 443 l 1
 221 443 l 1
 221 1775 l 1
 381 1775 l 1
 381 603 l 1
 541 603 l 1
 541 1775 l 1
 701 1775 l 1
 701 603 l 1
EndSplineSet
Validated: 3073
EndChar

StartChar: dbluprtform
Encoding: 9562 9562 549
Width: 922
Flags: W
HStem: 283 160<381 922> 603 160<701 922>
VStem: 221 160<443 1775> 541 160<763 1775>
LayerCount: 2
Fore
SplineSet
922 603 m 1
 541 603 l 1
 541 1775 l 1
 701 1775 l 1
 701 763 l 1
 922 763 l 1
 922 603 l 1
922 283 m 1
 221 283 l 1
 221 1775 l 1
 381 1775 l 1
 381 443 l 1
 922 443 l 1
 922 283 l 1
EndSplineSet
Validated: 3073
EndChar

StartChar: upleftdblform
Encoding: 9563 9563 550
Width: 922
Flags: W
HStem: 283 160<0 381> 603 160<0 381>
VStem: 381 160<443 603 763 1775>
LayerCount: 2
Fore
SplineSet
0 603 m 1
 -0 763 l 1
 381 763 l 1
 381 1775 l 1
 541 1775 l 1
 541 283 l 1
 -0 283 l 1
 0 443 l 1
 381 443 l 1
 381 603 l 1
 0 603 l 1
EndSplineSet
Validated: 3073
EndChar

StartChar: updblleftform
Encoding: 9564 9564 551
Width: 922
Flags: W
HStem: 443 160<0 221 381 541>
VStem: 221 160<603 1775> 541 160<603 1775>
LayerCount: 2
Fore
SplineSet
701 1775 m 1
 701 443 l 1
 0 443 l 1
 -0 603 l 1
 221 603 l 1
 221 1775 l 1
 381 1775 l 1
 381 603 l 1
 541 603 l 1
 541 1775 l 1
 701 1775 l 1
EndSplineSet
Validated: 3073
EndChar

StartChar: dblupleftform
Encoding: 9565 9565 552
Width: 922
Flags: W
HStem: 283 160<0 541> 603 160<0 221>
VStem: 221 160<763 1775> 541 160<443 1775>
LayerCount: 2
Fore
SplineSet
221 763 m 1
 221 1775 l 1
 381 1775 l 1
 381 603 l 1
 -0 603 l 1
 0 763 l 1
 221 763 l 1
541 443 m 1
 541 1775 l 1
 701 1775 l 1
 701 283 l 1
 -0 283 l 1
 0 443 l 1
 541 443 l 1
EndSplineSet
Validated: 3073
EndChar

StartChar: vertrtdblform
Encoding: 9566 9566 553
Width: 922
Flags: W
HStem: 283 160<541 922> 603 160<541 922>
VStem: 381 160<-615 283 443 603 763 1775>
LayerCount: 2
Fore
SplineSet
541 -615 m 1
 381 -615 l 1
 381 1775 l 5
 541 1775 l 5
 541 763 l 1
 922 763 l 1
 922 603 l 1
 541 603 l 1
 541 443 l 1
 922 443 l 1
 922 283 l 1
 541 283 l 1
 541 -615 l 1
EndSplineSet
Validated: 3073
EndChar

StartChar: vertdblrtform
Encoding: 9567 9567 554
Width: 922
Flags: W
HStem: 443 160<701 922>
VStem: 221 160<-615 1775> 541 160<-615 443 603 1775>
LayerCount: 2
Fore
SplineSet
381 1775 m 5
 381 -615 l 5
 221 -615 l 5
 221 1775 l 5
 381 1775 l 5
541 1775 m 5
 701 1775 l 5
 701 603 l 5
 922 603 l 5
 922 443 l 5
 701 443 l 5
 701 -615 l 5
 541 -615 l 5
 541 1775 l 5
EndSplineSet
Validated: 3073
EndChar

StartChar: dblvertrtform
Encoding: 9568 9568 555
Width: 922
Flags: W
HStem: 283 160<701 922> 603 160<701 922>
VStem: 221 160<-615 1775> 541 381<283 443 603 763> 541 160<-615 283 763 1775>
LayerCount: 2
Fore
SplineSet
381 -615 m 1xe0
 221 -615 l 1
 221 1775 l 5
 381 1775 l 5
 381 -615 l 1xe0
922 603 m 1xf0
 541 603 l 1xf0
 541 1775 l 5
 701 1775 l 5
 701 763 l 1xe8
 922 763 l 1
 922 603 l 1xf0
701 283 m 1xe8
 701 -615 l 1
 541 -615 l 1xe8
 541 443 l 1
 922 443 l 1
 922 283 l 1xf0
 701 283 l 1xe8
EndSplineSet
Validated: 3073
EndChar

StartChar: vertleftdblform
Encoding: 9569 9569 556
Width: 922
Flags: W
HStem: 283 160<0 381> 603 160<0 381>
VStem: 381 160<-615 283 443 603 763 1775>
LayerCount: 2
Fore
SplineSet
541 -615 m 1
 381 -615 l 1
 381 283 l 1
 0 283 l 1
 -0 443 l 1
 381 443 l 1
 381 603 l 1
 0 603 l 1
 -0 763 l 1
 381 763 l 1
 381 1775 l 1
 541 1775 l 1
 541 -615 l 1
EndSplineSet
Validated: 3073
EndChar

StartChar: vertdblleftform
Encoding: 9570 9570 557
Width: 922
Flags: W
HStem: 443 160<0 221>
VStem: 221 160<-615 443 603 1775> 541 160<-615 1775>
LayerCount: 2
Fore
SplineSet
0 443 m 1
 -0 603 l 1
 221 603 l 1
 221 1775 l 1
 381 1775 l 1
 381 -615 l 1
 221 -615 l 1
 221 443 l 1
 0 443 l 1
701 -615 m 1
 541 -615 l 1
 541 1775 l 1
 701 1775 l 1
 701 -615 l 1
EndSplineSet
Validated: 3073
EndChar

StartChar: dblvertleftform
Encoding: 9571 9571 558
Width: 922
Flags: W
HStem: 283 160<0 221> 603 160<0 221>
VStem: -0 381<283 443 603 763> 221 160<-615 283 763 1775> 541 160<-615 1775>
LayerCount: 2
Fore
SplineSet
701 -615 m 1xc8
 541 -615 l 1
 541 1775 l 1
 701 1775 l 1
 701 -615 l 1xc8
221 763 m 1xd8
 221 1775 l 1
 381 1775 l 1xd8
 381 603 l 1
 -0 603 l 1
 0 763 l 1xe8
 221 763 l 1xd8
0 443 m 1xe8
 381 443 l 1xe8
 381 -615 l 1
 221 -615 l 1
 221 283 l 1xd8
 -0 283 l 1
 0 443 l 1xe8
EndSplineSet
Validated: 3073
EndChar

StartChar: dnhorizdblform
Encoding: 9572 9572 559
Width: 922
Flags: W
HStem: 283 160<0 381 541 922> 603 160<0 922>
VStem: 381 160<-615 283>
LayerCount: 2
Fore
SplineSet
541 -615 m 1
 381 -615 l 1
 381 283 l 1
 0 283 l 1
 -0 443 l 1
 922 443 l 1
 922 283 l 1
 541 283 l 1
 541 -615 l 1
0 603 m 1
 -0 763 l 1
 922 763 l 1
 922 603 l 1
 0 603 l 1
EndSplineSet
Validated: 3073
EndChar

StartChar: dndblhorizform
Encoding: 9573 9573 560
Width: 922
Flags: W
HStem: 443 160<0 221 381 541 701 922>
VStem: 221 160<-615 443> 541 160<-615 443>
LayerCount: 2
Fore
SplineSet
0 443 m 1
 -0 603 l 1
 922 603 l 1
 922 443 l 1
 701 443 l 1
 701 -615 l 1
 541 -615 l 1
 541 443 l 1
 381 443 l 1
 381 -615 l 1
 221 -615 l 1
 221 443 l 1
 0 443 l 1
EndSplineSet
Validated: 3073
EndChar

StartChar: dbldnhorizform
Encoding: 9574 9574 561
Width: 922
Flags: W
HStem: 283 160<0 221 701 922> 603 160<0 922>
VStem: 221 160<-615 283> 541 160<-615 283>
LayerCount: 2
Fore
SplineSet
0 603 m 1
 -0 763 l 1
 922 763 l 1
 922 603 l 1
 0 603 l 1
0 443 m 1
 381 443 l 1
 381 -615 l 1
 221 -615 l 1
 221 283 l 1
 -0 283 l 1
 0 443 l 1
701 283 m 1
 701 -615 l 1
 541 -615 l 1
 541 443 l 1
 922 443 l 1
 922 283 l 1
 701 283 l 1
EndSplineSet
Validated: 3073
EndChar

StartChar: uphorizdblform
Encoding: 9575 9575 562
Width: 922
Flags: W
HStem: 283 160<0 922> 603 160<0 381 541 922>
VStem: 381 160<763 1775>
LayerCount: 2
Fore
SplineSet
0 603 m 1
 -0 763 l 1
 381 763 l 1
 381 1775 l 1
 541 1775 l 1
 541 763 l 1
 922 763 l 1
 922 603 l 1
 0 603 l 1
0 283 m 1
 -0 443 l 1
 922 443 l 1
 922 283 l 1
 0 283 l 1
EndSplineSet
Validated: 3073
EndChar

StartChar: updblhorizform
Encoding: 9576 9576 563
Width: 922
Flags: W
HStem: 443 160<0 221 381 541 701 922>
VStem: 221 160<603 1775> 541 160<603 1775>
LayerCount: 2
Fore
SplineSet
0 443 m 1
 -0 603 l 1
 221 603 l 1
 221 1775 l 1
 381 1775 l 1
 381 603 l 1
 541 603 l 1
 541 1775 l 1
 701 1775 l 1
 701 603 l 1
 922 603 l 1
 922 443 l 1
 0 443 l 1
EndSplineSet
Validated: 3073
EndChar

StartChar: dbluphorizform
Encoding: 9577 9577 564
Width: 922
Flags: W
HStem: 283 160<0 922> 603 160<0 221 701 922>
VStem: 221 160<763 1775> 541 160<763 1775>
LayerCount: 2
Fore
SplineSet
221 763 m 1
 221 1775 l 1
 381 1775 l 1
 381 603 l 1
 -0 603 l 1
 0 763 l 1
 221 763 l 1
922 603 m 1
 541 603 l 1
 541 1775 l 1
 701 1775 l 1
 701 763 l 1
 922 763 l 1
 922 603 l 1
0 283 m 1
 -0 443 l 1
 922 443 l 1
 922 283 l 1
 0 283 l 1
EndSplineSet
Validated: 3073
EndChar

StartChar: verthorizdblform
Encoding: 9578 9578 565
Width: 922
Flags: W
HStem: 283 160<0 381 541 922> 603 160<0 381 541 922>
VStem: 381 160<-615 283 763 1775>
LayerCount: 2
Fore
SplineSet
0 603 m 1
 -0 763 l 1
 381 763 l 1
 381 1775 l 1
 541 1775 l 1
 541 763 l 1
 922 763 l 1
 922 603 l 1
 0 603 l 1
-0 443 m 1
 922 443 l 1
 922 283 l 1
 541 283 l 1
 541 -615 l 1
 381 -615 l 1
 381 283 l 1
 0 283 l 1
 -0 443 l 1
EndSplineSet
Validated: 3073
EndChar

StartChar: vertdblhorizform
Encoding: 9579 9579 566
Width: 922
Flags: W
HStem: 443 160<0 221 701 922>
VStem: 221 160<-615 443 603 1775> 541 160<-615 443 603 1775>
LayerCount: 2
Fore
SplineSet
541 1775 m 1
 701 1775 l 1
 701 603 l 1
 922 603 l 1
 922 443 l 1
 701 443 l 1
 701 -615 l 1
 541 -615 l 1
 541 1775 l 1
381 -615 m 1
 221 -615 l 1
 221 443 l 1
 0 443 l 1
 -0 603 l 1
 221 603 l 1
 221 1775 l 1
 381 1775 l 1
 381 -615 l 1
EndSplineSet
Validated: 3073
EndChar

StartChar: dblverthorizform
Encoding: 9580 9580 567
Width: 922
Flags: W
HStem: 283 160<0 221 701 922> 603 160<0 221 701 922>
VStem: -0 381<283 443 603 763> 221 160<-615 283 763 1775> 541 381<283 443 603 763> 541 160<-615 283 763 1775>
LayerCount: 2
Fore
SplineSet
221 763 m 1xd0
 221 1775 l 1
 381 1775 l 1xd0
 381 603 l 1
 -0 603 l 1
 0 763 l 1xe0
 221 763 l 1xd0
922 603 m 1xc8
 541 603 l 1xc8
 541 1775 l 1
 701 1775 l 1
 701 763 l 1xc4
 922 763 l 1
 922 603 l 1xc8
0 443 m 1xe0
 381 443 l 1xe0
 381 -615 l 1
 221 -615 l 1
 221 283 l 1xd0
 -0 283 l 1
 0 443 l 1xe0
701 283 m 1xc4
 701 -615 l 1
 541 -615 l 1xc4
 541 443 l 1
 922 443 l 1
 922 283 l 1xc8
 701 283 l 1xc4
EndSplineSet
Validated: 3073
EndChar

StartChar: upblock
Encoding: 9600 9600 568
Width: 922
Flags: W
VStem: -0 922<523 1775>
LayerCount: 2
Fore
SplineSet
922 523 m 1
 -0 523 l 1
 0 1775 l 1
 922 1775 l 1
 922 523 l 1
EndSplineSet
Validated: 3073
EndChar

StartChar: dnblock
Encoding: 9604 9604 569
Width: 922
Flags: W
HStem: -615 1138<0 922>
VStem: -0 922<-615 523>
LayerCount: 2
Fore
SplineSet
922 -615 m 1
 -0 -615 l 1
 -0 523 l 1
 922 523 l 1
 922 -615 l 1
EndSplineSet
Validated: 3073
EndChar

StartChar: block
Encoding: 9608 9608 570
Width: 922
Flags: W
VStem: -0 922<-615 1775>
LayerCount: 2
Fore
SplineSet
-0 -615 m 1
 0 1775 l 1
 922 1775 l 1
 922 -615 l 1
 -0 -615 l 1
EndSplineSet
Validated: 3073
EndChar

StartChar: lfblock
Encoding: 9612 9612 571
Width: 922
Flags: W
VStem: -0 461<-615 1775>
LayerCount: 2
Fore
SplineSet
-0 -615 m 1
 0 1775 l 1
 461 1775 l 1
 461 -615 l 1
 -0 -615 l 1
EndSplineSet
Validated: 3073
EndChar

StartChar: rtblock
Encoding: 9616 9616 572
Width: 922
Flags: W
VStem: 461 461<-615 1775>
LayerCount: 2
Fore
SplineSet
461 -615 m 1
 461 1775 l 1
 922 1775 l 1
 922 -615 l 1
 461 -615 l 1
EndSplineSet
Validated: 3073
EndChar

StartChar: shadelight
Encoding: 9617 9617 573
Width: 922
Flags: W
HStem: -514 100<153 230 461 540 769 846> -315 100<0 77 307 385 616 693> -115 99<153 230 461 540 769 846> 83 100<0 77 307 385 616 693> 283 99<153 230 461 540 769 846> 482 99<0 77 307 385 616 693> 681 100<153 230 461 540 769 846> 881 99<0 77 307 385 616 693> 1080 99<153 230 461 540 769 846> 1278 100<0 77 307 385 616 693> 1477 100<153 230 461 540 769 846> 1677 98<0 77 307 385 616 693>
VStem: 0 77<-315 -215 83 183 482 581 881 980 1278 1378 1677 1775> 153 77<-514 -414 -115 -16 283 382 681 781 1080 1179 1477 1577> 307 78<-315 -215 83 183 482 581 881 980 1278 1378 1677 1775> 461 79<-514 -414 -115 -16 283 382 681 781 1080 1179 1477 1577> 616 77<-315 -215 83 183 482 581 881 980 1278 1378 1677 1775> 769 77<-514 -414 -115 -16 283 382 681 781 1080 1179 1477 1577>
LayerCount: 2
Fore
SplineSet
0 1378 m 1
 77 1378 l 1
 77 1278 l 1
 0 1278 l 1
 0 1378 l 1
307 1378 m 1
 385 1378 l 1
 385 1278 l 1
 307 1278 l 1
 307 1378 l 1
616 1378 m 1
 693 1378 l 1
 693 1278 l 1
 616 1278 l 1
 616 1378 l 1
153 1179 m 1
 230 1179 l 1
 230 1080 l 1
 153 1080 l 1
 153 1179 l 1
461 1179 m 1
 540 1179 l 1
 540 1080 l 1
 461 1080 l 1
 461 1179 l 1
769 1179 m 1
 846 1179 l 1
 846 1080 l 1
 769 1080 l 1
 769 1179 l 1
616 980 m 1
 693 980 l 1
 693 881 l 1
 616 881 l 1
 616 980 l 1
307 980 m 1
 385 980 l 1
 385 881 l 1
 307 881 l 1
 307 980 l 1
0 980 m 1
 77 980 l 1
 77 881 l 1
 0 881 l 1
 0 980 l 1
769 781 m 1
 846 781 l 1
 846 681 l 1
 769 681 l 1
 769 781 l 1
461 781 m 1
 540 781 l 1
 540 681 l 1
 461 681 l 1
 461 781 l 1
153 781 m 1
 230 781 l 1
 230 681 l 1
 153 681 l 1
 153 781 l 1
0 581 m 1
 77 581 l 1
 77 482 l 1
 0 482 l 1
 0 581 l 1
307 581 m 1
 385 581 l 1
 385 482 l 1
 307 482 l 1
 307 581 l 1
616 581 m 1
 693 581 l 1
 693 482 l 1
 616 482 l 1
 616 581 l 1
769 382 m 1
 846 382 l 1
 846 283 l 1
 769 283 l 1
 769 382 l 1
461 382 m 1
 540 382 l 1
 540 283 l 1
 461 283 l 1
 461 382 l 1
153 382 m 1
 230 382 l 1
 230 283 l 1
 153 283 l 1
 153 382 l 1
0 183 m 1
 77 183 l 1
 77 83 l 1
 0 83 l 1
 0 183 l 1
307 183 m 1
 385 183 l 1
 385 83 l 1
 307 83 l 1
 307 183 l 1
616 183 m 1
 693 183 l 1
 693 83 l 1
 616 83 l 1
 616 183 l 1
153 -16 m 1
 230 -16 l 1
 230 -115 l 1
 153 -115 l 1
 153 -16 l 1
461 -16 m 1
 540 -16 l 1
 540 -115 l 1
 461 -115 l 1
 461 -16 l 1
769 -16 m 1
 846 -16 l 1
 846 -115 l 1
 769 -115 l 1
 769 -16 l 1
616 -215 m 1
 693 -215 l 1
 693 -315 l 1
 616 -315 l 1
 616 -215 l 1
307 -215 m 1
 385 -215 l 1
 385 -315 l 1
 307 -315 l 1
 307 -215 l 1
0 -215 m 1
 77 -215 l 1
 77 -315 l 1
 0 -315 l 1
 0 -215 l 1
153 -414 m 1
 230 -414 l 1
 230 -514 l 1
 153 -514 l 1
 153 -414 l 1
461 -414 m 1
 540 -414 l 1
 540 -514 l 1
 461 -514 l 1
 461 -414 l 1
769 -414 m 1
 846 -414 l 1
 846 -514 l 1
 769 -514 l 1
 769 -414 l 1
153 1577 m 1
 230 1577 l 1
 230 1477 l 1
 153 1477 l 1
 153 1577 l 1
461 1577 m 1
 540 1577 l 1
 540 1477 l 1
 461 1477 l 1
 461 1577 l 1
769 1577 m 1
 846 1577 l 1
 846 1477 l 1
 769 1477 l 1
 769 1577 l 1
0 1775 m 1
 77 1775 l 1
 77 1677 l 1
 0 1677 l 1
 0 1775 l 1
307 1775 m 1
 385 1775 l 1
 385 1677 l 1
 307 1677 l 1
 307 1775 l 1
616 1775 m 1
 693 1775 l 1
 693 1677 l 1
 616 1677 l 1
 616 1775 l 1
EndSplineSet
Validated: 3073
EndChar

StartChar: shademedium
Encoding: 9618 9618 574
Width: 922
Flags: W
HStem: -514 100<0 77 153 230 307 384 461 539 616 692 769 846> -315 100<77 153 230 307 384 461 539 616 692 769 846 922> -115 99<0 77 153 230 307 384 461 539 616 692 769 846> 83 100<77 153 230 307 384 461 539 616 692 769 846 922> 283 99<0 77 153 230 307 384 461 539 616 692 769 846> 482 99<77 153 230 307 384 461 539 616 692 769 846 922> 681 100<0 77 153 230 307 384 461 539 616 692 769 846> 881 99<77 153 230 307 384 461 539 616 692 769 846 922> 1080 99<0 77 153 230 307 384 461 539 616 692 769 846> 1278 100<77 153 230 307 384 461 539 616 692 769 846 922> 1477 100<0 77 153 230 307 384 461 539 616 692 769 846> 1677 98<77 153 230 307 384 461 539 616 692 769 846 922>
VStem: 0 77<-514 -414 -115 -16 283 382 681 781 1080 1179 1477 1577> 77 76<-315 -215 83 183 482 581 881 980 1278 1378 1677 1775> 153 77<-514 -414 -115 -16 283 382 681 781 1080 1179 1477 1577> 230 77<-315 -215 83 183 482 581 881 980 1278 1378 1677 1775> 307 77<-514 -414 -115 -16 283 382 681 781 1080 1179 1477 1577> 384 77<-315 -215 83 183 482 581 881 980 1278 1378 1677 1775> 461 78<-514 -414 -115 -16 283 382 681 781 1080 1179 1477 1577> 539 77<-315 -215 83 183 482 581 881 980 1278 1378 1677 1775> 616 76<-514 -414 -115 -16 283 382 681 781 1080 1179 1477 1577> 692 77<-315 -215 83 183 482 581 881 980 1278 1378 1677 1775> 769 77<-514 -414 -115 -16 283 382 681 781 1080 1179 1477 1577> 846 76<-315 -215 83 183 482 581 881 980 1278 1378 1677 1775>
LayerCount: 2
Fore
SplineSet
77 1378 m 1
 153 1378 l 1
 153 1278 l 1
 77 1278 l 1
 77 1378 l 1
230 1378 m 1
 307 1378 l 1
 307 1278 l 1
 230 1278 l 1
 230 1378 l 1
384 1378 m 1
 461 1378 l 1
 461 1278 l 1
 384 1278 l 1
 384 1378 l 1
539 1378 m 1
 616 1378 l 1
 616 1278 l 1
 539 1278 l 1
 539 1378 l 1
692 1378 m 1
 769 1378 l 1
 769 1278 l 1
 692 1278 l 1
 692 1378 l 1
846 1378 m 1
 922 1378 l 1
 922 1278 l 1
 846 1278 l 1
 846 1378 l 1
0 1179 m 1
 77 1179 l 1
 77 1080 l 1
 0 1080 l 1
 0 1179 l 1
153 1179 m 1
 230 1179 l 1
 230 1080 l 1
 153 1080 l 1
 153 1179 l 1
307 1179 m 1
 384 1179 l 1
 384 1080 l 1
 307 1080 l 1
 307 1179 l 1
461 1179 m 1
 539 1179 l 1
 539 1080 l 1
 461 1080 l 1
 461 1179 l 1
616 1179 m 1
 692 1179 l 1
 692 1080 l 1
 616 1080 l 1
 616 1179 l 1
769 1179 m 1
 846 1179 l 1
 846 1080 l 1
 769 1080 l 1
 769 1179 l 1
77 980 m 1
 153 980 l 1
 153 881 l 1
 77 881 l 1
 77 980 l 1
230 980 m 1
 307 980 l 1
 307 881 l 1
 230 881 l 1
 230 980 l 1
384 980 m 1
 461 980 l 1
 461 881 l 1
 384 881 l 1
 384 980 l 1
539 980 m 1
 616 980 l 1
 616 881 l 1
 539 881 l 1
 539 980 l 1
692 980 m 1
 769 980 l 1
 769 881 l 1
 692 881 l 1
 692 980 l 1
846 980 m 1
 922 980 l 1
 922 881 l 1
 846 881 l 1
 846 980 l 1
0 781 m 1
 77 781 l 1
 77 681 l 1
 0 681 l 1
 0 781 l 1
153 781 m 1
 230 781 l 1
 230 681 l 1
 153 681 l 1
 153 781 l 1
307 781 m 1
 384 781 l 1
 384 681 l 1
 307 681 l 1
 307 781 l 1
461 781 m 1
 539 781 l 1
 539 681 l 1
 461 681 l 1
 461 781 l 1
616 781 m 1
 692 781 l 1
 692 681 l 1
 616 681 l 1
 616 781 l 1
769 781 m 1
 846 781 l 1
 846 681 l 1
 769 681 l 1
 769 781 l 1
77 581 m 1
 153 581 l 1
 153 482 l 1
 77 482 l 1
 77 581 l 1
230 581 m 1
 307 581 l 1
 307 482 l 1
 230 482 l 1
 230 581 l 1
384 581 m 1
 461 581 l 1
 461 482 l 1
 384 482 l 1
 384 581 l 1
539 581 m 1
 616 581 l 1
 616 482 l 1
 539 482 l 1
 539 581 l 1
692 581 m 1
 769 581 l 1
 769 482 l 1
 692 482 l 1
 692 581 l 1
846 581 m 1
 922 581 l 1
 922 482 l 1
 846 482 l 1
 846 581 l 1
0 382 m 1
 77 382 l 1
 77 283 l 1
 0 283 l 1
 0 382 l 1
307 382 m 1
 384 382 l 1
 384 283 l 1
 307 283 l 1
 307 382 l 1
461 382 m 1
 539 382 l 1
 539 283 l 1
 461 283 l 1
 461 382 l 1
616 382 m 1
 692 382 l 1
 692 283 l 1
 616 283 l 1
 616 382 l 1
769 382 m 1
 846 382 l 1
 846 283 l 1
 769 283 l 1
 769 382 l 1
153 382 m 1
 230 382 l 1
 230 283 l 1
 153 283 l 1
 153 382 l 1
846 183 m 1
 922 183 l 1
 922 83 l 1
 846 83 l 1
 846 183 l 1
692 183 m 1
 769 183 l 1
 769 83 l 1
 692 83 l 1
 692 183 l 1
539 183 m 1
 616 183 l 1
 616 83 l 1
 539 83 l 1
 539 183 l 1
384 183 m 1
 461 183 l 1
 461 83 l 1
 384 83 l 1
 384 183 l 1
230 183 m 1
 307 183 l 1
 307 83 l 1
 230 83 l 1
 230 183 l 1
77 183 m 1
 153 183 l 1
 153 83 l 1
 77 83 l 1
 77 183 l 1
0 -16 m 1
 77 -16 l 1
 77 -115 l 1
 0 -115 l 1
 0 -16 l 1
153 -16 m 1
 230 -16 l 1
 230 -115 l 1
 153 -115 l 1
 153 -16 l 1
307 -16 m 1
 384 -16 l 1
 384 -115 l 1
 307 -115 l 1
 307 -16 l 1
461 -16 m 1
 539 -16 l 1
 539 -115 l 1
 461 -115 l 1
 461 -16 l 1
616 -16 m 1
 692 -16 l 1
 692 -115 l 1
 616 -115 l 1
 616 -16 l 1
769 -16 m 1
 846 -16 l 1
 846 -115 l 1
 769 -115 l 1
 769 -16 l 1
846 -215 m 1
 922 -215 l 1
 922 -315 l 1
 846 -315 l 1
 846 -215 l 1
692 -215 m 1
 769 -215 l 1
 769 -315 l 1
 692 -315 l 1
 692 -215 l 1
539 -215 m 1
 616 -215 l 1
 616 -315 l 1
 539 -315 l 1
 539 -215 l 1
384 -215 m 1
 461 -215 l 1
 461 -315 l 1
 384 -315 l 1
 384 -215 l 1
230 -215 m 1
 307 -215 l 1
 307 -315 l 1
 230 -315 l 1
 230 -215 l 1
77 -215 m 1
 153 -215 l 1
 153 -315 l 1
 77 -315 l 1
 77 -215 l 1
0 -414 m 1
 77 -414 l 1
 77 -514 l 1
 0 -514 l 1
 0 -414 l 1
153 -414 m 1
 230 -414 l 1
 230 -514 l 1
 153 -514 l 1
 153 -414 l 1
307 -414 m 1
 384 -414 l 1
 384 -514 l 1
 307 -514 l 1
 307 -414 l 1
461 -414 m 1
 539 -414 l 1
 539 -514 l 1
 461 -514 l 1
 461 -414 l 1
616 -414 m 1
 692 -414 l 1
 692 -514 l 1
 616 -514 l 1
 616 -414 l 1
769 -414 m 1
 846 -414 l 1
 846 -514 l 1
 769 -514 l 1
 769 -414 l 1
0 1577 m 1
 77 1577 l 1
 77 1477 l 1
 0 1477 l 1
 0 1577 l 1
153 1577 m 1
 230 1577 l 1
 230 1477 l 1
 153 1477 l 1
 153 1577 l 1
307 1577 m 1
 384 1577 l 1
 384 1477 l 1
 307 1477 l 1
 307 1577 l 1
461 1577 m 1
 539 1577 l 1
 539 1477 l 1
 461 1477 l 1
 461 1577 l 1
616 1577 m 1
 692 1577 l 1
 692 1477 l 1
 616 1477 l 1
 616 1577 l 1
769 1577 m 1
 846 1577 l 1
 846 1477 l 1
 769 1477 l 1
 769 1577 l 1
77 1775 m 1
 153 1775 l 1
 153 1677 l 1
 77 1677 l 1
 77 1775 l 1
230 1775 m 1
 307 1775 l 1
 307 1677 l 1
 230 1677 l 1
 230 1775 l 1
384 1775 m 1
 461 1775 l 1
 461 1677 l 1
 384 1677 l 1
 384 1775 l 1
539 1775 m 1
 616 1775 l 1
 616 1677 l 1
 539 1677 l 1
 539 1775 l 1
692 1775 m 1
 769 1775 l 1
 769 1677 l 1
 692 1677 l 1
 692 1775 l 1
846 1775 m 1
 922 1775 l 1
 922 1677 l 1
 846 1677 l 1
 846 1775 l 1
EndSplineSet
Validated: 3073
EndChar

StartChar: shadedark
Encoding: 9619 9619 575
Width: 922
Flags: W
HStem: -615 300<0 77 153 230 307 384 461 539 616 692 769 846> -615 101<77 153 230 307 384 461 539 616 692 769 846 922> -414 299<77 153 230 307 384 461 539 616 692 769 846 922> -215 299<0 77 153 230 307 384 461 539 616 692 769 846> -16 299<77 153 230 307 384 461 539 616 692 769 846 922> 183 299<0 77 153 230 307 384 461 539 616 692 769 846> 382 299<77 153 230 307 384 461 539 616 692 769 846 922> 581 299<0 77 153 230 307 384 461 539 616 692 769 846> 781 299<77 153 230 307 384 461 539 616 692 769 846 922> 980 299<0 77 153 230 307 384 461 539 616 692 769 846> 1179 299<77 153 230 307 384 461 539 616 692 769 846 922> 1378 299<0 77 153 230 307 384 461 539 616 692 769 846> 1577 198<77 153 230 307 384 461 539 616 692 769 846 922>
VStem: 0 77<-514 -414 -115 -16 283 382 681 781 1080 1179 1478 1577> 77 76<-315 -215 84 183 482 581 881 980 1279 1378 1677 1775> 153 77<-514 -414 -115 -16 283 382 681 781 1080 1179 1478 1577> 230 77<-315 -215 84 183 482 581 880 980 1279 1378 1677 1775> 307 77<-514 -414 -115 -16 283 382 681 781 1080 1179 1478 1577> 384 77<-315 -215 84 183 482 581 880 980 1279 1378 1677 1775> 461 78<-514 -414 -115 -16 283 382 681 781 1080 1179 1478 1577> 539 77<-315 -215 84 183 482 581 880 980 1279 1378 1677 1775> 616 76<-514 -414 -115 -16 283 382 681 781 1080 1179 1478 1577> 692 77<-315 -215 84 183 482 581 880 980 1279 1378 1677 1775> 769 77<-514 -414 -115 -16 283 382 681 781 1080 1179 1478 1577> 846 76<-315 -215 84 183 482 581 880 980 1279 1378 1677 1775>
LayerCount: 2
Fore
SplineSet
922 1577 m 1x000fff80
 846 1577 l 1
 846 1478 l 1
 922 1478 l 1
 922 1179 l 1
 846 1179 l 1
 846 1080 l 1
 922 1080 l 1
 922 781 l 1
 846 781 l 1
 846 681 l 1
 922 681 l 1
 922 382 l 1
 846 382 l 1
 846 283 l 1
 922 283 l 1
 922 -16 l 1
 846 -16 l 1
 846 -115 l 1
 922 -115 l 1
 922 -414 l 1
 846 -414 l 1
 846 -514 l 1
 922 -514 l 1
 922 -615 l 1x6aafff80
 0 -615 l 1
 0 -315 l 1
 77 -315 l 1
 77 -215 l 1
 0 -215 l 1
 0 83 l 1
 77 83 l 1
 77 183 l 1
 0 183 l 1
 0 482 l 1
 77 482 l 1
 77 581 l 1
 0 581 l 1
 0 881 l 1
 77 881 l 1
 77 980 l 1
 0 980 l 1
 0 1279 l 1
 77 1279 l 1
 77 1378 l 1
 0 1378 l 1
 0 1677 l 1
 77 1677 l 1x9557ff80
 77 1775 l 1
 153 1775 l 1x000fff80
 153 1677 l 1
 230 1677 l 1x0017ff80
 230 1775 l 1
 307 1775 l 1x000fff80
 307 1677 l 1
 384 1677 l 1x0017ff80
 384 1775 l 1
 461 1775 l 1x000fff80
 461 1677 l 1
 539 1677 l 1x0017ff80
 539 1775 l 1
 616 1775 l 1x000fff80
 616 1677 l 1
 692 1677 l 1x0017ff80
 692 1775 l 1
 769 1775 l 1x000fff80
 769 1677 l 1
 846 1677 l 1x0017ff80
 846 1775 l 1
 922 1775 l 1
 922 1577 l 1x000fff80
77 1179 m 1
 77 1080 l 1
 153 1080 l 1
 153 1179 l 1
 77 1179 l 1
230 1179 m 1
 230 1080 l 1
 307 1080 l 1
 307 1179 l 1
 230 1179 l 1
384 1179 m 1
 384 1080 l 1
 461 1080 l 1
 461 1179 l 1
 384 1179 l 1
539 1179 m 1
 539 1080 l 1
 616 1080 l 1
 616 1179 l 1
 539 1179 l 1
692 1179 m 1
 692 1080 l 1
 769 1080 l 1
 769 1179 l 1
 692 1179 l 1
846 980 m 1x0147ff80
 769 980 l 1
 769 880 l 1
 846 880 l 1
 846 980 l 1x0147ff80
692 980 m 1
 616 980 l 1
 616 880 l 1
 692 880 l 1
 692 980 l 1
539 980 m 1
 461 980 l 1
 461 880 l 1
 539 880 l 1
 539 980 l 1
384 980 m 1
 307 980 l 1
 307 880 l 1
 384 880 l 1
 384 980 l 1
230 980 m 1
 153 980 l 1
 153 880 l 1
 230 880 l 1
 230 980 l 1
77 781 m 1x0287ff80
 77 681 l 1
 153 681 l 1
 153 781 l 1
 77 781 l 1x0287ff80
230 781 m 1
 230 681 l 1
 307 681 l 1
 307 781 l 1
 230 781 l 1
384 781 m 1
 384 681 l 1
 461 681 l 1
 461 781 l 1
 384 781 l 1
539 781 m 1
 539 681 l 1
 616 681 l 1
 616 781 l 1
 539 781 l 1
692 781 m 1
 692 681 l 1
 769 681 l 1
 769 781 l 1
 692 781 l 1
230 581 m 1x0507ff80
 153 581 l 1
 153 482 l 1
 230 482 l 1
 230 581 l 1x0507ff80
307 581 m 1
 307 482 l 1
 384 482 l 1
 384 581 l 1
 307 581 l 1
461 581 m 1
 461 482 l 1
 539 482 l 1
 539 581 l 1
 461 581 l 1
616 581 m 1
 616 482 l 1
 692 482 l 1
 692 581 l 1
 616 581 l 1
769 581 m 1
 769 482 l 1
 846 482 l 1
 846 581 l 1
 769 581 l 1
77 382 m 1x0a07ff80
 77 283 l 1
 153 283 l 1
 153 382 l 1
 77 382 l 1x0a07ff80
384 382 m 1
 384 283 l 1
 461 283 l 1
 461 382 l 1
 384 382 l 1
307 283 m 1
 307 382 l 1
 230 382 l 1
 230 283 l 1
 307 283 l 1
539 382 m 1
 539 283 l 1
 616 283 l 1
 616 382 l 1
 539 382 l 1
692 382 m 1
 692 283 l 1
 769 283 l 1
 769 382 l 1
 692 382 l 1
846 84 m 1x1407ff80
 846 183 l 1
 769 183 l 1
 769 84 l 1
 846 84 l 1x1407ff80
692 84 m 1
 692 183 l 1
 616 183 l 1
 616 84 l 1
 692 84 l 1
539 84 m 1
 539 183 l 1
 461 183 l 1
 461 84 l 1
 539 84 l 1
384 84 m 1
 384 183 l 1
 307 183 l 1
 307 84 l 1
 384 84 l 1
230 84 m 1
 230 183 l 1
 153 183 l 1
 153 84 l 1
 230 84 l 1
77 -16 m 1x2807ff80
 77 -115 l 1
 153 -115 l 1
 153 -16 l 1
 77 -16 l 1x2807ff80
230 -16 m 1
 230 -115 l 1
 307 -115 l 1
 307 -16 l 1
 230 -16 l 1
384 -16 m 1
 384 -115 l 1
 461 -115 l 1
 461 -16 l 1
 384 -16 l 1
539 -16 m 1
 539 -115 l 1
 616 -115 l 1
 616 -16 l 1
 539 -16 l 1
692 -16 m 1
 692 -115 l 1
 769 -115 l 1
 769 -16 l 1
 692 -16 l 1
846 -315 m 1x9007ff80
 846 -215 l 1
 769 -215 l 1
 769 -315 l 1
 846 -315 l 1x9007ff80
692 -315 m 1
 692 -215 l 1
 616 -215 l 1
 616 -315 l 1
 692 -315 l 1
539 -315 m 1
 539 -215 l 1
 461 -215 l 1
 461 -315 l 1
 539 -315 l 1
384 -315 m 1
 384 -215 l 1
 307 -215 l 1
 307 -315 l 1
 384 -315 l 1
230 -315 m 1
 230 -215 l 1
 153 -215 l 1
 153 -315 l 1
 230 -315 l 1
77 -414 m 1x6007ff80
 77 -514 l 1
 153 -514 l 1
 153 -414 l 1
 77 -414 l 1x6007ff80
230 -414 m 1
 230 -514 l 1
 307 -514 l 1
 307 -414 l 1
 230 -414 l 1
384 -414 m 1
 384 -514 l 1
 461 -514 l 1
 461 -414 l 1
 384 -414 l 1
539 -414 m 1
 539 -514 l 1
 616 -514 l 1
 616 -414 l 1
 539 -414 l 1
692 -414 m 1
 692 -514 l 1
 769 -514 l 1
 769 -414 l 1
 692 -414 l 1
846 1378 m 1x0057ff80
 769 1378 l 1
 769 1279 l 1
 846 1279 l 1
 846 1378 l 1x0057ff80
692 1378 m 1
 616 1378 l 1
 616 1279 l 1
 692 1279 l 1
 692 1378 l 1
539 1378 m 1
 461 1378 l 1
 461 1279 l 1
 539 1279 l 1
 539 1378 l 1
384 1378 m 1
 307 1378 l 1
 307 1279 l 1
 384 1279 l 1
 384 1378 l 1
230 1378 m 1
 153 1378 l 1
 153 1279 l 1
 230 1279 l 1
 230 1378 l 1
769 1577 m 1x002fff80
 692 1577 l 1
 692 1478 l 1
 769 1478 l 1
 769 1577 l 1x002fff80
616 1577 m 1
 539 1577 l 1
 539 1478 l 1
 616 1478 l 1
 616 1577 l 1
461 1577 m 1
 384 1577 l 1
 384 1478 l 1
 461 1478 l 1
 461 1577 l 1
307 1577 m 1
 230 1577 l 1
 230 1478 l 1
 307 1478 l 1
 307 1577 l 1
153 1577 m 1
 77 1577 l 1
 77 1478 l 1
 153 1478 l 1
 153 1577 l 1
EndSplineSet
Validated: 3073
EndChar

StartChar: blacksquare
Encoding: 9632 9632 576
Width: 922
Flags: W
HStem: 116.375 992.245<0 922>
VStem: 0 922<116.375 1108.62>
LayerCount: 2
Fore
SplineSet
0 1108.62 m 5
 922 1108.62 l 5
 922 116.375 l 5
 0 116.375 l 5
 0 1108.62 l 5
EndSplineSet
Validated: 3073
EndChar

StartChar: whitesquare
Encoding: 9633 9633 577
Width: 922
Flags: W
HStem: 116 192<187 734> 917 192<187 734>
VStem: 0 187<308 917> 734 188<308 917>
LayerCount: 2
Fore
SplineSet
0 1109 m 1
 922 1109 l 1
 922 116 l 1
 0 116 l 1
 0 1109 l 1
187 917 m 1
 187 308 l 1
 734 308 l 1
 734 917 l 1
 187 917 l 1
EndSplineSet
Validated: 3073
EndChar

StartChar: blacksmallsquare
Encoding: 9642 9642 578
Width: 922
Flags: W
HStem: 400 473<224 697>
VStem: 224 473<400 873>
LayerCount: 2
Fore
SplineSet
697 400 m 1
 224 400 l 1
 224 873 l 1
 697 873 l 1
 697 400 l 1
EndSplineSet
Validated: 3073
EndChar

StartChar: whitesmallsquare
Encoding: 9643 9643 579
Width: 922
Flags: W
HStem: 400 114<342 579> 759 114<342 579>
VStem: 224 118<514 759> 579 118<514 759>
LayerCount: 2
Fore
SplineSet
697 400 m 1
 224 400 l 1
 224 873 l 1
 697 873 l 1
 697 400 l 1
579 514 m 1
 579 759 l 1
 342 759 l 1
 342 514 l 1
 579 514 l 1
EndSplineSet
Validated: 3073
EndChar

StartChar: blackrectangle
Encoding: 9644 9644 580
Width: 922
Flags: W
HStem: 395 231<0 922>
LayerCount: 2
Fore
SplineSet
0 626 m 1
 922 626 l 5
 922 395 l 5
 0 395 l 1
 0 626 l 1
EndSplineSet
Validated: 3073
EndChar

StartChar: triagup
Encoding: 9650 9650 581
Width: 922
Flags: W
LayerCount: 2
Fore
SplineSet
0 114 m 1
 460 914 l 1
 922 114 l 1
 0 114 l 1
EndSplineSet
Validated: 3073
EndChar

StartChar: triagrt
Encoding: 9658 9658 582
Width: 922
Flags: W
LayerCount: 2
Fore
SplineSet
63 -63 m 1
 61 860 l 1
 861 398 l 1
 63 -63 l 1
EndSplineSet
Validated: 3073
EndChar

StartChar: triagdn
Encoding: 9660 9660 583
Width: 922
Flags: W
LayerCount: 2
Fore
SplineSet
922 914 m 1
 462 114 l 1
 0 914 l 1
 922 914 l 1
EndSplineSet
Validated: 3073
EndChar

StartChar: triaglf
Encoding: 9668 9668 584
Width: 922
Flags: W
LayerCount: 2
Fore
SplineSet
62 398 m 1
 860 861 l 1
 860 -63 l 1
 62 398 l 1
EndSplineSet
Validated: 3073
EndChar

StartChar: lozenge
Encoding: 9674 9674 585
Width: 922
Flags: W
LayerCount: 2
Fore
SplineSet
501 1287 m 1
 834 709 l 1
 501 135 l 1
 411 135 l 1
 89 709 l 1
 411 1287 l 1
 501 1287 l 1
458 1059 m 1
 261 710 l 1
 458 361 l 1
 657 710 l 1
 458 1059 l 1
EndSplineSet
Validated: 3073
EndChar

StartChar: whitecircle
Encoding: 9675 9675 586
Width: 922
Flags: W
HStem: 221 150<334.35 586.595> 784 150<333.91 587.132>
VStem: 104 150<452.439 703.668> 668 150<451.815 701.975>
LayerCount: 2
Fore
SplineSet
461 934 m 0
 663 934 818 770 818 578 c 0
 818 377 658 221 461 221 c 0
 258 221 104 381 104 578 c 0
 104 763 251 934 461 934 c 0
461 784 m 0
 341 784 254 688 254 578 c 0
 254 453 355 371 461 371 c 256
 577 371 668 463 668 578 c 0
 668 683 584 784 461 784 c 0
EndSplineSet
Validated: 3073
EndChar

StartChar: blackcircle
Encoding: 9679 9679 587
Width: 922
Flags: W
HStem: 221 713<292.824 631.094>
VStem: 104 714<407.906 745.646>
LayerCount: 2
Fore
SplineSet
461 934 m 0
 663 934 818 770 818 578 c 0
 818 377 658 221 461 221 c 0
 258 221 104 381 104 578 c 0
 104 763 251 934 461 934 c 0
EndSplineSet
Validated: 3073
EndChar

StartChar: bulletinverse
Encoding: 9688 9688 588
Width: 922
Flags: W
HStem: 93.0996 233.28<349.727 573.114> 653.62 233.28<348.385 573.674>
VStem: 63 234<377.921 601.629> 624 233<379.634 603.318>
LayerCount: 2
Fore
SplineSet
63 93.0996 m 1
 63 886.9 l 1
 857 886.9 l 1
 857 93.0996 l 1
 63 93.0996 l 1
460 653.62 m 256
 372.166 653.62 297 584.433 297 490 c 0
 297 394.433 375.638 326.38 460 326.38 c 0
 550.48 326.38 624 398.748 624 490 c 0
 624 581.479 551.93 653.62 460 653.62 c 256
EndSplineSet
Validated: 3073
EndChar

StartChar: whitecircleinverse
Encoding: 9689 9689 589
Width: 922
Flags: W
HStem: 110 111<289.809 635.959> 371 413<335.607 588.433> 934 111<293.797 632.866>
VStem: 0 105<406.695 749.753> 255 413<448.029 702.431> 818 104<402.264 747.094>
CounterMasks: 1 e0
LayerCount: 2
Fore
SplineSet
0 110 m 1
 0 1045 l 1
 922 1045 l 1
 922 110 l 1
 0 110 l 1
461 934 m 0
 270 934 105 780 105 577 c 0
 105 379 261 221 461 221 c 0
 652 221 818 369 818 577 c 0
 818 774 662 934 461 934 c 0
462 784 m 0
 577 784 668 691 668 577 c 0
 668 459 574 371 462 371 c 0
 349 371 255 459 255 577 c 0
 255 695 351 784 462 784 c 0
EndSplineSet
Validated: 3073
EndChar

StartChar: whitebullet
Encoding: 9702 9702 590
Width: 922
Flags: W
HStem: 406 113<368.896 552.757> 754 113<368.685 552.223>
VStem: 230 113<545.062 727.979> 579 112<546.84 727.446>
LayerCount: 2
Fore
SplineSet
691 637 m 0
 691 499 580 406 460 406 c 256
 333 406 230 507 230 637 c 0
 230 765 332 867 460 867 c 0
 591 867 691 764 691 637 c 0
579 637 m 0
 579 705 524 754 460 754 c 256
 399 754 343 707 343 637 c 0
 343 566 399 519 460 519 c 256
 526 519 579 571 579 637 c 0
EndSplineSet
Validated: 3073
EndChar

StartChar: smileface
Encoding: 9786 9786 591
Width: 922
Flags: W
HStem: 124 126<298.564 622.839> 338 54<371.617 548.201> 608 114<255.697 366.296 555.643 665.674> 919 126<293.127 624.394>
VStem: -0 127<417.754 749.129> 254 114<609.589 720.417> 554 113<609.487 720.519> 795 126<419.528 752.828>
LayerCount: 2
Fore
SplineSet
921 584 m 0
 921 327 719 124 460 124 c 0
 202 124 -0 329 -0 584 c 0
 -0 850 212 1045 460 1045 c 0
 719 1045 921 841 921 584 c 0
795 584 m 0
 795 771 649 919 460 919 c 0
 272 919 127 770 127 584 c 0
 127 390 282 250 460 250 c 0
 642 250 795 392 795 584 c 0
368 666 m 256
 368 634 343 608 310 608 c 256
 278 608 254 636 254 666 c 256
 254 694 277 722 310 722 c 256
 344 722 368 695 368 666 c 256
667 666 m 256
 667 634 644 608 612 608 c 256
 578 608 554 634 554 666 c 256
 554 696 577 722 612 722 c 256
 644 722 667 696 667 666 c 256
280 458 m 1
 319 480 l 1
 351 422 398 392 460 392 c 256
 523 392 570 422 602 480 c 1
 641 458 l 1
 600 378 539 338 460 338 c 0
 363 338 310 401 280 458 c 1
EndSplineSet
Validated: 3073
EndChar

